<svg
   version="1.1"
   viewBox="0 0 43.158276 17.844423"
   id="svg1146"
   >
  <g
     id="layer1"
     transform="translate(-92.164006,-114.79766)">
    <g
       id="g1800"
       transform="rotate(-3.2996617,135.31811,114.79541)">
      <path
         id="path864-6-6"
         d="m 92.219397,112.59169 c 8.741933,7.51271 22.254003,7.51447 26.718263,7.28586 a 17.172068,17.172068 0 0 1 -0.75034,-4.02095 c -5.09854,-0.40183 -16.55048,-1.43847 -25.967923,-3.26491 z"
          />
      <flowRoot
         transform="matrix(0.26199764,0.03689954,-0.03689954,0.26199764,62.577003,-1.0927544)"
         id="flowRoot1084"><flowRegion
           id="flowRegion1086"><rect
             y="411.87738"
             x="203.2932"
             height="9.0913649"
             width="54.2957"
             id="rect1088" /></flowRegion><flowPara
           id="flowPara1090">Strona jeden</flowPara></flowRoot>    </g>
    <g
       id="g1807"
       transform="rotate(-3.2996617,135.31811,114.79541)">
      <path
         id="path864-1-1-9"
         d="m 98.023697,117.24463 c 9.861213,7.89041 19.648463,7.48705 23.005833,7.05074 a 17.172068,17.172068 0 0 1 -1.87276,-3.75946 c -3.06086,0.31742 -11.42143,0.67094 -21.133073,-3.29128 z"
          />
      <flowRoot
         transform="matrix(0.26199764,0.03689954,-0.03689954,0.26199764,68.054325,4.3495356)"
         id="flowRoot1084-9"><flowRegion
           id="flowRegion1086-7"><rect
             y="411.87738"
             x="203.2932"
             height="9.0913649"
             width="54.2957"
             id="rect1088-2" /></flowRegion><flowPara
           id="flowPara1090-9">Strona dwa</flowPara></flowRoot>    </g>
    <g
       id="g1814"
       transform="rotate(-3.2996617,135.31811,114.79541)">
      <path
         id="path864-1-6-2-0"
         d="m 103.55101,122.98278 c 9.43427,7.7059 18.52395,5.70626 20.80958,5.02554 a 17.172068,17.172068 0 0 1 -3.04374,-3.31091 c -2.40194,0.41141 -8.31709,0.8882 -17.76584,-1.71463 z"
          />
      <flowRoot
         transform="matrix(0.26261435,0.03221867,-0.03221867,0.26261435,69.1912,9.5652456)"
         id="flowRoot1084-3"><flowRegion
           id="flowRegion1086-8"><rect
             y="411.87738"
             x="203.2932"
             height="9.0913649"
             width="54.2957"
             id="rect1088-0" /></flowRegion><flowPara
           id="flowPara1090-3">Strona trzy</flowPara></flowRoot>    </g>
    <g
       id="g1821"
       transform="rotate(-3.2996617,135.31811,114.79541)">
      <path
         id="path864-1-6-9-6-5"
         d="m 109.48398,128.32303 c 9.15906,5.89097 16.97812,3.52237 19.56314,2.44171 a 17.172068,17.172068 0 0 1 -4.09897,-2.30942 c -1.45289,0.68282 -5.63142,1.84674 -15.46417,-0.13229 z"
          />
      <flowRoot

         transform="matrix(0.26442124,0.0092601,-0.0092601,0.26442124,66.364749,18.390029)"
         id="flowRoot1084-2"
         ><flowRegion
           id="flowRegion1086-4"><rect
             y="411.87738"
             x="203.2932"
             height="9.0913649"
             width="54.2957"
             id="rect1088-7" /></flowRegion><flowPara
           id="flowPara1090-93">Strona cztery </flowPara></flowRoot>    </g>
  </g>
</svg>
