<?xml version="1.0" encoding="UTF-8" standalone="no"?>
<!-- Created with Inkscape (http://www.inkscape.org/) -->

<svg
   viewBox="0 0 43.016514 40.855671"
   version="1.1"
   id="svg1146"
>
<g id="wing">
  <path
     d="M 2,1.28415 C 5.582005,7.56964 21.600788,6.6939 27.440158,6.15018 A 16.570711,16.570711 0 0 1 26.555318,2.40637 C 21.369808,2.53469 10.923578,2.58453 2,1.28415 Z" />
   <text x="9.5" y="4.3">Strona Główna</text>
   </g>
<g id="wing">
  <path
     d="m 5.51362,5.02276 c 4.625858,7.48711 19.611298,6.23476 24.395088,5.62521 A 16.570711,16.570711 0 0 1 27.796958,7.06608 C 23.888928,7.55694 14.205048,8.28818 5.51362,5.02276 Z" />
   <text x="15" y="9.2">Drużynnicy</text>
   </g>
<g id="wing">
  <path
     d="m 10.214788,10.21476 c 5.29442,7.42342 22.25819,4.30225 23.55384,4.05184 a 16.570711,16.570711 0 0 1 -3.44323,-3.09384 c -3.12128,0.52738 -11.08845,1.43709 -20.11061,-0.958 z" />
   <text x="19" y="14.1">Wyprawy</text>
     </g>
<g id="wing">
  <path
     d="m 34.013578,14.43428 c -1.31707,0.38838 -6.05242,1.45675 -18.51406,1.54317 12.37474,5.33061 25.09691,1.21662 25.70428,1.01493 a 16.570711,16.570711 0 0 1 -7.19022,-2.5581 z" />
   <text x="25" y="19.2">Kontakt</text>
   </g>
</svg>
