<?xml version="1.0" encoding="UTF-8" standalone="no"?>
<!-- Created with Inkscape (http://www.inkscape.org/) -->

<svg
   viewBox="0 0 43.016514 40.855671"
   version="1.1"
   id="svg1146"
   >

  <g
     id="layer1"
     transform="translate(-92.232372,-113.73183)">
    <path
       d="m 94.232372,115.01598 c 3.582005,6.28549 19.600788,5.40975 25.440158,4.86603 a 16.570711,16.570711 0 0 1 -0.88484,-3.74381 c -5.18551,0.12832 -15.63174,0.17816 -24.555318,-1.12222 z"
       id="path864-6-8-8-2-0"
        ></path><text x="92.232372" y="153.73183">Kupa</text>
    <path       
       d="m 97.745992,118.75459 c 4.625858,7.48711 19.611298,6.23476 24.395088,5.62521 a 16.570711,16.570711 0 0 1 -2.11175,-3.58189 c -3.90803,0.49086 -13.59191,1.2221 -22.283338,-2.04332 z"
       id="path864-1-1-0-9-3-1"
       
        />
    <path       
       d="m 102.44716,123.94659 c 5.29442,7.42342 22.25819,4.30225 23.55384,4.05184 a 16.570711,16.570711 0 0 1 -3.44323,-3.09384 c -3.12128,0.52738 -11.08845,1.43709 -20.11061,-0.958 z"
       id="path864-1-6-2-4-7-6-1"
        />
    <path
       d="m 126.24595,128.16611 c -1.31707,0.38838 -6.05242,1.45675 -18.51406,1.54317 12.37474,5.33061 25.09691,1.21662 25.70428,1.01493 a 16.570711,16.570711 0 0 1 -7.19022,-2.5581 z"
       id="path864-1-6-9-6-8-6-94-6"
        />
</g>
</svg>
