<?xml version="1.0" encoding="UTF-8" standalone="no"?>
<!-- Created with Inkscape (http://www.inkscape.org/) -->

<svg
   viewBox="0 0 15.864809 11.208618"
   version="1.1"
   id="svg894"> 
  <g
     id="layer1"
     transform="translate(-104.70395,-273.08735)">
    <path
       d="m 54.615234,0 c 0,0 -25.912146,2.2809205 -35.77539,4.3378906 C 14.911252,10.498596 14.414025,25.435706 16.75,23.478516 19.085975,21.521363 32.849609,22.974609 32.849609,22.974609 l -0.630859,9.154297 -3.267578,0.177735 c 0,0 -0.41569,0.811118 -1.361328,2.433593 -1.690961,-0.313285 -2.5,0.625 -2.5,0.625 l -2.767578,-0.224609 -0.53711,-0.757813 C 16.963689,35.186378 3.0812176,30.007536 4.5097656,26.212891 5.9383515,22.418245 3.9726562,15.275391 3.9726562,15.275391 L 0,17.373047 1.4277344,19.650391 c 0,0 0.3139078,-1.874147 1.1621094,-0.490235 0.8482015,1.38395 -0.2972032,3.7503 -1.4335938,9.9375 -0.94476134,5.143683 1.8457392,10.933564 3.4726562,13.265625 H 58.216797 C 62.365719,38.202621 57.8125,28.177734 57.8125,28.177734 c 0,0 0.490234,-1.517187 0.490234,-1.785156 0,-0.267855 -4.061381,-2.99273 -2.007812,0.667969 2.053568,3.660737 0.313057,8.705792 -1.472656,8.482422 -1.785714,-0.223219 -2.544922,1.027343 -2.544922,1.027343 -0.401764,-0.357165 -1.56306,-1.116896 -2.589844,0.490235 -1.897285,-1.629506 -2.543797,-0.736231 -2.990234,0.04492 C 45.536573,37.194741 42.5,32.998047 42.5,32.998047 l -8.125,-0.357422 0.267578,-9.462891 c 0,0 2.053311,0.892867 7.767578,3.75 C 40.98157,9.3235643 49.122523,5.1454866 54.615234,0 Z"
       transform="matrix(0.26458333,0,0,0.26458333,104.70395,273.08735)"
       id="path826-5-1" />
  </g>
</svg>
