<?xml version="1.0" encoding="UTF-8" standalone="no"?>
<!-- Created with Inkscape (http://www.inkscape.org/) -->

<svg
   viewBox="0 0 15.864809 11.208618"
   >
  <path
     d="m 14.45028,0 c 0,0 -6.8559214,0.60349354 -9.4655713,1.1477335 -1.03944,1.63002 -1.170998,5.5821303 -0.5529379,5.0642904 0.61806,-0.51783 4.2596881,-0.1333253 4.2596881,-0.1333253 L 8.5245442,8.5007729 7.6599975,8.5477987 c 0,0 -0.1099846,0.2146083 -0.3601847,0.6438881 C 6.8524127,9.1087968 6.6383545,9.3570514 6.6383545,9.3570514 L 5.9060995,9.2976236 5.7639891,9.0971189 C 4.4883093,9.3097291 0.81523881,7.9394938 1.1932088,6.935494 1.5711888,5.9314939 1.0510986,4.0416138 1.0510986,4.0416138 L 0,4.5966186 0.37775472,5.1991659 c 0,0 0.0830548,-0.4958681 0.30747478,-0.129708 C 0.90964947,5.435628 0.60659448,6.0617247 0.30592448,7.6987547 0.05595637,9.0596875 0.7942763,10.591593 1.2247314,11.208618 H 15.403194 c 1.097736,-1.100841 -0.10697,-3.7532593 -0.10697,-3.7532593 0,0 0.129708,-0.4014224 0.129708,-0.4723225 0,-0.07087 -1.074574,-0.7918265 -0.531234,0.1767334 0.54334,0.96857 0.08283,2.3034075 -0.38964,2.2443075 -0.47247,-0.05906 -0.673344,0.2718178 -0.673344,0.2718178 -0.1063,-0.0945 -0.41356,-0.295512 -0.68523,0.129708 -0.50199,-0.4311401 -0.673046,-0.1947944 -0.791166,0.011885 -0.3071,0.02362 -1.110526,-1.0867548 -1.110526,-1.0867548 L 9.095052,8.6361653 9.1658486,6.132442 c 0,0 0.5432719,0.2362378 2.0551714,0.9921875 C 10.84304,2.4668597 12.997001,1.36141 14.45028,0 Z"
     />
</svg>
