<svg
   viewBox="0 0 82.855935 72.766617" >
  <g
     transform="translate(-43.126969,-96.302765)">
    <path
       d="M 86.555325,96.302765 C 45.133013,102.67543 45.489105,143.7606 45.766085,149.78012 h -2.639116 v 19.28926 H 125.9829 v -19.28926 h -1.63247 c 0.28062,-2.27328 0.39629,-4.82567 0.3049,-7.70444 C 123.597,108.73818 86.555325,96.302765 86.555325,96.302765 Z m -1.445389,39.447715 c 11.046602,-0.25935 11.410602,16.69214 10.574542,19.35231 -4.77075,0.0935 -18.575312,-5.21181 -20.045281,-16.03623 3.803581,-2.28014 6.921521,-3.25623 9.470739,-3.31608 z m 28.130064,3.9641 c 1.84671,-0.0858 4.20392,1.64735 7.1205,6.35672 -1.46997,10.82442 -7.32308,10.70426 -12.09384,10.61072 -1.13146,-4.65116 0.25398,-16.74825 4.97334,-16.96744 z"
        />
  </g>
</svg>
