<?xml version="1.0" encoding="UTF-8" standalone="no"?>
<svg
   viewBox="0 0 192.66527 325.89318">

  <g
     transform="translate(-35.074806,48.224521)"
     >
    <path
       d="m 175.21301,-48.224521 c -0.69074,1.815125 -17.24845,41.511819 -4.79651,51.5746415 L 170.08096,72.576056 98.833498,228.93037 C 83.7927,229.46114 64.713581,231.5449 57.878014,230.69046 49.219986,229.6082 42.15328,248.12845 38.920578,258.3794 h -3.845772 v 19.28926 H 227.74008 V 258.3794 h -36.79332 c -0.57988,-1.08362 -1.36182,-1.95724 -2.39211,-2.55366 -2.36536,-1.36939 -5.99263,-4.27968 -10.2291,-7.8782 L 179.16441,74.570822 200.0961,28.636693 c 15.52358,-3.91709 17.12558,-46.901266 17.25913,-48.838787 -1.37456,1.37195 -32.76012,30.782023 -25.53256,45.067457 l -12.55016,27.542782 0.23672,-49.012731 c 12.5501,-9.9408448 -3.62316,-49.798177 -4.29622,-51.619935 z m -5.23909,142.96429 -0.70303,145.383111 c -11.40714,-9.9282 -23.88473,-20.64618 -28.71818,-20.71651 -0.69437,-0.01 -1.23112,0.20005 -1.5831,0.66388 -2.89268,3.81205 -14.28988,7.78755 -18.71043,17.36721 -0.71714,-2.08994 -1.26806,-3.89972 -1.26806,-5.25658 0,-2.14196 -4.07116,-3.0492 -10.14469,-3.29477 z"
       />
  </g>
</svg>
