<?xml version="1.0" encoding="UTF-8" standalone="no"?>
<!-- Created with Inkscape (http://www.inkscape.org/) -->

<svg   
   viewBox="0 0 235.06213 178.49402"
   version="1.1"
   id="svg5439">
  <g
     id="layer1"
     transform="translate(76.596358,72.040564)">
    <path
       d="m 824.33203,0 c -97.72626,157.29716 -177.5,273.14921 -241.96484,358.80664 2.04377,-29.23854 2.58322,-63.1248 1.53125,-102.57031 -32.26482,70.16379 -60.11338,122.46986 -83.1211,162.1289 39.82157,-99.77242 59.03161,-231.5622 37.83008,-277.65039 C 510.08376,222.54453 483.81476,286.57243 461.1543,337.16602 481.17616,241.9113 477.04429,125.52086 449.32617,22.673828 398.04657,288.45275 353.13604,408.02762 325.73828,463.37891 287.85974,421.75514 240.90039,385.33049 196.41406,384.89062 c -0.82307,-0.008 -1.64539,-0.005 -2.46679,0.0117 -3.39145,0.0689 -6.77007,0.35175 -10.125,0.86133 C 79.380847,401.62277 49.554688,497.39453 49.554688,497.39453 41.116708,513.56745 17.33235,513.1908 0,536.21094 c 44.174519,-8.87472 53.270071,-8.86986 58.369141,-3.85742 -3.70647,12.43566 -20.076331,36.38076 -29.056641,46.66015 11.4954,-6.30104 15.510605,-17.06726 44.802734,-29.74805 14.11457,11.0708 44.418406,31.01117 72.164066,37.20899 48.18171,33.60028 57.25905,58.17941 58.74414,88.14844 h 615.10937 c 11.31194,-20.22641 19.90461,-41.17075 24.77149,-62.41211 -33.63454,23.9101 -62.2284,43.40855 -86.67578,59.34765 42.38827,-53.44951 84.2736,-137.34111 130.19531,-267.71484 C 804.71943,485.73638 736.86495,544.82077 682.78516,588.53711 793.27937,468.75722 891.92009,292.41821 886.85742,215.62695 802.04977,316.16573 730.22441,392.54625 670.77539,451.86719 750.71206,327.77429 807.87503,160.67086 824.33203,0 Z m -708.22265,442.20117 -4.88868,38.21094 a 9.2415941,9.2415941 0 0 1 3.63672,9.9043 9.2415941,9.2415941 0 0 1 -8.30273,6.87304 l -13.703128,39.60157 7.988278,-41.10938 a 9.2415941,9.2415941 0 0 1 -3.865231,-10.04883 9.2415941,9.2415941 0 0 1 7.126951,-6.71093 l 4.64063,-23.89649 z"
       transform="matrix(0.26458333,0,0,0.26458333,-76.596358,-72.040564)"
       id="path5192-15-1-9-92-6-3-3-5-54-8-3-2-2-1" />
  </g>
</svg>
