<svg xmlns="http://www.w3.org/2000/svg" viewBox="0 0 323 194" version="1"><path d="M323 0l-2 1a404 404 0 0 1-51 24 1032 1032 0 0 1-44 16l-4-1-3-1h-4c-7 0-12 1-19 5l-5 3a18 18 0 0 1-5 7h1l2 3c5 7 8 13 9 21 2 4 2 13 1 18-1 7-3 14-7 20l-8 12-1 2-1-1c-2-2-2-2 0-5a60 60 0 0 0 11-34c0-7 0-10-2-16l-4-11c-2 0-9 7-11 11l-2 6 1 6c3 4 8 9 15 11l1 2v2l-4-1c-9-3-14-7-17-13V76l8-13c2-1 2-2 1-2h-1c-1 1-4-1-5-2-2-2-3-4-3-7l3-8c2-4 3-7 3-11v-5c-1-5-4-8-8-10s-7-2-13 0-13 6-14 9v2h-17l8 4 7 3 1 2 9 9 2 6c0 3-2 7-5 8l-2 2 2 3c3 3 6 7 7 11l1 6-1 5c-2 4-6 8-12 11l-8 3v-3l2-1c6-2 11-7 13-11l1-5-1-6-5-7c-4-3-7-5-8-4l-4 15v17c1 9 5 18 12 27 2 3 2 3 1 6l-2 1-7-9a59 59 0 0 1-10-42c1-9 5-18 9-24l2-2-3-2-2-3c0-1-11-6-17-7a37 37 0 0 0-16 0l-5 2-1 1A1474 1474 0 0 0 1 11v9c4 11 19 21 44 31l24 8a150 150 0 0 0 17-8l-1 2-2 3-2 2a105 105 0 0 0-11 6l-8-3c-8-2-9-3-10-2v4l-5-1A315 315 0 0 1 4 42l5 10 11 11 29 15 5 1 1 3c2 4 2 4-3 3a324 324 0 0 1-40-14l4 8c4 6 11 12 16 14 10 3 22 4 28 4l3-1 1 2 3 4-3 1c-5 1-15 1-26-1l-15-4v2c1 4 4 7 8 9l6 1c14 2 28 2 37 0h3l1 1 2 1 1 1 1 1-3 1a99 99 0 0 1-39 3h-4l5 4c4 3 5 3 9 3l27-4 10-2 2 1 2 2v1l1 1-11 3a486 486 0 0 1-29 5l5 5 4 1c5 0 15-2 30-7l7-2 1 1 2 1 4 4-39 9c-4 0-4 0-3 2 4 3 6 3 12 2l27-9 6-2 2 1a12 12 0 0 1 3 2c1 1 1 1-3 3a128 128 0 0 1-33 11l5 5 1 1h2l30-15 3-2 2 1 2 1-2 2a135 135 0 0 1-29 17l5 4 2 1 2-1 20-15 7-5 1 1 2 3a521 521 0 0 1-28 20c0 2 5 4 8 4 1 0 2 0 6-4a5975 5975 0 0 0 19-16l3 3-5 4-15 14v2l4 2 6-5 9-10 5-4 2 1 7 7 1 1-3 5-10 18h10l2-2 2-5 1 1c2 0 2 0 1 3l-2 3h21l-2-5 3-2 2 3 3 4h8a230 230 0 0 1-12-23v-2l1-1a31 31 0 0 1 7-7l9 8c10 10 11 11 13 10l4-3-4-3a1622 1622 0 0 0-18-17l2-2 1-1 4 4 15 13c5 4 6 4 9 3l5-3-2-2c-9-4-19-11-24-17l-2-1 1-1 1-1 1-1 7 4 22 14h3l5-4-7-3-24-13-1-1 1-1 1-1h1l1-1 4 2c15 8 25 13 30 13l4-2 4-4h-2a119 119 0 0 1-36-12l2-1 2-2 8 3c13 4 24 7 29 7l6-2 6-4h-7c-16-1-28-3-35-6l-2-1 1-2 2-1 1-1 2-1 4 1c12 3 23 5 29 5h7l8-5c0-1 0-2-6-2-13 0-29-2-35-4l-2-1 1-1 1-1 1-1 2-1a845 845 0 0 1 31 4l8-1 9-5c2-2 3-2 1-2l-13 2c-9 0-19-1-27-3l-4-2 4-3 1-1 2 1 16 2c9 0 11 0 20-3 5-1 7-2 11-5s7-7 7-9l-5 1-19 4-13 1h-9l1-3 3-3h6l10-1c8-1 18-5 22-8a44 44 0 0 0 13-20l-2 2-9 5a129 129 0 0 1-33 10l1-3 1-2 3-1c16-5 24-9 28-13 5-5 17-23 16-24l-6 3-38 17h-2l-1-2v-2l-6 2-10 4-4 1h-1a249 249 0 0 0-9-7l-3-3-1-2 4 2 12 6 5-2c23-7 39-14 47-19 7-5 14-15 17-25l2-10zM215 40c6 0 11 2 16 5 5 4 10 11 10 16l1 2 11-2a214 214 0 0 0 16-6v2c3 13-3 29-17 43l-11 9-1 1v-2l2-4c0-2 0-2 3-4a54 54 0 0 0 17-30c1-4 1-4-5-2l-20 5v-5l-1-7c-2-7-7-12-14-14-3-2-9-2-14-1l-9 3s0 2 2 3l6 13c2 5 3 11 3 16h1c3 0 3-1 3 4l-1 21-3 14-1 3c1 2 3 1 6-5l6-15c4-15 4-30-1-42l-4-8-7 2-2-2c-1-2-1-2 3-3 8-2 13-2 16 0 1 1 1 1-1 2-4 0-4 1-2 3l4 14a84 84 0 0 1-10 55l-2 4h-8c-1 0-2 0-4 3a1722 1722 0 0 0-40 43 780 780 0 0 1-41-41l-2-3h-10l-1-2a75 75 0 0 1-8-73l-3-1h-4l2-1c3-2 5-2 10-2l10 2-1 2-1 2a612 612 0 0 1-7-2l-4 10c-3 7-4 18-2 27 1 10 5 22 10 30l3 4c2 1 3-1 1-4-3-4-5-16-6-35v-4h5v-5c0-9 3-17 8-25 2-3 2-3-1-4-8-3-16-2-22 0-7 4-12 11-13 23v5l-5-1-18-5c-3-2-3-1-2 3a48 48 0 0 0 18 30c3 2 3 2 3 4l1 4 1 1-2-1a63 63 0 0 1-28-38l-1-12c1-2 0-2 10 1 14 4 17 5 18 4v-2l4-10 9-10c9-5 20-4 33 2l3 2-1 1a91 91 0 0 0-11 33l3 1h2v6h-8v2a60 60 0 0 0 12 40l19 19 17 15 33-32c7-9 12-20 13-34V87h-4l-4 1v-5h2l3-1-2-11a66 66 0 0 0-11-24l9-5 13-2zm4 24h1v3l1 2-1 1a257 257 0 0 1-10 1v-1a877 877 0 0 0-1-4l10-2zm-112 2h7v4c-1 2-1 3-2 2l-10-1 1-2c1-2 1-3 3-3h1zm94 1l1 3 1 3h-2-2l-1-2-1-3h1l3-1zm-78 1l3 1a30 30 0 0 1-2 5h-3a34 34 0 0 1 2-6zm66 3l1 3v3l-3 3 3 2c1 1 2 1 2 3v2h-3c-5-2-8-5-8-8l3-5 5-3zm-55 2l5 4c2 3 3 5 2 7l-5 4-3 1h-2v-1l1-2 1-2c2-1 3-3 2-4l-1-2-1-1v-2l1-2zm107 7h1l-1 17c-1 8-2 13-6 18a102 102 0 0 1-26 24 242 242 0 0 0-46 42l-7-7-24-23-16-11c-8-5-12-7-16-11-6-5-13-12-15-16s-3-12-3-23v-7l11 1v4l-7-1v12c0 7 2 12 4 15a123 123 0 0 0 28 24 108 108 0 0 1 24 18 1750 1750 0 0 1 20 19l2 1 6-7a225 225 0 0 1 44-38c17-12 22-19 24-32l1-15h-3l-4 1h-2v-4l6-1a103 103 0 0 1 5 0zm-55 8l4 1a23 23 0 0 1-3 5l-2-1h-1l1-3a90 90 0 0 1 1-2zm-48 1l3 4-2 2h-2l-1-2-2-3 2-1a11 11 0 0 1 2 0zm105 1h4c5 0 5 0 3 3l-2 1h-5v-2zm-7 0h2v1l-1 3v1h-7l-2 1 1-2v-4h7zm-15 2h1l-1 5h-3l-3 1v-5l2-1h4zM81 94v3l-2 1h-3c-2 0-2 0-3-2l-2-2h5zm6 0h7l1 1v2c0 1 1 1-5 1h-3v-2zm121 0v5l-4 2a1718 1718 0 0 0-4-2v-2l4-1zm-105 1h3l3 2v2l-4 1-2-1v-4zm13 2l4 1h4v2l1 3-5-1-4-1v-4zm46 2l2 2 9 12 3 3-1 1-1 1-6-5-6-6-8 8-3 4-2-2 1-2 11-14 1-2zm-18 0l1 2 4 5 3 5-1 1-2 2-2-2-6-9-1-2 2-1zm36 0l4 2a57 57 0 0 1-7 11l-2 1-1-1-2-2 1-1a99 99 0 0 0 7-10zm55 7l-3 7-3 1a498 498 0 0 0-6 0l1-2 2-3a29 29 0 0 0 9-3zm-146 4h2l5 1h3l2 6h-5l-4-2-3-5zm127 0l1 1-1 2-2 2h-1v-3l1-2h2zm-11 1h1l-1 3-1 2h-2l-5 1h-3l1-1 2-4 8-1zm-97 1h2l2 5-1 1-2-2c-2-3-2-4-1-4zm78 1l-1 2c0 2-1 3-3 4-4 2-5 5-2 9l8 10 2 1-1 1-2 1-1 1-4-4-7-9-1-5c0-4 1-6 6-9l6-2zm-66 0l8 1 2 2 1 2h-11v-2l-1-3h1zm47 1l2 2 2 2-7 2-2 1c-3 0-6-2-8-3l1-2 2-1h9zm-29 0l2 1 7 2c6 5 4 15-5 23l-3 3-2-2-2-2h1c11-9 13-15 7-19l-4-3zm44 6v2c-1 2-2 2-2 1l1-2 1-1zm-39 2l1 1 1 1-2-2zm46 3l4 2 5 3-1 1-2 2-6-4-3-1 2-2zm-53 1l1 1 2 2-4 2c-5 3-5 3-6 1l-1-1 1-1 4-2zm27 2l8 6-1 1-1 1-3-1-5-2-3 2-1 1-2-1-1-1 3-2 6-4zm12 4l2 2 1 2-4 3a132 132 0 0 1-11 10l-2-1-11-10-3-1 2-2c1-3 1-3 5 1l6 4 4 2 8-7zm29 1l1 1 2 1-1 1h-3v-2zm-83 1l1 1c2 2 2 2 0 3h-1l-2-1-1-1 1-1zm56 5l4 2 3 3-1 1-2 2-5-5-1-1 1-1zm-29 0l1 1 2 1-4 3-3 3-3-2a74 74 0 0 1 7-6zm9 38l2 1 1 1-1 2-1 2-3-1a38 38 0 0 1 2-5zm11 0l1 1a146 146 0 0 0 2 4l-1 1c0 3-1 0-2-2l-1-2 1-1v-1zm8 17h0z" /></svg>