<?xml version="1.0" encoding="UTF-8" standalone="no"?>
<!-- Created with Inkscape (http://www.inkscape.org/) -->

<svg
   viewBox="0 0 235.06213 333.51089"
   version="1.1"
   id="svg5439">
  <g
     id="layer1"
     transform="translate(76.596358,72.040564)">
    <path
       d="m 534.83398,-272.2793 c -97.72626,157.29716 -177.5,273.1492169 -241.96484,358.806644 2.04377,-29.238543 2.58322,-63.124796 1.53125,-102.570313 C 262.13557,54.120825 234.28702,106.4269 211.2793,146.08594 251.10087,46.313512 270.31091,-85.476263 249.10938,-131.56445 220.58572,-49.73476 194.31671,14.293133 171.65625,64.886719 191.67811,-30.367994 187.54624,-146.75844 159.82812,-249.60547 108.54852,16.173452 63.637992,135.74832 36.240234,191.09961 -1.6383042,149.47584 -48.59766,113.0512 -93.083984,112.61133 c -0.823068,-0.008 -1.645393,-0.005 -2.466797,0.0117 -3.391446,0.0689 -6.770069,0.35175 -10.124999,0.86133 -104.44142,15.8591 -134.26758,111.63085 -134.26758,111.63085 -8.43798,16.17292 -32.22234,15.79627 -49.55469,38.81641 44.17452,-8.87472 53.27007,-8.86986 58.36914,-3.85742 -3.70647,12.43566 -20.07633,36.38077 -29.05664,46.66016 11.4954,-6.30104 15.51061,-17.06726 44.80274,-29.74805 14.11457,11.0708 44.4184,31.01116 72.16406,37.20898 149.7467339,104.42826 -78.11428,121.62963 261.71484,484.78516 11.46495,40.55165 27.24549,103.39473 35.54493,189.25391 H 427.30859 C 341.89536,908.99946 285.97608,851.36147 249.5332,812.83203 c -3.07014,-14.98571 -7.78206,-32.12591 -13.63672,-51.07226 43.79071,4.39993 90.65368,-1.4599 122.91016,-25.88086 -46.89427,-9.755 -79.17397,-18.2496 -101.94141,-25.60547 62.78053,1.52621 138.29525,-15.34588 178.125,-61.71875 -38.12987,0.30652 -68.22534,-0.41128 -92.40039,-1.76953 64.29036,-27.10602 135.52355,-81.25373 153.09571,-148.38672 -41.18517,20.4909 -73.38294,35.08333 -98.89063,45.49804 69.99576,-49.09761 140.39302,-124.45143 158.61133,-203.96484 -33.63454,23.9101 -62.2284,43.40856 -86.67578,59.34766 42.38827,-53.44951 84.2736,-137.34112 130.19531,-267.71485 C 515.22138,213.45708 447.3669,272.54147 393.28711,316.25781 503.78133,196.47792 602.42205,20.138912 597.35938,-56.652344 512.55173,43.886434 440.72636,120.26695 381.27734,179.58789 461.21401,55.494991 518.37698,-111.60844 534.83398,-272.2793 Z m -708.22265,442.20118 -4.88867,38.21093 a 9.2415942,9.2415942 0 0 1 3.63672,9.9043 9.2415942,9.2415942 0 0 1 -8.30274,6.87305 l -13.70312,39.60156 7.98828,-41.10938 a 9.2415942,9.2415942 0 0 1 -3.86524,-10.04882 9.2415942,9.2415942 0 0 1 7.12696,-6.71094 l 4.64062,-23.89649 z"
       transform="scale(0.26458333)"
       id="path5192-15-1-9-92-6-3-3-5-54-8-3-2-2-1" />
  </g>
</svg>
