<?xml version="1.0" encoding="UTF-8" standalone="no"?>
<!-- Created with Inkscape (http://www.inkscape.org/) -->

<svg
   
   viewBox="0 0 117.35045 114.21645"
   version="1.1"
   id="svg2037">
  <g
     id="layer1"
     transform="translate(-66.081753,-93.212229)">
    <path
       d="m 566.79883,352.29883 c -0.93823,-0.008 -1.47071,0.0547 -1.47071,0.0547 -27.91361,10.80529 -26.79101,47.98046 -26.79101,47.98046 -5.09367,2.38768 -6.75,20.45508 -6.75,20.45508 l -42.44922,13.12891 0.95899,-2.95899 c 0,0 -36.30102,1.17373 -56.94336,14.67579 0,0 -1.54179,1.61351 -3.08399,1.46679 -1.54227,-0.14702 -7.71268,-1.76061 -12.69531,2.78906 l -25.29688,8.18165 c 0,0 -14.13905,6.64066 -22.07031,10.83398 l -9.17969,-68.45898 -0.30859,0.043 c -0.028,-0.2536 -0.16954,-0.44567 -0.51953,-0.49023 l 0.002,-0.002 c -0.43547,-0.0552 -1.18753,0.11546 -2.41211,0.66406 0,0 -47.72068,42.67685 -60.63672,120.98828 -1.02883,0.24907 -2.00389,0.53255 -2.8789,0.80078 l -41.93946,-18.1914 h -2.57617 l 2.30469,2.16992 39.57227,17.21679 c -0.13508,0.58662 -0.29613,1.76087 0.38085,2.49024 0,0 -3.63889,2.21287 -1.28515,3.99609 0,0 -2.92333,2.56626 1.28515,4.49219 0,0 -1.56657,2.77892 2.84571,3.63672 -8.89909,74.69919 3.14966,129.49196 17.49023,189.16016 0.71817,2.6277 1.71946,4.80055 2.62305,6.14062 l -0.60938,1.66406 1.73829,0.63867 0.32226,-0.87695 c 0.51723,0.13606 0.81507,-0.43601 0.70117,-1.91797 L 369.67969,589.75 c 2.4736,0.84873 1.96875,1.30273 1.96875,1.30273 2.36474,2.8715 7.00781,12.33399 7.00781,12.33399 -2.78686,0.42229 -2.53128,12.92187 -2.53125,12.92187 0,0 3.12486,19.84707 4.56055,22.04297 1.43591,2.19579 -0.50782,15.20117 -0.50782,15.20117 l -2.61914,12.83594 -2.10937,12.92188 -7.81055,33.01953 c 0,0 -4.29902,28.78688 -4.17969,30.45898 0.11914,1.67214 -6.45046,23.40657 -5.97265,24.83985 0.2071,0.62142 -0.98966,8.11633 -2.39844,16.35351 h 105.57617 c -0.0112,-0.0554 -0.02,-0.099 -0.0312,-0.1543 h 29.97852 c 0.69455,-6.31921 6.06445,-17.54687 6.06445,-17.54687 3.34277,-1.9101 5.88672,-13.37109 5.88672,-13.37109 3.34273,-1.59171 7.00586,-14.48633 7.00586,-14.48633 5.57117,2.06929 12.25586,-19.89649 12.25586,-19.89649 12.89337,-5.73033 15.75976,-26.10351 15.75976,-26.10351 0,0 3.97952,6.68467 2.86524,8.11719 -1.11421,1.43259 0.95218,11.30274 3.97656,13.8496 3.02438,2.54676 -0.79492,7.95708 -0.79492,9.23047 0,1.27344 2.86523,2.22852 2.86523,2.22852 l -2.54687,4.13867 c -3.34273,2.86526 2.70703,11.30078 2.70703,11.30078 2.3876,10.824 0.47852,13.05274 0.47852,13.05274 0.15911,1.27347 3.66015,10.50586 3.66015,10.50586 1.34518,0.44837 1.88773,9.5171 2.09961,18.98046 h 33.9375 c -1.22729,-15.19182 -2.90639,-15.28244 -3.26953,-16.37109 -0.45018,-1.35073 -1.1241,-27.23664 1.12695,-31.51367 2.25124,-4.27714 0.22461,-5.40234 0.22461,-5.40234 11.25547,-10.12993 2.92578,-9.45508 2.92578,-9.45508 6.75334,-8.10399 3.82709,-20.93478 5.17774,-21.38477 1.35069,-0.45018 4.95312,-9.68164 4.95312,-9.68164 l -0.45117,9.23242 c 0,0 4.72789,-2.70253 6.75391,-4.72851 2.02594,-2.02606 -3.15235,-12.15625 -3.15235,-12.15625 0,0 6.5305,-0.67553 10.35743,-4.27735 2.57688,-2.42524 -1.55455,-28.29077 -4.54688,-45.08593 7.41558,6.75106 13.80722,5.64266 18.31445,3.16601 26.50349,43.83375 53.02222,89.51563 48.38282,89.51563 -8.91394,0 -19.19753,0.68127 -36.26953,-22.91016 -8.73536,10.16795 31.18826,76.55351 31.76562,69.20313 3.44107,-8.91255 8.01368,-41.81176 16.37305,-32.16407 2.86526,0.6367 9.2821,0.0941 7.47265,-4.85937 -15.92235,-25.46136 -40.69816,-67.76975 -61.46289,-103.6582 2.76533,-2.51237 4.05469,-2.95704 4.05469,-2.95704 0,0 0.67707,-13.05563 3.60352,-21.38476 2.92648,-8.32906 -3.60315,-7.20454 -2.02735,-8.33008 1.5758,-1.12554 0.90235,-5.62695 0.90235,-5.62695 l -2.70118,-10.80469 -3.15429,0.67578 c 0,0 -11.70404,-64.15707 -13.05469,-67.30859 -1.35069,-3.15156 -4.95313,-33.08985 -4.95313,-33.08985 0.22526,-2.02601 -5.85225,-22.51229 -10.80468,-29.26562 -4.95217,-6.75326 0.45117,-15.3086 0.45117,-15.3086 7.20351,-6.52811 0,-29.26367 0,-29.26367 -3.93944,-52.78832 -30.45759,-56.28473 -37.02539,-56.33398 z m 25.44726,34.72656 c 8.95095,0.40305 8.44532,17.08789 8.44532,17.08789 -13.2118,-2.87214 -16.27539,-14.35937 -16.27539,-14.35937 3.19521,-2.04635 5.76445,-2.8215 7.83007,-2.72852 z m -232.76562,15.81055 8.98437,67.0039 c -1.93758,1.06446 -3.28058,1.88855 -3.49023,2.23438 -1.00668,1.66038 1.6e-4,3.52792 1.8457,3.32031 0.32641,-0.0367 1.22185,-0.30087 2.30469,-0.64062 l 10.96875,81.80664 c -1.78462,-0.37493 -3.43555,-0.9336 -3.43555,-0.9336 -2.77703,-2.09019 -3.79297,-1.375 -3.79297,-1.375 -3.88169,-3.01583 -6.35937,-1.84961 -6.35937,-1.84961 -0.0125,0.008 -0.0159,0.0178 -0.0254,0.0254 l -15.13281,-5.21875 -44.04297,-19.10351 c -0.1282,-0.29934 -2.55017,-5.89692 -5.03321,-6.85938 4.30489,-21.34212 19.48597,-82.72518 57.20899,-118.41015 z m 25.91797,66.23633 -4.69727,7.05664 0.83789,6.43359 c 0,0 8.60568,6.12995 13.32813,6.95312 6.855,1.19509 16.82812,-5.88476 16.82812,-5.88476 0,0 1.13693,0.40852 3.15039,1.23828 2.01324,0.83017 7.9668,-1.89062 7.9668,-1.89062 0,0 3.18782,7.05664 8.55664,7.05664 5.36878,0 22.14544,1.03713 24.66211,0.20703 2.5166,-0.83021 15.60352,-1.66016 15.60352,-1.66016 l 0.53515,-1.65234 c 2.55133,6.56477 7.1982,14.83376 11.61133,17.1875 7.16296,3.82012 15.75812,-3.0235 16.07617,-3.66016 0.31824,-0.6367 2.06937,19.89659 0,25.30859 -2.06937,5.41199 -1.91015,33.74415 -1.91015,33.74415 0,0 -1.90959,3.66216 0.16015,5.57226 2.06922,1.91014 -2.54687,18.94141 -2.54687,18.94141 0,0 -1.75199,6.20814 -3.98047,14.96289 -2.22845,8.75478 -7.64063,51.0957 -7.64063,51.0957 0,0 -4.61635,30.08503 -5.09375,31.83594 -0.4775,1.75098 2.86524,3.3418 2.86524,3.3418 0,0 -9.39035,31.51658 -9.07227,32.94921 0.25459,1.14473 -10.1198,38.24523 -14.43945,53.60938 -1.27878,-6.31116 -2.35219,-11.5895 -2.60352,-12.69531 -0.84449,-3.71603 -9.90276,-52.826 -11.63476,-54.08008 -1.73178,-1.25409 -5.31472,-21.19833 -4.77735,-23.10938 0.53757,-1.911 -1.37304,-10.68945 -1.37304,-10.68945 0.41801,-3.16509 -6.27453,-14.4991 -5.08008,-16.82812 2.14862,-4.33966 4.91448,-12.45785 1.87695,-16.84766 -0.20598,0.87693 -0.52788,2.61313 -0.38086,4.50195 0,0 -2.09046,6.15131 -1.85156,10.86914 0.23887,4.71787 -1.89089,-10.27302 -2.69336,-10.69531 -0.80228,-0.42229 -1.94204,-5.11092 -1.30859,-7.0957 0.63345,-1.98467 -1.98438,-5.02539 -1.98438,-5.02539 0,0 4.68644,-5.95484 1.94141,-12.62696 0,0 0.0844,-2.27979 1.60547,-4.98242 1.52024,-2.70259 3.7998,-10.93626 3.96875,-11.86523 -0.0828,0.56058 -0.28422,2.40987 0.33789,3.125 0,0 -0.59217,2.1531 0.50586,3.08203 0,0 -0.64319,2.19013 0.34179,3.29492 0,0 -0.77367,1.1343 0.15235,2.50781 0,0 -0.71753,1.3726 0.0586,2.53711 0,0 -0.80517,1.6142 -0.17773,3.01758 0,0 -0.7771,1.55393 0.0586,2.62891 0,0 -0.80567,1.7298 -0.32812,2.38672 0,0 -0.47856,1.34325 0.0898,2.92578 0,0 -0.77611,1.43391 -0.29883,2.86718 0,0 -0.56725,1.52324 0.29883,2.98633 0,0 -1.17017,3.67937 -0.33398,5.56055 1.22913,-1.27434 0.86718,-3.77344 0.86718,-3.77344 0.20901,-0.65688 -0.32422,-1.8457 -0.32422,-1.8457 1.4928,-1.52285 0.11914,-3.01765 0.11914,-3.01758 1.01511,-0.83611 0.38868,-2.68555 0.38868,-2.68555 0.6867,-0.71663 0.17773,-2.71875 0.17773,-2.71875 0.7765,-1.1944 0.24024,-2.89648 0.24023,-2.89648 0.44803,-0.86593 0.14844,-2.47852 0.14844,-2.47852 0.83622,-1.04511 0.11914,-2.38867 0.11914,-2.38867 0.32882,-0.74649 -0.0586,-1.70117 -0.0586,-1.70117 0.23887,-0.23887 0.0898,-1.85156 0.0898,-1.85156 0.44807,-1.19441 -0.38867,-2.44922 -0.38867,-2.44922 0.59732,-1.43327 0.15236,-2.7168 0.15234,-2.7168 0.71664,-1.43327 10e-6,-3.04492 0,-3.04492 0.53753,-1.58256 -0.21093,-3.01758 -0.21093,-3.01758 0.92557,-1.76175 -0.0918,-2.86523 -0.0918,-2.86523 0.89579,-1.55259 -0.11719,-3.04492 -0.11719,-3.04492 1.10472,-1.88108 -0.39062,-3.58399 -0.39062,-3.58399 0.56738,-0.80629 0,-2.47851 0,-2.47851 0.59728,-2.56789 -1.91016,-4.44922 -1.91016,-4.44922 0.86585,-2.23952 -0.80469,-3.79297 -0.80469,-3.79297 0.6271,-3.22488 -1.375,-3.9707 -1.375,-3.9707 0.68693,-2.83669 -1.52148,-4.26954 -1.52148,-4.26954 0.92557,-3.22484 -0.59766,-5.01757 -0.59766,-5.01757 0.38827,-0.59721 -0.35937,-3.22461 -0.35937,-3.22461 2.41875,-1.46313 1.22461,-5.85157 1.22461,-5.85157 1.37359,-3.5831 3.34571,-4.47986 1.79297,-18.39453 -3.58318,-14.27301 -17.43946,-12.83789 -17.43946,-12.83789 -10.57039,-1.25408 -17.49804,4.89649 -17.49804,4.89649 0,0 1.25573,2.50771 0.53906,3.34375 -0.71671,0.83603 -2.44922,7.52539 -2.44922,7.52539 -2.44849,4.95681 0.1543,5.28906 0.1543,5.28906 -0.0227,0.38007 -2.57661,4.79175 -2.93555,5.61523 -0.35905,0.8233 1.91406,1.63672 1.91406,1.63672 0,0 0.0921,1.79149 -0.17773,2.59766 -0.26873,0.80625 -2.86647,-1.13434 -3.31445,-1.46289 -0.44784,-0.32882 -2.80815,-0.0915 -3.34571,-0.41992 -0.53737,-0.32882 -1.49253,-0.29603 -3.34375,0.48046 -0.45709,0.19163 -1.13004,0.21906 -1.88281,0.15821 l -11.08594,-82.6836 c 5.52636,-1.83516 14.48438,-5.10546 14.48438,-5.10546 z m -77.68164,61.57031 43.91797,19.10937 c 0,0 8.779,3.81719 13.22851,7.24024 2.28939,-0.48095 1.27735,-1.30274 1.27734,-1.30274 l 0.3379,0.18555 c 0.0219,0.12813 0.0566,0.31641 0.0566,0.31641 -2.03035,1.46313 -0.44922,2.83984 -0.44922,2.83984 -1.25409,0.56734 -0.0581,2.11858 -1.3125,3.91016 -1.25409,1.79164 -4.50977,-2.6875 -4.50977,-2.6875 0,0 -4.18012,0.56745 -4.56836,-0.0899 -0.38823,-0.65692 -1.79129,-2.32812 -2.29883,-2.32812 -0.50763,0 -3.04482,-4.30002 -4.80664,-3.61328 -1.76162,0.68674 -5.07812,-1.4043 -5.07812,-1.4043 0,0 -1.13411,-2.35889 -3.34375,-2.38867 -2.48358,-0.034 -4.29883,-0.83594 -4.29883,-0.83594 -3.46366,-2.86654 -5.07812,-2.50781 -5.07812,-2.50781 -2.86653,-3.10545 -3.4629,-2.26953 -3.4629,-2.26953 0,0 -2.92511,-0.23904 -3.58203,-1.4336 -0.65688,-1.19433 -7.10672,-5.85326 -8.18164,-5.55469 -0.56287,0.15648 -2.06712,-0.6546 -3.43554,-1.48632 l 0.002,-0.008 c 0,0 -3.30454,-1.98337 -4.41406,-5.6914 z m -8.5,9.92969 c 1.12043,0.99685 2.42968,1.54296 2.42968,1.54296 l 1.64063,0.66407 c -0.41084,1.40118 -0.69711,2.81001 -1.23047,4.1875 -1.60468,3.46265 5.65885,4.89964 6.58789,6.08203 0.92901,1.18227 4.47656,1.01367 4.47656,1.01367 -0.42237,1.60456 4.05274,3.80078 4.05274,3.80078 0.25323,1.43577 7.76953,6.41797 7.76953,6.41797 0,0 1.68886,2.02705 3.54687,2.78711 1.85808,0.76014 4.13868,3.04101 4.13868,3.04102 0.25322,3.29377 4.98388,2.95568 5.06836,3.54687 0.085,0.59119 3.88281,2.28125 3.88281,2.28125 0,-4e-5 3.21062,-0.59198 3.63281,0.84375 0.42235,1.4358 4.39258,3.20898 4.39258,3.20898 0,0 3.12539,-0.42262 3.37891,1.09766 0.25321,1.52013 7.34547,4.89934 8.10546,4.73047 0.76022,-0.16895 6.41993,3.29297 6.41993,3.29297 0.15193,0.0386 0.25132,0.0716 0.39257,0.10937 L 316.49609,729.41406 C 296.20506,625.72061 295.28033,611.82186 298.60938,544.86133 Z m 294.92578,25.63867 c 0,0 7.87895,10.80423 6.97851,11.92968 -0.034,0.0423 -0.042,0.12376 -0.0586,0.19141 -2.93178,-5.1366 -6.91992,-12.12109 -6.91992,-12.12109 z m 6.17969,29.21094 c 1.63411,2.64705 3.19785,5.17753 4.92578,7.98632 -0.0227,0.0559 -0.0636,0.11702 -0.0742,0.16992 -0.0488,0.24303 0.20674,0.48512 0.62109,0.7168 1.45807,2.37113 2.67365,4.32675 4.18164,6.78711 L 609,615.96094 c 0,0 -2.59855,1.02667 -4.6582,3.06054 -0.002,-0.0113 -0.0684,-0.35937 -0.0684,-0.35937 0,0 -5.40343,-17.33323 -4.05274,-22.06055 0.093,-0.32541 0.12046,-0.72653 0.10157,-1.17968 z"
       transform="scale(0.26458333)"
       id="path1117-8-7-3-1" />
  </g>
</svg>
