
<svg  version="1.1" viewBox="0 0 118.85121 53.291786" >

<g transform="translate(-81.839 -98.973)">
<g transform="matrix(1.4834 0 0 1.4834 -105.17 -282.05)" >
<g>
<g transform="matrix(.40504 0 0 .40504 131.06 264.3)" >

<g transform="translate(-10.114 -5.7619)">

<path class="mainLogoText" d="m45.629 22.333c-5.8495 0-6.0186 0.02924-7.1536 1.2247l-0.66456 0.6997c-0.0634-0.60978-0.12678-1.2196-0.19017-1.8293l-4.13-0.05116c-2.6513-0.03285-4.1305-0.0601-4.1305 0.06136 0.48631 0.49974 0.99968 0.9746 1.3405 1.6254 0.3585 0.70273 0.36845 1.3016 0.36845 21.356v20.633l-0.41548 0.74001c-0.22864 0.40682-0.61338 0.86867-0.85473 1.0268-0.24135 0.15814-0.43873 0.37133-0.43873 0.47336 0 0.11611 1.8832 0.18552 5.0322 0.18552 2.7677 0 5.0323-0.05474 5.0323-0.12144 0-0.06664-0.33648-0.48605-0.74776-0.93224-0.42601-0.46217-0.79641-1.0841-0.86093-1.4454-0.06228-0.34882-0.08911-8.7951-0.05943-18.769l0.05426-18.135 4.9082-0.05064 4.9082-0.05064 1.5007 1.4604c0.82538 0.80322 1.5007 1.5954 1.5007 1.7606 0 0.16521-2.7773 3.0652-6.1717 6.4441-3.3944 3.3789-6.1717 6.215-6.1717 6.3025s6.9355 7.1281 15.412 15.646c8.4765 8.5179 15.483 15.487 15.57 15.487 0.18313 0 3.1993-5.9515 3.1993-6.3128 0-0.13218-4.1928-4.4273-9.3173-9.5446-5.1244-5.1173-10.607-10.654-12.184-12.305l-2.8675-3.0003 6.1516-6.1619c3.3832-3.3891 6.2173-6.1624 6.2978-6.1624 0.08049 0 0.14624 4.3781 0.14624 9.7286v9.7281l9.7927 9.7927 6.5448-0.05013 6.5448-0.05013 0.09508-15.191c0.05222-8.3554 0.17144-15.363 0.26458-15.572 0.09314-0.20889 0.51683-0.74312 0.94154-1.187l0.77205-0.80718h-8.4346v26.003l-0.40463 0.21652c-1.0723 0.25441-1.9041 0.13196-3.0251 0.06873-2.1165-2.1167-4.2332-4.2331-6.35-6.3495l-0.09457-9.9214-0.09509-9.9219-4.1305-0.05116c-2.3739-0.02941-4.13 0.0222-4.13 0.12092 0 0.09447 0.22055 0.31618 0.49041 0.49299 0.5138 0.33665 1.2685 1.7661 1.0873 2.0593-0.05786 0.09362-2.2564-1.9749-4.8855-4.5966l-4.7801-4.7666zm87.876 33.384c-0.0292 3.6333 0.5543 4.3114-1.7902 5.7702 0 0.17786 12.79 0.21405 12.967 0.03669-0.90852-0.36697-1.0068-1.9112-1.1937-3.1042 0-0.5356 2.8953-6.287 3.1306-6.2187 0.25218 0.07321 3.0896 5.7183 3.1004 6.1558-0.29059 1.178-0.44788 2.5272-1.2938 3.0901 0 0.13077 3.7696 0.19482 11.489 0.19482 6.3188-3e-6 11.489-0.04852 11.489-0.10749 0-0.05896-0.25911-0.3254-0.5762-0.59221-1.171-0.98538-1.1327-0.57793-1.1327-11.98l-2e-5 -14.462c0-3.7782 0.0783-4.1238 1.1328-5.0111 0.31708-0.26681 0.5762-0.53376 0.5762-0.59273 0-0.05897-4.5466-0.10697-10.104-0.10697h-10.104l0.78806 0.80719c0.43345 0.44388 0.87858 1.0475 0.98909 1.3415 0.26833 0.71393 0.27922 16.841 0.0114 16.841-0.10413 0-1.5604-2.7416-3.2365-6.0927-2.2761-4.5505-3.1054-6.0438-3.2763-5.8999-0.12582 0.10597-1.5523 2.8476-3.1698 6.0927s-3.0059 5.8999-3.0856 5.8999-0.14521-3.7255-0.14521-8.2791c0-9.1022 5e-3 -9.142 1.1689-10.002 0.29728-0.21979 0.54054-0.46917 0.54054-0.55397l-10.065 0.01395c0 0.09243 0.21255 0.30729 0.47232 0.47749 0.25976 0.1702 0.6445 0.64677 0.85473 1.0589m36.729 7.7558 3.1041-1.2911c2.7226-1.3562 3.3513-1.5968 4.363-1.6702 0.65008-0.04716 1.3976-0.03159 1.6614 0.03462l0.47956 0.12041-5.3e-4 12.007c-7.9e-4 11.567-0.0146 12.03-0.37104 12.614-0.20351 0.33376-0.58759 0.74962-0.85369 0.92397-0.26609 0.17436-0.48369 0.3923-0.48369 0.48473 0 0.09324 2.24 0.16847 5.0322 0.16847s5.0322-0.07522 5.0322-0.16847c0-0.09243-0.22108-0.31256-0.49093-0.48938-0.26986-0.17682-0.65224-0.67789-0.85008-1.1136-0.34047-0.74996-0.3598-1.4223-0.3638-12.593-4e-3 -10.588 0.0266-11.813 0.29611-11.916 0.1652-0.06339 0.88748-0.11524 1.6051-0.11524 1.2579 0 1.4192 0.05771 4.4917 1.6015 1.7528 0.88066 3.1375 1.3565 3.1713 1.3227-1.6511-3.3035-2.8357-5.7886-4.6327-9.3807h-8.2155l-8.2155-0.21669c-1.4192 3.3377-3.3878 6.9513-4.7593 9.6768zm-36.701 13.897-2.8264 1.3424-3.1812 1.6009h-6.7365l-6.2709-6.411 7.8806-0.04548 0.69815 1.3291c0.38417 0.7311 0.81175 1.3291 0.94981 1.3291 0.28224 0 6.149-11.635 5.9614-11.823-0.0658-0.06579-0.69578 0.4521-1.4004 1.1514l-1.2811 1.2718-12.809-0.14986c0-0.08235 1.4367-1.5779 3.1931-3.3233l3.1936-3.1734 4.5889 0.22789c0.12534 0.12533 0.2279 0.72335 0.2279 1.3291 0 0.60577 0.0681 1.1017 0.15141 1.1017 0.12842 0 4.5961-8.7751 4.5961-9.0274 0-0.04828-2.9263-0.08785-6.503-0.08785h-6.503l-6.3882 6.3862c-4.2634 4.262-6.467 6.3375-6.6249 6.2399-0.1835-0.11343-0.22002-1.5359-0.16382-6.3386l0.0724-6.1924-7.4063-0.04909-7.4058-0.04857-2.3461 4.6654c-1.2905 2.5659-2.2929 4.719-2.2273 4.7847 2.7475-1.3336 3.685-1.9243 6.4725-2.9993l2.9673 0.0041c2.2583 0.0031 3.019 0.06552 3.1812 0.26097 0.35378 5.144 0.21291 8.4072 0.21291 14.262l-9.7798 9.7865c-5.4613 5.465-9.7798 9.9331-9.7798 10.119 1.1348 2.0636 1.6548 3.2444 3.205 6.2141 0.21092 0 22.763-22.676 22.981-23.108 0.11535-0.22813 0.20981-1.1037 0.20981-1.9461 0-1.1025 0.0671-1.5317 0.23875-1.5317 0.13114 0 3.0147 2.7773 6.4079 6.1717l6.1691 6.1717h4.007c5.1344 0 5.549 0.03116 6.1808 2.4683 0.11097-0.06858 1.3297-2.3252 2.9421-5.5766 1.6125-3.2515 2.6599-5.682 2.7607-5.7168m28.411-23.401c0.45115-0.02748 0.9175 0.3258 1.3084 1.0656l0.44184 0.83716v13.838c0 14.719 8e-3 14.583-0.89091 15.576-0.60179 0.66497-1.5058 0.26886-2.1234-0.93018-0.34129-0.66264-0.29859-28.356 0.045-29.168 0.33174-0.78379 0.76789-1.1921 1.219-1.2196z" stroke-width=".1899"/>

<g class="logoWings">
<path d="m11.334 20.2 18.783 17.393 0.03191 7.6719c-5.1299-4.6899-20.016-16.614-18.815-25.065z" fillstroke-width=".19023"/>
<path d="m13.358 32.741 16.798 14.478 0.02384 5.7317c-6.2157-5.1984-17.597-13.587-16.822-20.209z"  stroke-width=".19023"/>
<path d="m10.339 5.7619 19.731 20.225 0.0385 9.2572c-6.5019-6.97-22.042-19.292-19.769-29.482z" stroke-width=".20352"/>
<path d="m124.71 8.6903-19.811 20.146-0.0754 9.2569c6.5296-6.944 22.118-19.204 19.886-29.403z" stroke-width=".20352"/>
<path d="m123.66 22.538-5.5201 5.1542h4.6431c0.75729-1.7968 1.1133-3.5405 0.87695-5.1542z" stroke-width=".19023"/>
</g>

<flowRoot transform="matrix(.26458 0 0 .26458 10.114 5.7619)" font-family="sans-serif" font-size="40px" letter-spacing="0px" word-spacing="0px" style="line-height:1.25" ><flowRegion ><rect x="425.83" y="40.111" width="266.64" height="42.775" /></flowRegion><flowPara>dru</flowPara></flowRoot>
</g>
</g>
<g transform="matrix(.64892 0 0 .64892 151.25 232.85)"  font-family="'DS Etienne'" letter-spacing="0px" opacity=".98" word-spacing="0px">
<text transform="scale(1.1643 .85886)" x="-33.672737" y="53.566776" font-size="15.472px" stroke-width=".3868" style="line-height:1.25" ><tspan x="-33.672737" y="53.566776" stroke-width=".3868">Drużyna</tspan></text>
<text transform="scale(1.1643 .85886)" x="-16.487165" y="65.572189" font-size="15.472px" opacity="1" stroke-width=".3868" style="line-height:1.25"><tspan x="-16.487165" y="65.572189" stroke-width=".3868">Najemna</tspan></text>
</g>
</g>
</g>
</g>
</svg>
