
<svg width="118.85mm" height="53.292mm" version="1.1" viewBox="0 0 118.85121 53.291786" >

<g transform="translate(-81.839 -98.973)">
<g transform="matrix(1.4834 0 0 1.4834 -105.17 -282.05)" fill="#261202">
<g>
<g transform="matrix(.40504 0 0 .40504 131.06 264.3)" fill="#000">
<g transform="translate(-10.114 -5.7619)" display="none">
</g>
<g transform="translate(-10.114 -5.7619)">
<text x="124.49004" y="27.015062" fill="#000000" font-family="sans-serif" font-size="11.116px" letter-spacing="0px" stroke-width=".2779" word-spacing="0px" style="line-height:1.25"><tspan x="124.49004" y="37.156631" fill="#000000" font-family="MingLiU-ExtB" font-size="7.4107px" stroke-width=".2779"/></text>
<path d="m45.629 22.333c-5.8495 0-6.0186 0.02924-7.1536 1.2247l-0.66456 0.6997c-0.0634-0.60978-0.12678-1.2196-0.19017-1.8293l-4.13-0.05116c-2.6513-0.03285-4.1305-0.0601-4.1305 0.06136 0.48631 0.49974 0.99968 0.9746 1.3405 1.6254 0.3585 0.70273 0.36845 1.3016 0.36845 21.356v20.633l-0.41548 0.74001c-0.22864 0.40682-0.61338 0.86867-0.85473 1.0268-0.24135 0.15814-0.43873 0.37133-0.43873 0.47336 0 0.11611 1.8832 0.18552 5.0322 0.18552 2.7677 0 5.0323-0.05474 5.0323-0.12144 0-0.06664-0.33648-0.48605-0.74776-0.93224-0.42601-0.46217-0.79641-1.0841-0.86093-1.4454-0.06228-0.34882-0.08911-8.7951-0.05943-18.769l0.05426-18.135 4.9082-0.05064 4.9082-0.05064 1.5007 1.4604c0.82538 0.80322 1.5007 1.5954 1.5007 1.7606 0 0.16521-2.7773 3.0652-6.1717 6.4441-3.3944 3.3789-6.1717 6.215-6.1717 6.3025s6.9355 7.1281 15.412 15.646c8.4765 8.5179 15.483 15.487 15.57 15.487 0.18313 0 3.1993-5.9515 3.1993-6.3128 0-0.13218-4.1928-4.4273-9.3173-9.5446-5.1244-5.1173-10.607-10.654-12.184-12.305l-2.8675-3.0003 6.1516-6.1619c3.3832-3.3891 6.2173-6.1624 6.2978-6.1624 0.08049 0 0.14624 4.3781 0.14624 9.7286v9.7281l9.7927 9.7927 6.5448-0.05013 6.5448-0.05013 0.09508-15.191c0.05222-8.3554 0.17144-15.363 0.26458-15.572 0.09314-0.20889 0.51683-0.74312 0.94154-1.187l0.77205-0.80718h-8.4346v26.003l-0.40463 0.21652c-1.0723 0.25441-1.9041 0.13196-3.0251 0.06873-2.1165-2.1167-4.2332-4.2331-6.35-6.3495l-0.09457-9.9214-0.09509-9.9219-4.1305-0.05116c-2.3739-0.02941-4.13 0.0222-4.13 0.12092 0 0.09447 0.22055 0.31618 0.49041 0.49299 0.5138 0.33665 1.2685 1.7661 1.0873 2.0593-0.05786 0.09362-2.2564-1.9749-4.8855-4.5966l-4.7801-4.7666zm87.876 33.384c-0.0292 3.6333 0.5543 4.3114-1.7902 5.7702 0 0.17786 12.79 0.21405 12.967 0.03669-0.90852-0.36697-1.0068-1.9112-1.1937-3.1042 0-0.5356 2.8953-6.287 3.1306-6.2187 0.25218 0.07321 3.0896 5.7183 3.1004 6.1558-0.29059 1.178-0.44788 2.5272-1.2938 3.0901 0 0.13077 3.7696 0.19482 11.489 0.19482 6.3188-3e-6 11.489-0.04852 11.489-0.10749 0-0.05896-0.25911-0.3254-0.5762-0.59221-1.171-0.98538-1.1327-0.57793-1.1327-11.98l-2e-5 -14.462c0-3.7782 0.0783-4.1238 1.1328-5.0111 0.31708-0.26681 0.5762-0.53376 0.5762-0.59273 0-0.05897-4.5466-0.10697-10.104-0.10697h-10.104l0.78806 0.80719c0.43345 0.44388 0.87858 1.0475 0.98909 1.3415 0.26833 0.71393 0.27922 16.841 0.0114 16.841-0.10413 0-1.5604-2.7416-3.2365-6.0927-2.2761-4.5505-3.1054-6.0438-3.2763-5.8999-0.12582 0.10597-1.5523 2.8476-3.1698 6.0927s-3.0059 5.8999-3.0856 5.8999-0.14521-3.7255-0.14521-8.2791c0-9.1022 5e-3 -9.142 1.1689-10.002 0.29728-0.21979 0.54054-0.46917 0.54054-0.55397l-10.065 0.01395c0 0.09243 0.21255 0.30729 0.47232 0.47749 0.25976 0.1702 0.6445 0.64677 0.85473 1.0589m36.729 7.7558 3.1041-1.2911c2.7226-1.3562 3.3513-1.5968 4.363-1.6702 0.65008-0.04716 1.3976-0.03159 1.6614 0.03462l0.47956 0.12041-5.3e-4 12.007c-7.9e-4 11.567-0.0146 12.03-0.37104 12.614-0.20351 0.33376-0.58759 0.74962-0.85369 0.92397-0.26609 0.17436-0.48369 0.3923-0.48369 0.48473 0 0.09324 2.24 0.16847 5.0322 0.16847s5.0322-0.07522 5.0322-0.16847c0-0.09243-0.22108-0.31256-0.49093-0.48938-0.26986-0.17682-0.65224-0.67789-0.85008-1.1136-0.34047-0.74996-0.3598-1.4223-0.3638-12.593-4e-3 -10.588 0.0266-11.813 0.29611-11.916 0.1652-0.06339 0.88748-0.11524 1.6051-0.11524 1.2579 0 1.4192 0.05771 4.4917 1.6015 1.7528 0.88066 3.1375 1.3565 3.1713 1.3227-1.6511-3.3035-2.8357-5.7886-4.6327-9.3807h-8.2155l-8.2155-0.21669c-1.4192 3.3377-3.3878 6.9513-4.7593 9.6768zm-36.701 13.897-2.8264 1.3424-3.1812 1.6009h-6.7365l-6.2709-6.411 7.8806-0.04548 0.69815 1.3291c0.38417 0.7311 0.81175 1.3291 0.94981 1.3291 0.28224 0 6.149-11.635 5.9614-11.823-0.0658-0.06579-0.69578 0.4521-1.4004 1.1514l-1.2811 1.2718-12.809-0.14986c0-0.08235 1.4367-1.5779 3.1931-3.3233l3.1936-3.1734 4.5889 0.22789c0.12534 0.12533 0.2279 0.72335 0.2279 1.3291 0 0.60577 0.0681 1.1017 0.15141 1.1017 0.12842 0 4.5961-8.7751 4.5961-9.0274 0-0.04828-2.9263-0.08785-6.503-0.08785h-6.503l-6.3882 6.3862c-4.2634 4.262-6.467 6.3375-6.6249 6.2399-0.1835-0.11343-0.22002-1.5359-0.16382-6.3386l0.0724-6.1924-7.4063-0.04909-7.4058-0.04857-2.3461 4.6654c-1.2905 2.5659-2.2929 4.719-2.2273 4.7847 2.7475-1.3336 3.685-1.9243 6.4725-2.9993l2.9673 0.0041c2.2583 0.0031 3.019 0.06552 3.1812 0.26097 0.35378 5.144 0.21291 8.4072 0.21291 14.262l-9.7798 9.7865c-5.4613 5.465-9.7798 9.9331-9.7798 10.119 1.1348 2.0636 1.6548 3.2444 3.205 6.2141 0.21092 0 22.763-22.676 22.981-23.108 0.11535-0.22813 0.20981-1.1037 0.20981-1.9461 0-1.1025 0.0671-1.5317 0.23875-1.5317 0.13114 0 3.0147 2.7773 6.4079 6.1717l6.1691 6.1717h4.007c5.1344 0 5.549 0.03116 6.1808 2.4683 0.11097-0.06858 1.3297-2.3252 2.9421-5.5766 1.6125-3.2515 2.6599-5.682 2.7607-5.7168m28.411-23.401c0.45115-0.02748 0.9175 0.3258 1.3084 1.0656l0.44184 0.83716v13.838c0 14.719 8e-3 14.583-0.89091 15.576-0.60179 0.66497-1.5058 0.26886-2.1234-0.93018-0.34129-0.66264-0.29859-28.356 0.045-29.168 0.33174-0.78379 0.76789-1.1921 1.219-1.2196z" fill="#000" stroke-width=".1899"/>
<path d="m11.334 20.2 18.783 17.393 0.03191 7.6719c-5.1299-4.6899-20.016-16.614-18.815-25.065z" fill="#000" stroke-width=".19023"/>
<path d="m13.358 32.741 16.798 14.478 0.02384 5.7317c-6.2157-5.1984-17.597-13.587-16.822-20.209z" fill="#000" stroke-width=".19023"/>
<path d="m10.339 5.7619 19.731 20.225 0.0385 9.2572c-6.5019-6.97-22.042-19.292-19.769-29.482z" fill="#000" stroke-width=".20352"/>
<path d="m124.71 8.6903-19.811 20.146-0.0754 9.2569c6.5296-6.944 22.118-19.204 19.886-29.403z" fill="#000" stroke-width=".20352"/>
<path d="m123.66 22.538-5.5201 5.1542h4.6431c0.75729-1.7968 1.1133-3.5405 0.87695-5.1542z" fill="#000" stroke-width=".19023"/>
<flowRoot transform="matrix(.26458 0 0 .26458 10.114 5.7619)" fill="#000000" font-family="sans-serif" font-size="40px" letter-spacing="0px" word-spacing="0px" style="line-height:1.25" ><flowRegion fill="#000000"><rect x="425.83" y="40.111" width="266.64" height="42.775" fill="#000"/></flowRegion><flowPara>dru</flowPara></flowRoot>
</g>
<g transform="translate(-10.114 -5.7619)" display="none" stroke-width=".1899">
<path d="m10.612 70.214v-34.846h185.53l-0.0108 15.524-0.0108 15.524-2.4087-4.7949-2.4087-4.7949h-16.618l-2.3642 4.6999-2.3642 4.6999-9e-3 -3.1333c-5e-3 -1.7233 0.0787-3.4495 0.18602-3.836 0.23139-0.83316 1.5506-2.0508 2.2218-2.0508 0.25282 0 0.40008-0.08362 0.3344-0.1899-0.16143-0.26121-21.867-0.26121-22.028 0-0.0645 0.10444 0.0556 0.1899 0.26703 0.1899 0.47159 0 1.6479 1.0054 2.0214 1.7278 0.22792 0.44075 0.27514 1.9532 0.27514 8.812v8.2799l-3.1312-6.2766c-1.7221-3.4521-3.1746-6.2766-3.2277-6.2766-0.0531 0-1.5448 2.8841-3.315 6.409l-3.2185 6.409-9e-3 -8.0706c-6e-3 -5.3039 0.0622-8.3279 0.19916-8.8213 0.25599-0.92204 1.2623-1.9651 2.0474-2.1221 1.5625-0.31251-0.14642-0.45043-5.5811-0.45043-5.4434 0-7.1438 0.13789-5.5735 0.45194 0.76373 0.15275 1.8061 1.2622 2.0553 2.1875 0.12166 0.4518 0.19505 4.4338 0.19505 10.583v9.8585l-3.3707 1.6688-3.3707 1.6688-3.1804-0.05888-3.1804-0.05888-3.1811-3.1837-3.1811-3.1837 3.9657 0.05037 3.9656 0.05038 0.77649 1.5666c0.42706 0.86166 0.86431 1.5603 0.97165 1.5525 0.23905-0.01732 6.619-12.9 6.4649-13.054-0.0605-0.06049-0.85789 0.63447-1.772 1.5443l-1.662 1.6543-6.3099-0.05008-6.3099-0.05008 3.185-3.1808 3.185-3.1808h4.6336l0.0549 1.6616 0.0549 1.6616 0.37979-0.59834c0.69672-1.0976 4.7341-9.3529 4.6267-9.4603-0.0582-0.05819-3.0666-0.08331-6.6854-0.05583l-6.5796 0.04997-6.4574 6.4554-6.4574 6.4554v-13.01l-7.524 0.04965-7.524 0.04965-2.4566 4.9104c-1.3511 2.7007-2.4066 4.9605-2.3454 5.0217 0.06118 0.06118 1.5829-0.63214 3.3817-1.5407l3.2705-1.6519 3.1504 9.49e-4 3.1504 9.5e-4 0.10363 5.9343c0.057 3.2638 0.04928 6.5116-0.01715 7.2173l-0.12079 1.283-9.7752 9.7747c-9.5824 9.5819-9.7712 9.7851-9.5722 10.301 0.11167 0.28927 0.86485 1.8429 1.6737 3.4526l1.4707 2.9266 11.607-11.607 11.607-11.607 0.10283-2.0491 0.10283-2.0491 6.3615 6.4104 6.3615 6.4104 4.0879-0.0013 4.0879-0.0013 0.8213 1.656c0.69043 1.3921 0.85603 1.607 1.0393 1.3485 0.11989-0.16914 1.6057-3.072 3.3018-6.4509l3.0838-6.1435-0.0455 3.5131c-0.0408 3.1533-0.0854 3.5811-0.43555 4.1771-0.42261 0.7194-1.376 1.4523-2.0416 1.5695-1.3088 0.23041 0.88489 0.33194 7.1538 0.33106 6.5744-9.5e-4 6.9954-0.02122 6.9122-0.3333-0.0488-0.18278-0.40337-0.95531-0.78798-1.7167l-0.69929-1.3844 1.5592-3.1507 1.5592-3.1507 1.5802 3.1559 1.5802 3.1559-0.79822 1.6095c-0.43902 0.88521-0.75102 1.6567-0.69332 1.7144 0.13309 0.13309 24.023 0.03897 24.157-0.09518 0.0547-0.05472-0.17321-0.1872-0.50645-0.29439-0.92315-0.29697-1.4108-0.66958-1.7847-1.3636-0.31324-0.58144-0.34446-1.451-0.39247-10.931l-0.0521-10.3 3.2804-1.657 3.2804-1.657 1.5721 9.49e-4 1.5721 9.5e-4 -0.0529 12.045c-0.0522 11.882-0.0583 12.052-0.45017 12.581-0.4767 0.6432-1.4596 1.339-2.0345 1.4402-0.32246 0.05677-0.35188 0.10304-0.13003 0.20453 0.33404 0.15283 11.879 0.08162 12.035-0.07423 0.0576-0.05765-0.16287-0.18583-0.48991-0.28484-0.74321-0.22501-1.5265-0.95387-1.8261-1.6992-0.17027-0.42356-0.22861-3.6054-0.22746-12.404l2e-3 -11.835 1.6616 0.06176 1.6616 0.06177 3.1808 1.6106 3.1808 1.6106v19.04l4e-5 19.04h-185.53zm60.751 31.081c0.8739-1.7575 1.5555-3.2915 1.5147-3.4088-0.04082-0.11733-5.559-5.7139-12.263-12.437l-12.189-12.224 6.2543-6.2521 6.2543-6.2521v19.744l4.8885 4.8912 4.8885 4.8912h6.3968c5.5621 0 6.4358-0.03894 6.6952-0.29841 0.26622-0.26622 0.29841-1.9087 0.29841-15.227 0-14.711 0.0057-14.94 0.39327-15.741 0.39159-0.80892 1.3553-1.5863 1.9666-1.5863 0.17661 0 0.2683-0.08545 0.20375-0.1899-0.07306-0.11822-1.8693-0.1899-4.7586-0.1899h-4.6413v26.396h-3.1293l-3.2777-3.2737-3.2777-3.2737v-19.865l-4.8696 0.02678-4.8696 0.02678-3.2505-3.2465-3.2505-3.2465h-5.5741c-5.3059 0-5.6082 0.01914-6.2817 0.39769-0.38918 0.21873-0.87081 0.66736-1.0703 0.99696l-0.36269 0.59927-0.0574-0.99696-0.0574-0.99696-4.785 0.01094-4.785 0.01094 0.96653 0.43962c0.6654 0.30266 1.1091 0.66902 1.4242 1.1759l0.4577 0.73629v41.425l-0.50492 0.76299c-0.45538 0.68813-0.78813 0.90811-1.9434 1.2848-0.19772 0.0645-0.3142 0.16252-0.25882 0.21789 0.12731 0.12731 12.13 0.12101 12.257-6e-3 0.05183-0.0518-0.06753-0.14443-0.26526-0.20576-0.96084-0.29807-1.5818-0.75872-1.995-1.4799l-0.45331-0.79118-0.04956-18.467-0.04956-18.467h9.7922l1.599 1.6073 1.599 1.6073-6.2214 6.277c-3.6335 3.666-6.1961 6.3952-6.1607 6.5612 0.07994 0.37425 30.697 31.231 30.988 31.231 0.12347 0 0.9395-1.438 1.8134-3.1955zm-11.911-42.515c-0.65881-0.6793-1.1529-1.28-1.098-1.3349 0.2061-0.2061 1.2912 0.40861 1.7229 0.97607 0.38249 0.50272 0.84784 1.6744 0.64097 1.6139-0.03743-0.01096-0.60708-0.5757-1.2659-1.255zm-29.419 14.923c-0.38974-0.38974-16.582-9.9877-16.654-9.8715-0.04523 0.07318 0.10841 0.94116 0.34141 1.9289 0.35142 1.4897 0.59836 2.0548 1.4486 3.315 1.1015 1.6326 1.1088 1.6424 1.7877 2.4095 0.24856 0.28081 3.3022 2.2198 6.7858 4.3089l6.3339 3.7983 0.0526-2.87c0.02893-1.5785-0.01443-2.9371-0.09637-3.019zm0.13872-4.2315v-3.8765l-1.2818-1.003c-0.70499-0.55162-3.0763-2.4242-5.2696-4.1612-9.3416-7.3982-12.271-9.6805-12.424-9.6805-0.20373 0-0.0601 3.0309 0.19797 4.1777 0.20234 0.89916 1.3757 3.3454 2.4736 5.1569 0.53337 0.88005 1.2672 1.5571 4.0621 3.7476 1.8761 1.4704 5.3338 4.2057 7.6838 6.0783 2.35 1.8727 4.3368 3.4121 4.4151 3.421 0.07833 0.0089 0.14242-1.7283 0.14242-3.8604zm83.49-10.953c4.37-4.3863 8.0166-8.1849 8.1036-8.4414 0.087-0.25648 0.23658-0.46633 0.33232-0.46633 0.0957 0 0.17407-0.09014 0.17407-0.20032 0-0.11017 0.17557-0.60153 0.39016-1.0919s0.465-1.0625 0.55646-1.2714c0.0915-0.20889 0.26884-0.72161 0.39417-1.1394 0.12533-0.41777 0.28986-0.84504 0.36562-0.94948 0.49718-0.68544 0.83525-6.4132 0.41736-7.0711-0.10096-0.15896-3.2299 2.8529-9.6818 9.3195l-9.5326 9.5544v5.0884c0 4.3563 0.0385 5.0564 0.26766 4.8662 0.14722-0.12218 3.8431-3.8109 8.213-8.1972zm-83.49 1.4087v-5.0651l-9.5326-9.5544c-6.452-6.4667-9.5808-9.4785-9.6818-9.3195-0.41789 0.65794-0.07982 6.3857 0.41736 7.0711 0.07576 0.10444 0.24028 0.53171 0.36562 0.94948 0.12533 0.41777 0.30271 0.93049 0.39417 1.1394 0.09146 0.20889 0.34187 0.78101 0.55646 1.2714s0.39016 0.98173 0.39016 1.0919c0 0.11017 0.07833 0.20032 0.17407 0.20032 0.09574 0 0.24528 0.20955 0.33232 0.46566 0.12845 0.37799 16.27 16.815 16.513 16.815 0.03935 0 0.07155-2.2793 0.07155-5.0651zm114.92-4.013 0.77482-0.72274-0.0316-2.1282c-0.0262-1.7653 0.0185-2.1474 0.26226-2.241 0.59355-0.22776 0.26835-0.45193-0.65561-0.45193-0.91817 0-1.2499 0.22386-0.66464 0.44846 0.20403 0.07829 0.28485 0.39724 0.28485 1.1242 0 0.88023-0.0757 1.0874-0.57094 1.5619-0.81882 0.78447-1.0034 0.48339-0.92098-1.5026l0.0677-1.6319-0.60595 2.8e-5c-0.66373 3e-5 -1.0151 0.31622-0.54979 0.49476 0.23809 0.09137 0.28452 0.42968 0.2494 1.8175-0.0379 1.4978 2e-3 1.738 0.32547 1.9753 0.50601 0.37073 0.55714 0.35648 1.3269-0.36952l0.67816-0.63959v0.62722c0 1.0151-0.30544 1.6014-0.83431 1.6014-0.65999 0-1.0647-0.18817-1.0647-0.49506 0-0.14549-0.0855-0.26453-0.1899-0.26453-0.10444 0-0.19106 0.10682-0.19248 0.23737-2e-3 0.13055-0.0521 0.42185-0.11257 0.64732-0.0795 0.29616-0.0128 0.435 0.23996 0.50019 0.95661 0.24668 1.4234 0.12088 2.1839-0.58845zm25.036-2.8942c0-1.1269 0.0519-2.1841 0.11527-2.3493 0.0936-0.24386-0.0315-0.30038-0.66464-0.30038-0.56665 0-0.77991 0.07789-0.77991 0.28484 0 0.15666 0.13574 0.28484 0.30165 0.28484 0.44462 0 0.31655 3.8038-0.15922 4.7291-0.53399 1.0386-0.37251 1.1244 0.43505 0.23125l0.7518-0.83148zm-45.955 1.9316c0-0.6136 0.0534-1.3827 0.11869-1.7091 0.0795-0.39771 0.0444-0.59343-0.10647-0.59343-0.17364 0-3.188 2.2976-4.2754 3.2587-0.0992 0.0877 0.8194 0.15946 2.0414 0.15946h2.2218zm2.5809-0.20707c1.0241 0.38937 2.5774-0.76239 3.014-2.2349 0.20703-0.69826 0.16274-1.9142-0.0921-2.5296-0.36109-0.87176-1.05-1.1289-3.0246-1.1289-1.5802 0-2.2259 0.2028-1.3636 0.4283 0.47736 0.12483 0.66636 1.6775 0.48554 3.9888-0.12199 1.5594-0.10514 1.7262 0.15277 1.5122 0.21856-0.18139 0.42231-0.19024 0.82808-0.03596zm0.0144-0.89274c-0.0696-0.06963-0.1266-1.0934-0.1266-2.2751 0-2.1351 3e-3 -2.1493 0.47612-2.268 0.59007-0.1481 1.3697 0.32755 1.6212 0.98909 0.0998 0.26244 0.18143 1.008 0.18143 1.6569 0 1.5229-0.32385 2.0238-1.3084 2.0238-0.39444 0-0.77414-0.05697-0.84376-0.1266zm8.9174 0.68152c0.35112-0.217 0.72178-0.53745 0.82369-0.71211 0.14454-0.2477 0.18657-0.16196 0.19108 0.38981 6e-3 0.69475 0.0168 0.70527 0.62293 0.58989 0.79995-0.15227 0.81727-0.17479 0.43123-0.56083-0.26722-0.26722-0.31363-0.60045-0.25708-1.8457 0.0447-0.98384 0.15167-1.5471 0.30348-1.5977 0.55982-0.1866 0.15779-0.4263-0.715-0.4263-0.91817 0-1.2499 0.22386-0.66463 0.44846 0.20292 0.07787 0.28484 0.39476 0.28484 1.1018 0 0.81838-0.0895 1.086-0.51027 1.5251-0.28065 0.29293-0.62246 0.53261-0.75958 0.53261-0.29258 0-0.31482-0.18528-0.25563-2.1294l0.0446-1.4648-1.2527 0.0096c-1.1104 0.0085-1.2959 0.06457-1.6333 0.49346l-0.38059 0.48384v-0.50035c0-0.44523-0.0732-0.50035-0.66464-0.50035-0.70085 0-0.81884 0.1495-0.42727 0.54141 0.15095 0.15108 0.2355 0.78554 0.23222 1.7426-4e-3 1.2722-0.0631 1.5489-0.37979 1.7883-0.34514 0.26091-0.28118 0.28369 0.81221 0.28925 0.66867 0.0034 1.1869-0.07687 1.1869-0.18386 0-0.10444-0.17091-0.1899-0.3798-0.1899-0.33597 0-0.37979-0.1266-0.37979-1.0971 0-1.1425 0.35604-1.9412 0.8653-1.9412 0.15074 0 0.27408 0.14527 0.27408 0.32282 0 0.41812 0.3191 0.09411 0.41143-0.41777 0.0377-0.20889 0.19552-0.37979 0.35076-0.37979 0.2221 0 0.30247 0.36832 0.37719 1.7285 0.0581 1.0581 0.19603 1.8498 0.35557 2.0414 0.32724 0.39288 0.32438 0.3931 1.0925-0.08165zm6.1478-0.36503c0-0.41777-0.0855-0.75959-0.1899-0.75959-0.10444 0-0.1899 0.08545-0.1899 0.1899 0 0.10444-0.34181 0.1899-0.75958 0.1899-0.41778 0-0.75959-0.05088-0.75959-0.11306 0-0.06218 0.47-0.79535 1.0444-1.6293 0.57444-0.83391 1.0443-1.5307 1.0442-1.5485-1.3e-4 -0.01778-0.69897-0.03233-1.553-0.03233h-1.5527l-0.14981 0.56014c-0.17123 0.64024-0.0686 0.84627 0.25857 0.5191 0.22102-0.22102 1.6679-0.32482 1.6679-0.11966 0 0.05778-0.45319 0.72004-1.0071 1.4717-1.4431 1.9583-1.4174 1.8405-0.37579 1.7189 0.49947-0.05832 1.2072-0.01961 1.5728 0.08604 0.36555 0.10565 0.72873 0.1998 0.80706 0.20922 0.0783 0.0094 0.14243-0.32469 0.14243-0.74246zm11.923 0.10876 0.72039-0.65083-0.0759 0.65022c-0.0754 0.64559-0.0714 0.64936 0.56196 0.5286 0.77656-0.14806 0.8898-0.23248 0.57383-0.42776-0.17463-0.10793-0.23662-0.70574-0.22045-2.126 0.0284-2.4921 0.0407-2.3778-0.22823-2.1088-0.12533 0.12533-0.54107 0.22788-0.92387 0.22788-1.2776 0-2.2664 1.186-2.2664 2.7185 0 0.81308 0.53708 1.8391 0.96272 1.8391 0.0966 0 0.49974-0.29287 0.89595-0.65083zm-0.92782-0.82087c-0.27091-0.7105-0.0452-2.0888 0.37928-2.316 0.18565-0.09935 0.52226-0.13233 0.74803-0.07329 0.35572 0.09302 0.41049 0.24191 0.41049 1.1158 0 0.86332-0.072 1.0652-0.50035 1.4021-0.65483 0.5151-0.79879 0.49724-1.0374-0.12864zm13.366 0.75959 0.73552-0.71211-0.0629 0.56969c-0.0346 0.31333 1e-3 0.59105 0.0795 0.61716 0.37782 0.12594 1.2818 0.02549 1.2818-0.14242 0-0.10444-0.13894-0.1899-0.30875-0.1899-0.272 0-0.29879-0.25985-0.22515-2.1838 0.046-1.2011 0.014-2.1838-0.0711-2.1838-0.085 0-0.15464 0.08545-0.15464 0.1899 0 0.10444-0.37302 0.1899-0.82893 0.1899-0.97441 0-1.6363 0.44338-2.0904 1.4003-0.61356 1.293-0.17454 2.9703 0.82244 3.1422 0.0478 0.0082 0.41793-0.30546 0.82246-0.69712zm-0.88908-0.53775c-0.23348-0.60844-0.11868-2.1377 0.18314-2.4396 0.35252-0.35252 0.30836-0.34711 0.92356-0.11321 0.41954 0.15951 0.4871 0.29944 0.4871 1.0089 0 0.6546-0.10934 0.92846-0.53261 1.334-0.60837 0.58286-0.89622 0.6398-1.0612 0.20989zm8.0261 0.97754c0.28964-0.14978 0.63938-0.4082 0.77721-0.57428 0.29861-0.3598 0.099-0.65108-0.22446-0.32759-0.29109 0.2911-1.1477 0.28921-1.44-0.0032-0.32557-0.32557-0.28151-1.0402 0.0725-1.176 0.1652-0.06339 0.67288-0.11526 1.1282-0.11526 0.81065 0 1.2365-0.23598 0.85331-0.47283-0.10615-0.0656-0.193-0.3535-0.193-0.63978 0-1.1798-1.2154-1.3514-2.1974-0.31021-1.1107 1.1776-1.0547 3.0574 0.10857 3.6457 0.58455 0.29567 0.48749 0.29798 1.1152-0.0266zm-1.1152-2.7702c0-0.409 0.5267-0.99125 0.81097-0.8965 0.10845 0.03615 0.26221 0.24148 0.34167 0.45629 0.12171 0.32903 0.0423 0.42192-0.50408 0.58961-0.57484 0.17642-0.64856 0.15944-0.64856-0.14941zm16.609 2.4532 0.67125-0.58936v0.58461c0 0.55706 0.0291 0.57908 0.61716 0.46714 0.77359-0.14725 0.86793-0.22885 0.51672-0.4469-0.2239-0.139-0.26986-0.59689-0.23156-2.3067 0.0372-1.6609-3e-3 -2.0828-0.1804-1.9051-0.1255 0.1255-0.57888 0.22819-1.0075 0.22819-1.8313 0-3.0334 2.8136-1.7778 4.1613 0.4843 0.51984 0.59811 0.50405 1.3922-0.19314zm-0.84124-0.72743c-0.42232-0.7891-0.17576-2.3926 0.39067-2.5408 0.83553-0.2185 1.1218 0.04688 1.1218 1.0399 0 0.74055-0.0973 1.0333-0.46611 1.4021-0.56212 0.56212-0.78705 0.58336-1.0464 0.0988zm-39.268 0.80893c-0.89466-0.62409-0.39105-2.8667 0.70833-3.1542 0.52-0.13598 0.65688 0.46522 0.49045 2.1542l-0.12987 1.318 0.81856-6e-3c0.72136-0.0053 0.7791-0.03599 0.48624-0.25831-0.2729-0.20716-0.33232-0.5558-0.33232-1.9499 0-2.3259-0.47419-2.7258-1.8255-1.5394l-0.69929 0.61399 0.0901-0.61399c0.0859-0.58518 0.061-0.614-0.53043-0.614-0.67841 0-1.0335 0.31472-0.56004 0.4964 0.42934 0.16475 0.44081 3.4914 0.012 3.4914-0.15667 0-0.28485 0.08545-0.28485 0.1899 0 0.10574 0.48393 0.18548 1.0919 0.17994 1.0481-0.0096 1.0748-0.02193 0.66463-0.30801zm11.916 0.14068c0-0.09751-0.23459-0.20432-0.52132-0.23737-0.63007-0.07262-0.75436-0.50471-0.78198-2.7186l-0.019-1.5192 1.2308 2.0809c0.67695 1.1445 1.2308 2.1913 1.2308 2.3262 0 0.16778 0.30008 0.24532 0.94948 0.24532 0.52221 0 0.94948-0.08545 0.94948-0.1899 0-0.10444-0.16023-0.1899-0.35606-0.1899-0.44028 0-0.59342-0.66156-0.59342-2.5636s0.15314-2.5636 0.59342-2.5636c0.19583 0 0.35606-0.08545 0.35606-0.1899 0-0.10444-0.46999-0.1899-1.0444-0.1899-1.0535 0-1.2324 0.11589-0.81815 0.53012 0.12986 0.12986 0.25809 0.97546 0.30091 1.9844l0.0746 1.7581-0.45741-0.66464c-0.25158-0.36555-0.78296-1.1976-1.1808-1.8489-0.5992-0.9809-0.68247-1.2336-0.48489-1.4717 0.20891-0.25172 0.0823-0.28743-1.019-0.28743-0.71179 0-1.2576 0.08241-1.2576 0.1899 0 0.10444 0.16362 0.1899 0.36359 0.1899 0.31396 0 0.38178 0.19413 0.49687 1.4223 0.18554 1.98-0.0254 3.5309-0.49709 3.6542-0.81378 0.21281-0.27732 0.43052 1.0608 0.43052 0.78333 0 1.4242-0.07978 1.4242-0.17728zm16.331-0.01261c0-0.10444-0.12818-0.1899-0.28484-0.1899-0.22107 0-0.28485-0.25132-0.28485-1.1225 0-1.0209 0.053-1.1671 0.58577-1.6154 0.8628-0.726 1.0024-0.49745 0.87712 1.4361l-0.10895 1.6816h0.74726c0.41099 0 0.74725-0.08545 0.74725-0.1899 0-0.10444-0.12818-0.1899-0.28484-0.1899-0.21915 0-0.28485-0.24427-0.28485-1.059 0-0.92824 0.0718-1.1308 0.58138-1.6404 0.80577-0.80578 0.98911-0.52757 0.95542 1.4498l-0.0277 1.6294h0.6697c0.36833 0 0.6697-0.08545 0.6697-0.1899 0-0.10444-0.0855-0.1899-0.1899-0.1899-0.11064 0-0.1899-0.62887-0.1899-1.5068 0-0.82875-0.0833-1.726-0.18519-1.9939-0.25421-0.66863-0.93243-0.63385-1.6192 0.08303l-0.54622 0.57013-0.23972-0.57013c-0.31041-0.73825-0.87346-0.74354-1.6019-0.01505l-0.55509 0.55508v-0.55508c0-0.50778-0.0566-0.55508-0.66463-0.55508-0.46419 0-0.66464 0.08591-0.66464 0.28484 0 0.15666 0.0854 0.28484 0.18989 0.28484 0.11195 0 0.1899 0.67348 0.1899 1.6407 0 1.3398-0.0609 1.6869-0.33232 1.8929-0.28875 0.21919-0.18916 0.25306 0.75959 0.25831 0.60536 0.0033 1.0919-0.07858 1.0919-0.18386zm7.0262 0c0-0.10444-0.12818-0.1899-0.28484-0.1899-0.22107 0-0.28485-0.25132-0.28485-1.1225 0-1.0255 0.0516-1.1659 0.59697-1.6248 0.83291-0.70084 1.0014-0.43237 0.94789 1.5101l-0.0446 1.617h0.67408c0.37074 0 0.67408-0.08545 0.67408-0.1899 0-0.10444-0.0855-0.1899-0.1899-0.1899-0.11182 0-0.18989-0.6688-0.18989-1.6266 0-0.89463-0.0885-1.7919-0.19658-1.9939-0.28999-0.54186-0.93673-0.44769-1.6459 0.23963l-0.62621 0.60694v-0.60694c0-0.56705-0.0437-0.60694-0.66464-0.60694-0.70312 0-0.8691 0.2465-0.35841 0.53229 0.25312 0.14165 0.29378 0.44532 0.23448 1.7511-0.0468 1.0296-0.1534 1.607-0.30622 1.6579-0.55981 0.1866-0.15778 0.4263 0.715 0.4263 0.52221 0 0.94948-0.08545 0.94948-0.1899zm-43.099-5.0418c0.20182-0.24318 0.18935-0.34934-0.0717-0.61038-0.29475-0.29474-0.33727-0.29474-0.63202 0-0.26104 0.26105-0.27351 0.36721-0.0717 0.61038 0.13437 0.16191 0.30883 0.29438 0.3877 0.29438 0.0789 0 0.25333-0.13247 0.3877-0.29438zm29.244 0c0.20182-0.24318 0.18935-0.34934-0.0717-0.61038-0.29474-0.29474-0.33727-0.29474-0.63201 0-0.26104 0.26105-0.27351 0.36721-0.0717 0.61038 0.13438 0.16191 0.30884 0.29438 0.38771 0.29438 0.0789 0 0.25333-0.13247 0.3877-0.29438zm-9.1861 39.256c-0.28271-0.29508-0.59778-0.8286-0.70017-1.1856-0.25212-0.8791-0.24875-27.384 4e-3 -28.292 0.1032-0.37149 0.43584-0.91323 0.73921-1.2039 0.47552-0.45558 0.60883-0.4978 0.96683-0.3062 0.22839 0.12223 0.57702 0.57852 0.77473 1.014 0.34219 0.75367 0.35948 1.4583 0.35948 14.654s-0.0173 13.901-0.35948 14.654c-0.29561 0.65107-0.84493 1.2022-1.1983 1.2022-0.0395 0-0.30321-0.24143-0.58591-0.53651z"/>
<path d="m60.364 95.423-8.8294-8.8777 8.8777 8.8294c8.2517 8.2068 8.963 8.9259 8.8294 8.9259-0.02653 0-4.0215-3.995-8.8777-8.8777zm26.396 3.2757c0.2453-0.2611 0.48872-0.47474 0.54094-0.47474 0.05222 0-0.10575 0.21364-0.35105 0.47474-0.2453 0.26111-0.48872 0.47474-0.54094 0.47474-0.05222 0 0.10575-0.21363 0.35105-0.47474zm0.94948-0.85617c0-0.0522 3.7172-3.8114 8.2605-8.3538 4.5433-4.5424 8.2605-8.2161 8.2605-8.1639 0 0.05222-3.7172 3.8114-8.2605 8.3538-4.5433 4.5424-8.2605 8.2161-8.2605 8.1639zm-59.108-1.3512c0.12881-0.12978 0.28204-0.18812 0.34051-0.12966 0.05847 0.0585-0.04693 0.16465-0.2342 0.23596-0.27064 0.10306-0.29245 0.0812-0.1063-0.1063zm11.824 0.0236c-0.17115-0.1106-0.19457-0.18524-0.05868-0.18698 0.12439-2e-3 0.27898 0.0825 0.34353 0.18698 0.14571 0.23577 0.07997 0.23577-0.28484 0zm25.35-11.251-4.9359-4.9848 4.9848 4.9359c2.7416 2.7148 4.9848 4.9579 4.9848 4.9848 0 0.1344-0.44681-0.30374-5.0336-4.9359zm65.137 4.6072c-0.0665-0.10764 0.01-0.13948 0.17869-0.07463 0.32898 0.12624 0.38917 0.26235 0.11602 0.26235-0.0983 0-0.2309-0.08448-0.29471-0.18772zm41.301-0.0022c0.15667-0.10124 0.3703-0.18408 0.47474-0.18408 0.10445 0 0.0617 0.08283-0.0949 0.18408-0.15666 0.10125-0.37029 0.18408-0.47474 0.18408-0.10444 0-0.0617-0.08283 0.095-0.18408zm4.6525 0c-0.0645-0.10444-0.0319-0.1899 0.0725-0.1899 0.10444 0 0.24271 0.08545 0.30726 0.1899 0.0645 0.10444 0.0319 0.1899-0.0725 0.1899-0.10444 0-0.24271-0.08545-0.30726-0.1899zm11.679 0.11526c0-0.04105 0.13262-0.12552 0.29471-0.18772 0.16899-0.06485 0.24521-0.03301 0.17868 0.07463-0.11151 0.18044-0.47339 0.26689-0.47339 0.11309zm-27.648-1.1122-0.36175-0.42727 0.42727 0.36175c0.40152 0.33996 0.51371 0.49278 0.36175 0.49278-0.036 0-0.22831-0.19227-0.42727-0.42727zm2.2919-15.429c2e-5 -7.5199 0.0236-10.569 0.0523-6.7748 0.0288 3.7937 0.0288 9.9464-3e-5 13.673-0.0288 3.7262-0.0523 0.62218-0.0523-6.8977zm23.167 1.899c3e-5 -6.4755 0.0239-9.097 0.0531-5.8256 0.0291 3.2714 0.0291 8.5695-4e-5 11.774-0.0292 3.2041-0.053 0.52751-0.053-5.948zm-135.69 10.397-0.46037-0.52222l0.52222 0.46037c0.28722 0.2532 0.52222 0.4882 0.52222 0.52222 0 0.14893-0.15378 0.02772-0.58406-0.46037zm-1.4279-1.4242-0.36175-0.42727 0.42727 0.36175c0.235 0.19896 0.42727 0.39123 0.42727 0.42727 0 0.15196-0.15283 0.03977-0.49278-0.36175zm-1.4062-1.3768c-0.13002-0.15666-0.19367-0.28484-0.14145-0.28484 0.05222 0 0.20133 0.12818 0.33135 0.28484 0.13002 0.15666 0.19367 0.28484 0.14145 0.28484-0.05222 0-0.20133-0.12818-0.33135-0.28484zm71.112-1.2818-1.5147-1.5666 1.5666 1.5147c0.86165 0.8331 1.5666 1.5381 1.5666 1.5666 0 0.1385-0.21175-0.05966-1.6186-1.5147zm-2.3836-2.3737-0.46037-0.52222 0.52222 0.46037c0.28722 0.2532 0.52221 0.4882 0.52221 0.52222 0 0.14893-0.15377 0.02772-0.58406-0.46037zm-10.62-0.52222c-0.13002-0.15666-0.19367-0.28484-0.14145-0.28484 0.0522 0 0.20133 0.12818 0.33135 0.28484 0.13002 0.15666 0.19367 0.28484 0.14145 0.28484-0.0522 0-0.20133-0.12818-0.33135-0.28484zm9.3049-0.75959c-0.13002-0.15666-0.19367-0.28484-0.14145-0.28484 0.0522 0 0.20133 0.12818 0.33135 0.28484 0.13002 0.15666 0.19367 0.28484 0.14145 0.28484-0.0522 0-0.20133-0.12818-0.33135-0.28484zm-77.273-1.1552c0.0091-0.22122 0.05411-0.26622 0.11473-0.11473 0.05486 0.13708 0.04811 0.30087-0.01498 0.36397-0.0631 0.0631-0.10798-0.04906-0.09974-0.24924zm115.34-8.7194c4e-5 -4.5955 0.0248-6.4483 0.055-4.1173 0.0302 2.331 0.0302 6.0909-8e-5 8.3554-0.0303 2.2645-0.055 0.35739-0.055-4.2381zm-102.55 7.4534-0.36175-0.42727 0.42727 0.36175c0.235 0.19896 0.42727 0.39123 0.42727 0.42727 0 0.15196-0.15282 0.03977-0.49278-0.36175zm-1.3293-1.3293-0.36175-0.42727 0.42727 0.36175c0.40152 0.33996 0.51372 0.49278 0.36175 0.49278-0.03603 0-0.2283-0.19227-0.42727-0.42727zm-19.763-0.9886c0-0.15207 0.0726-0.23162 0.16135-0.17677 0.08874 0.05484 0.11218 0.17926 0.05209 0.27649-0.15355 0.24846-0.21344 0.22048-0.21344-0.09972zm25.383-6.8446c3.1842-3.1855 5.8322-5.7918 5.8845-5.7918 0.05222 0-2.5103 2.6063-5.6946 5.7918-3.1842 3.1855-5.8322 5.7918-5.8845 5.7918-0.05222 0 2.5103-2.6063 5.6946-5.7918zm71.971 3.6935c0-0.05222 0.6409-0.73157 1.4242-1.5097 0.78333-0.7781 1.4242-1.372 1.4242-1.3198 0 0.05222-0.6409 0.73157-1.4242 1.5097-0.78332 0.7781-1.4242 1.372-1.4242 1.3198zm-12.723-0.18471c0-0.05222 1.41-1.503 3.1333-3.2239s3.1333-3.0862 3.1333-3.034c0 0.05222-1.41 1.503-3.1333 3.2239-1.7233 1.7209-3.1333 3.0862-3.1333 3.034zm-100.16-2.4087c-0.10305-0.27064-0.08124-0.29245 0.1063-0.1063 0.12978 0.12881 0.18812 0.28204 0.12966 0.34051-0.05847 0.05847-0.16465-0.04693-0.23596-0.2342zm116.01-0.43546c-0.0645-0.10444-0.0269-0.1899 0.0837-0.1899 0.11061 0 0.20111 0.08545 0.20111 0.1899 0 0.10444-0.0377 0.1899-0.0837 0.1899-0.0461 0-0.13656-0.08545-0.20111-0.1899zm-24.402-0.64139c0-0.03943 0.14954-0.18898 0.33232-0.33232 0.30118-0.23621 0.3079-0.22949 0.0717 0.0717-0.24807 0.31632-0.40401 0.41691-0.40401 0.26062zm-76.641-2.2545-0.36175-0.42727 0.42727 0.36175c0.40152 0.33996 0.51372 0.49278 0.36175 0.49278-0.03603 0-0.2283-0.19227-0.42727-0.42727zm-15.838-0.13121c0-0.09828 0.08447-0.2309 0.18772-0.29471 0.10764-0.06653 0.13948 0.0097 0.07463 0.17869-0.12624 0.32898-0.26235 0.38917-0.26235 0.11602zm46.791-4.6162-0.36175-0.42727 0.42727 0.36175c0.40152 0.33996 0.51372 0.49278 0.36175 0.49278-0.03604 0-0.2283-0.19227-0.42727-0.42727zm-1.3293-1.3293-0.36175-0.42727 0.42727 0.36175c0.235 0.19896 0.42727 0.39123 0.42727 0.42727 0 0.15197-0.15283 0.03977-0.49278-0.36175zm93.528-0.09495-0.46037-0.52222 0.52222 0.46037c0.28721 0.2532 0.52221 0.4882 0.52221 0.52222 0 0.14893-0.15378 0.02772-0.58406-0.46037zm18.244 0.26062c0-0.03943 0.14955-0.18898 0.33232-0.33232 0.30119-0.23621 0.30791-0.22949 0.0717 0.0717-0.24808 0.31632-0.40402 0.41691-0.40402 0.26062zm-115.85-4.2554-3.5042-3.5536 3.4284 3.379c2.731 2.6916 3.5036 3.3543 3.7979 3.2578 0.21369-0.07008 0.28945-0.05263 0.17964 0.04136-0.10444 0.0894-0.23661 0.22251-0.29372 0.29581-0.0571 0.07329-1.6807-1.4659-3.608-3.4203zm76.297 2.9743c0.12881-0.12978 0.28204-0.18812 0.34051-0.12966 0.0585 0.05847-0.0469 0.16465-0.23421 0.23596-0.27064 0.10305-0.29245 0.08124-0.1063-0.1063zm11.824 0.02356c-0.17115-0.11061-0.19458-0.18524-0.0587-0.18699 0.12439-0.0015 0.27897 0.08255 0.34352 0.18699 0.14571 0.23576 0.08 0.23576-0.28484 0zm7.925-0.02356c0.12881-0.12978 0.28204-0.18812 0.34051-0.12966 0.0585 0.05847-0.0469 0.16465-0.23421 0.23596-0.27064 0.10305-0.29245 0.08124-0.1063-0.1063zm21.604 0.02356c-0.0645-0.10444-0.0319-0.1899 0.0725-0.1899 0.10445 0 0.24271 0.08545 0.30726 0.1899 0.0645 0.10444 0.0319 0.1899-0.0725 0.1899-0.10445 0-0.24271-0.08545-0.30726-0.1899zm-66.369-1.0444c0.2453-0.26111 0.48873-0.47474 0.54095-0.47474 0.0522 0-0.10575 0.21363-0.35105 0.47474s-0.48872 0.47474-0.54094 0.47474c-0.0522 0 0.10574-0.21363 0.35104-0.47474zm18.084-0.47474c0-0.36555 0.0391-0.51509 0.0868-0.33232 0.0478 0.18278 0.0478 0.48186 0 0.66464s-0.0868 0.03323-0.0868-0.33232zm-8.7793-8.8302c4.6468-4.6477 8.4915-8.4504 8.5437-8.4504 0.0522 0-3.707 3.8027-8.3538 8.4504-4.6468 4.6477-8.4915 8.4504-8.5437 8.4504-0.0522 0 3.707-3.8027 8.3538-8.4504zm11.928 8.1308c0.13708-0.05485 0.30087-0.04811 0.36397 0.01498 0.0631 0.0631-0.0491 0.10798-0.24924 0.09974-0.22122-0.0091-0.26621-0.05411-0.11473-0.11473zm-115.94-1.0097c0-0.46999 0.03703-0.66226 0.0823-0.42727 0.04526 0.235 0.04526 0.61954 0 0.85453s-0.0823 0.04273-0.0823-0.42727zm17.974 0.23737-0.46037-0.52222 0.52222 0.46037c0.48809 0.43028 0.6093 0.58406 0.46037 0.58406-0.03401 0-0.26901-0.235-0.52222-0.52222zm110.12 0.3925c0.13708-0.05485 0.30086-0.04811 0.36397 0.01498 0.0631 0.0631-0.0491 0.10798-0.24924 0.09974-0.22122-0.0091-0.26622-0.05411-0.11473-0.11473zm5.0679-0.25007c0.18904-0.20889 0.38643-0.37979 0.43866-0.37979 0.0522 0-0.0597 0.17091-0.24877 0.37979-0.18904 0.20889-0.38643 0.37979-0.43865 0.37979-0.0522 0 0.0597-0.17091 0.24876-0.37979zm-8.4504 0.1182c0-0.03943 0.14954-0.18898 0.33231-0.33232 0.30119-0.23621 0.30791-0.22949 0.0717 0.0717-0.24807 0.31632-0.40401 0.41691-0.40401 0.26062zm22.575-0.5395c0.0874-0.52733 0.11417-0.55407 0.17396-0.17396 0.0389 0.24704-8e-3 0.52745-0.1033 0.62313-0.10535 0.10535-0.13322-0.0718-0.0707-0.44917zm22.445 0.31053c9e-3 -0.22122 0.0541-0.26622 0.11473-0.11473 0.0549 0.13708 0.0481 0.30087-0.015 0.36397-0.0631 0.0631-0.10799-0.04906-0.0997-0.24924zm9.3199-0.07912c0-0.26111 0.0431-0.36792 0.0958-0.23737 0.0527 0.13055 0.0527 0.34419 0 0.47474s-0.0958 0.02374-0.0958-0.23737zm-62.731 0.06018c0.13708-0.05486 0.30086-0.04811 0.36396 0.01499s-0.049 0.10798-0.24924 0.09974c-0.22121-0.0091-0.26621-0.05411-0.11472-0.11473zm35.181-0.17095c9e-3 -0.22122 0.0541-0.26622 0.11473-0.11473 0.0548 0.13708 0.0481 0.30087-0.015 0.36397-0.0631 0.0631-0.10798-0.04906-0.0997-0.24924zm-31.713-0.1899c9e-3 -0.22122 0.0541-0.26622 0.11473-0.11473 0.0548 0.13708 0.0481 0.30087-0.015 0.36397-0.0631 0.0631-0.10798-0.04906-0.0997-0.24924zm4.9223 0.03908c0-0.03943 0.14954-0.18898 0.33231-0.33232 0.30119-0.23621 0.30791-0.22949 0.0717 0.0717-0.24807 0.31632-0.40401 0.41691-0.40401 0.26062zm6.6904-0.49799c0-0.36555 0.0391-0.51509 0.0868-0.33232 0.0478 0.18278 0.0478 0.48186 0 0.66464s-0.0868 0.03323-0.0868-0.33232zm1.665 0.49799c0-0.03943 0.14954-0.18898 0.33232-0.33232 0.30119-0.23621 0.3079-0.22949 0.0717 0.0717-0.24808 0.31632-0.40402 0.41691-0.40402 0.26062zm31.205-1.1626c-7.6e-4 -0.7311 0.0328-1.0535 0.0747-0.71635s0.0426 0.93528 2e-3 1.3293c-0.0411 0.39399-0.0754 0.11817-0.0763-0.61293zm-49.8 0.74376c9e-3 -0.22122 0.0541-0.26622 0.11473-0.11473 0.0549 0.13708 0.0481 0.30087-0.015 0.36397-0.0631 0.0631-0.10798-0.04906-0.0997-0.24924zm-1.5042-0.26902c0-0.26111 0.0431-0.36792 0.0958-0.23737s0.0527 0.34419 0 0.47474c-0.0527 0.13055-0.0958 0.02374-0.0958-0.23737zm30.967-0.1899c0-0.36555 0.0391-0.51509 0.0868-0.33232 0.0478 0.18278 0.0478 0.48186 0 0.66464-0.0478 0.18278-0.0868 0.03323-0.0868-0.33232zm29.814 0c0-0.36555 0.0391-0.51509 0.0868-0.33232 0.0478 0.18278 0.0478 0.48186 0 0.66464-0.0478 0.18278-0.0868 0.03323-0.0868-0.33232zm1.8849 0.1899c0-0.26111 0.0431-0.36792 0.0958-0.23737s0.0527 0.34419 0 0.47474c-0.0527 0.13055-0.0958 0.02374-0.0958-0.23737zm-166.95-8.308-8.4496-8.4979 8.4979 8.4496c7.8986 7.8537 8.5832 8.5461 8.4496 8.5461-0.02655 0-3.8506-3.824-8.4979-8.4979zm160.31 8.0231c4e-3 -0.31333 0.0464-0.41852 0.0946-0.23376 0.0482 0.18476 0.045 0.44112-7e-3 0.56969s-0.0914-0.0226-0.0875-0.33593zm-15.214-0.01582c9e-3 -0.22122 0.0541-0.26622 0.11473-0.11473 0.0549 0.13708 0.0481 0.30087-0.015 0.36397-0.0631 0.0631-0.10798-0.04906-0.0997-0.24924zm-29.975-0.45892c0-0.36555 0.0391-0.51509 0.0868-0.33232 0.0478 0.18278 0.0478 0.48186 0 0.66464s-0.0868 0.03323-0.0868-0.33232zm19.373-0.09495c-2e-3 -0.41777 0.0351-0.61104 0.0826-0.42948 0.0475 0.18156 0.0493 0.52337 4e-3 0.75958-0.0454 0.23621-0.0843 0.08767-0.0864-0.3301zm21.805 0.36397c9e-3 -0.22122 0.0541-0.26622 0.11473-0.11473 0.0549 0.13708 0.0481 0.30087-0.015 0.36397-0.0631 0.0631-0.10798-0.04906-0.0997-0.24924zm-47.255-0.64882c0-0.36555 0.0391-0.51509 0.0868-0.33232 0.0478 0.18278 0.0478 0.48186 0 0.66464s-0.0868 0.03323-0.0868-0.33232zm44.914 0.44392c0.13055-0.05268 0.34418-0.05268 0.47474 0 0.13055 0.05268 0.0237 0.09578-0.23737 0.09578-0.26111 0-0.36793-0.0431-0.23737-0.09578zm6.329-0.5547c9e-3 -0.22122 0.0541-0.26622 0.11473-0.11473 0.0549 0.13708 0.0481 0.30087-0.015 0.36397-0.0631 0.0631-0.10798-0.04906-0.0997-0.24924zm10.087-0.17407c4e-3 -0.31333 0.0464-0.41852 0.0946-0.23376 0.0481 0.18476 0.045 0.44112-7e-3 0.56969s-0.0914-0.0226-0.0875-0.33593zm-59.318-0.34672c-0.0707-0.34653-0.0442-0.47139 0.0747-0.35249 0.10127 0.10127 0.1505 0.34274 0.10941 0.53661-0.0553 0.26107-0.1031 0.21332-0.18413-0.18412zm-119.95-0.12802c0-0.26111 0.0431-0.36792 0.09578-0.23737 0.05268 0.13055 0.05268 0.34419 0 0.47474-0.05268 0.13055-0.09578 0.02374-0.09578-0.23737zm122.79-0.60168c0.11035-0.11035 0.31273-0.16327 0.44973-0.11761 0.14222 0.04741 0.0561 0.13349-0.20064 0.20064-0.31586 0.0826-0.39 0.05789-0.24909-0.08303zm-8.0916-0.3478c0-0.26111 0.0431-0.36792 0.0958-0.23737 0.0527 0.13055 0.0527 0.34419 0 0.47474-0.0527 0.13055-0.0958 0.02374-0.0958-0.23737zm29.024 0.33135c0-0.05222 0.12057-0.19501 0.26793-0.31732 0.20644-0.17132 0.30061-0.16576 0.41024 0.02422 0.0783 0.13562 0.0724 0.18324-0.0131 0.10582-0.0855-0.07743-0.27007-0.0456-0.41024 0.07073-0.14016 0.11632-0.25483 0.16877-0.25483 0.11655zm3.8279-0.33135c0-0.26111 0.0431-0.36792 0.0958-0.23737 0.0527 0.13055 0.0527 0.34419 0 0.47474-0.0527 0.13055-0.0958 0.02374-0.0958-0.23737zm10.379 0.25007c0.13708-0.05486 0.30086-0.04811 0.36396 0.01499s-0.049 0.10798-0.24923 0.09974c-0.22122-0.0091-0.26622-0.05411-0.11473-0.11473zm13.293 0c0.13708-0.05486 0.30087-0.04811 0.36397 0.01499s-0.0491 0.10798-0.24924 0.09974c-0.22122-0.0091-0.26622-0.05411-0.11473-0.11473zm-41.566-0.86724c0.20704-0.27496 0.20704-0.38968 0-0.66464-0.2383-0.31649-0.23295-0.31649 0.11239 0 0.35689 0.32707 0.35689 0.33757 0 0.66464-0.34534 0.3165-0.35069 0.3165-0.11239 0zm-18.109-1.3375c0.0713-0.18728 0.1775-0.29267 0.23596-0.2342 0.0585 0.05847 1.3e-4 0.2117-0.12965 0.34051-0.18755 0.18615-0.20936 0.16434-0.10631-0.1063zm0.66742-1.5743c9e-3 -0.22122 0.0541-0.26622 0.11473-0.11473 0.0549 0.13708 0.0481 0.30087-0.015 0.36397-0.0631 0.0631-0.10798-0.04906-0.0997-0.24924zm-110.64-0.28165c-0.06884-0.11139-0.08444-0.24326-0.03467-0.29304 0.04978-0.04978 0.14111 0.04136 0.20295 0.20253 0.1284 0.33462 0.01896 0.39348-0.16828 0.0905zm-0.64184-1.6173c0.0091-0.22122 0.05411-0.26622 0.11473-0.11473 0.05486 0.13708 0.04811 0.30087-0.01499 0.36397-0.0631 0.0631-0.10798-0.04906-0.09974-0.24924zm111.97-0.09435c0.0671-0.25678 0.15322-0.34286 0.20063-0.20064 0.0457 0.137-7e-3 0.33938-0.1176 0.44972-0.14092 0.14092-0.16563 0.06677-0.083-0.24909zm0.28233-0.83931c2e-3 -0.20889 0.0688-0.63615 0.1485-0.94948 0.13021-0.51172 0.14532-0.52138 0.1485-0.09495 2e-3 0.26111-0.0649 0.68838-0.1485 0.94948-0.11914 0.372-0.15127 0.39255-0.1485 0.09495zm-112.96-0.95767c-0.06185-0.16117-0.07002-0.33546-0.01816-0.38732 0.05186-0.05186 0.13987 0.08 0.19558 0.29303 0.11833 0.45251-0.01315 0.52238-0.17742 0.09429zm-0.35037-1.416c-0.07296-0.43185-0.09282-0.82501-0.04414-0.87369 0.04868-0.04868 0.14545 0.26757 0.21505 0.70278 0.06959 0.43521 0.08946 0.82838 0.04414 0.87369-0.04532 0.04532-0.14209-0.27094-0.21505-0.70278zm113.51-2.8484c0-0.36555 0.0391-0.51509 0.0868-0.33232 0.0478 0.18278 0.0478 0.48186 0 0.66464-0.0478 0.18278-0.0868 0.03323-0.0868-0.33232zm-113.56-1.899c0-0.36555 0.03908-0.51509 0.08684-0.33232s0.04776 0.48186 0 0.66464-0.08684 0.03323-0.08684-0.33232z"/>
<path d="m81.253 104.29c0-0.0522 0.89726-0.98915 1.9939-2.0821 1.0967-1.0929 1.9939-1.9444 1.9939-1.8922 0 0.0522-0.89726 0.98915-1.9939 2.0821-1.0967 1.0929-1.9939 1.9444-1.9939 1.8922zm4.5575-4.6457c0.2453-0.26111 0.48872-0.47475 0.54094-0.47475 0.05222 0-0.10575 0.21364-0.35105 0.47475-0.2453 0.2611-0.48872 0.47474-0.54094 0.47474-0.05222 0 0.10575-0.21364 0.35105-0.47474zm-13.87-2.706-0.8466-0.90201 0.90201 0.8466c0.83843 0.78692 0.98919 0.95742 0.8466 0.95742-0.03048 0-0.43638-0.4059-0.90201-0.90201zm7.1291-0.61716c0.7255-0.7311 1.3618-1.3293 1.414-1.3293 0.05222 0-0.49864 0.59818-1.2241 1.3293-0.7255 0.7311-1.3618 1.3293-1.414 1.3293-0.05222 0 0.49864-0.59817 1.2241-1.3293zm9.21-9.21c3.8111-3.8122 6.972-6.9312 7.0242-6.9312 0.05222 0-3.0232 3.119-6.8343 6.9312-3.8111 3.8122-6.972 6.9312-7.0242 6.9312-0.05222 0 3.0232-3.119 6.8343-6.9312zm-14.385 2.9912c1.7494-0.03134 4.6121-0.03134 6.3615 0s0.31808 0.05698-3.1808 0.05698c-3.4988 0-4.9302-0.02564-3.1808-0.05698zm45.385-0.1895c1.1228-0.03357 2.96-0.03357 4.0828 0 1.1228 0.03357 0.20414 0.06104-2.0414 0.06104-2.2455 0-3.1642-0.02747-2.0414-0.06104zm15.477-3.8e-4c1.9061-0.03097 5.0251-0.03097 6.9312 0 1.9061 0.03097 0.34656 0.05632-3.4656 0.05632s-5.3717-0.02534-3.4656-0.05632zm19.641-1.52e-4c3.2041-0.02918 8.5022-0.02919 11.774-4.3e-5 3.2714 0.02915 0.64985 0.05302-5.8256 0.05305-6.4755 2.3e-5 -9.152-0.02383-5.948-0.053zm25.756 1.9e-4c1.5992-0.0318 4.1628-0.03173 5.6969 1.56e-4 1.5341 0.03188 0.22563 0.0579-2.9077 0.05781-3.1333-8.5e-5 -4.3884-0.02617-2.7892-0.05797zm-68.518-5.5074-5.4108-5.4595 5.4595 5.4108c5.0736 5.0283 5.545 5.5082 5.4108 5.5082-0.0268 0-2.4836-2.4568-5.4595-5.4595zm-27.633-9.6372c1.6e-5 -8.1466 0.02341-11.452 0.05199-7.3444 0.02858 4.1071 0.02856 10.773-2.9e-5 14.812-0.02859 4.0394-0.05197 0.67902-0.05196-7.4675zm39.598 5.1475c0-0.04105 0.13262-0.12552 0.29471-0.18772 0.169-0.06485 0.24522-0.03301 0.17869 0.07463-0.11152 0.18044-0.4734 0.26689-0.4734 0.11309zm-7.7858-1.3496c-0.13002-0.15666-0.19367-0.28485-0.14145-0.28485 0.0522 0 0.20133 0.12818 0.33135 0.28485 0.13002 0.15666 0.19367 0.28484 0.14145 0.28484-0.0522 0-0.20133-0.12818-0.33135-0.28484zm-10.444-0.37979c-0.13002-0.15666-0.19367-0.28484-0.14145-0.28484 0.0522 0 0.20133 0.12818 0.33135 0.28484s0.19367 0.28485 0.14145 0.28485c-0.0522 0-0.20133-0.12818-0.33135-0.28485zm-7.9187-1.2343c0-0.57444 0.0356-0.80943 0.07911-0.52222 0.04351 0.28722 0.04351 0.75721 0 1.0444s-0.07911 0.05222-0.07911-0.52222zm17.224 0.47474c-0.13002-0.15666-0.19367-0.28484-0.14145-0.28484 0.0522 0 0.20133 0.12818 0.33135 0.28484 0.13002 0.15667 0.19367 0.28485 0.14145 0.28485-0.0522 0-0.20133-0.12818-0.33135-0.28485zm-65.894-4.7474c0.2453-0.26111 0.48872-0.47474 0.54094-0.47474 0.05222 0-0.10575 0.21363-0.35105 0.47474-0.2453 0.26111-0.48872 0.47474-0.54095 0.47474-0.05222 0 0.10575-0.21363 0.35105-0.47474zm48.693-5.1272c1.67e-4 -2.0889 0.02805-2.9175 0.06196-1.8414 0.03391 1.0761 0.03377 2.7852-3.8e-4 3.7979-0.034 1.0128-0.06175 0.13232-0.06158-1.9565zm-57.049 3.4892c0-0.05222 0.25636-0.34056 0.56969-0.64074 0.31333-0.30019 0.56969-0.50307 0.56969-0.45085 0 0.05222-0.25636 0.34056-0.56969 0.64074-0.31333 0.30019-0.56969 0.50307-0.56969 0.45085zm70.262-7.6669c3.4977-3.4988 6.4021-6.3615 6.4544-6.3615 0.0522 0-2.7668 2.8627-6.2645 6.3615s-6.4021 6.3615-6.4544 6.3615c-0.0522 0 2.7668-2.8627 6.2645-6.3615zm-65.514 2.8484c0.88315-0.88777 1.6485-1.6141 1.7007-1.6141 0.05222 0-0.62763 0.72635-1.5108 1.6141-0.88315 0.88777-1.6485 1.6141-1.7007 1.6141-0.05222 0 0.62763-0.72635 1.5108-1.6141zm80.175-1.0919 0.0382-1.5666 0.0648 1.4779c0.0449 1.0229 0.12984 1.4377 0.27597 1.3474 0.12792-0.07906 0.15773-0.04408 0.0756 0.08875-0.33992 0.55-0.49009 0.10496-0.45466-1.3474zm15.818-7.1686c0.18904-0.20889 0.38643-0.37979 0.43866-0.37979 0.0522 0-0.0597 0.17091-0.24877 0.37979-0.18904 0.20889-0.38643 0.37979-0.43865 0.37979-0.0522 0 0.0597-0.17091 0.24876-0.37979zm-54.975-0.75959c-0.17115-0.11061-0.19457-0.18524-0.05868-0.18699 0.12439-0.0015 0.27898 0.08255 0.34353 0.18699 0.14571 0.23576 0.07997 0.23576-0.28484 0zm-25.114-0.14176c1.175-0.03332 3.0977-0.03332 4.2727 0 1.175 0.03332 0.21363 0.06058-2.1363 0.06058s-3.3113-0.02726-2.1363-0.06058zm18.42 0c1.175-0.03332 3.0977-0.03332 4.2727 0 1.175 0.03332 0.21363 0.06058-2.1363 0.06058-2.35 0-3.3113-0.02726-2.1363-0.06058zm82.368-0.04814-10.444-0.09982 10.386-0.04504c6.7679-0.02935 10.427 0.02111 10.503 0.14486 0.0645 0.10444 0.091 0.16963 0.0587 0.14486s-4.7586-0.08996-10.503-0.14486zm-68.79-0.14218c2.0628-0.03066 5.4382-0.03066 7.5009 0 2.0628 0.03066 0.37504 0.05574-3.7505 0.05574-4.1255 0-5.8132-0.02508-3.7505-0.05574zm27.44 6.8e-5c1.8016-0.03121 4.7498-0.03121 6.5514 0 1.8016 0.03121 0.32757 0.05675-3.2757 0.05675-3.6033 0-5.0774-0.02554-3.2757-0.05675zm13.874 5.6e-5c1.4946-0.03212 3.8873-0.03204 5.3171 1.75e-4 1.4298 0.03222 0.20689 0.0585-2.7175 0.0584-2.9244-9.5e-5 -4.0942-0.02646-2.5996-0.05858zm44.519-1.64e-4c2.2716-0.03029 5.9889-0.03029 8.2605 0 2.2716 0.03029 0.41302 0.05508-4.1302 0.05508s-6.4019-0.02478-4.1302-0.05508zm9.9221-2.7062c0.18904-0.20889 0.38644-0.37979 0.43866-0.37979 0.0522 0-0.0597 0.17091-0.24876 0.37979-0.18904 0.20889-0.38644 0.37979-0.43866 0.37979-0.0522 0 0.0597-0.17091 0.24876-0.37979zm-3.0816-0.56969c0-0.46999 0.037-0.66226 0.0823-0.42727s0.0453 0.61954 0 0.85453-0.0823 0.04273-0.0823-0.42727zm-30.595 0.1899c0-0.26111 0.0431-0.36792 0.0958-0.23737s0.0527 0.34419 0 0.47474-0.0958 0.02374-0.0958-0.23737zm18.833 0.08659c0-0.15207 0.0712-0.27649 0.15825-0.27649 0.087 0 0.15824 0.08041 0.15824 0.17869s-0.0712 0.2227-0.15824 0.27649c-0.087 0.05379-0.15825-0.02662-0.15825-0.17869zm2.2525-0.56134c4e-3 -0.31333 0.0464-0.41852 0.0946-0.23376s0.045 0.44112-7e-3 0.56969-0.0914-0.0226-0.0875-0.33593zm3.9658 0.17407c9e-3 -0.22122 0.0541-0.26622 0.11473-0.11473 0.0549 0.13708 0.0481 0.30087-0.015 0.36397-0.0631 0.0631-0.10798-0.04906-0.0997-0.24924zm0.79632-0.45892c0-0.46999 0.037-0.66226 0.0823-0.42727s0.0453 0.61954 0 0.85453-0.0823 0.04273-0.0823-0.42727zm-37.607-0.1899c0-0.36555 0.0391-0.51509 0.0868-0.33232 0.0478 0.18278 0.0478 0.48186 0 0.66464-0.0478 0.18278-0.0868 0.03323-0.0868-0.33232zm-11.591-0.09495c4e-3 -0.31333 0.0464-0.41852 0.0946-0.23376 0.0481 0.18476 0.045 0.44112-7e-3 0.56969s-0.0914-0.0226-0.0875-0.33593zm30.251 0.28484c0.0645-0.10444 0.15505-0.1899 0.2011-0.1899 0.0461 0 0.0837 0.08545 0.0837 0.1899 0 0.10444-0.0905 0.1899-0.2011 0.1899-0.11061 0-0.14829-0.08545-0.0837-0.1899zm27.47-0.56969c0-0.26111 0.0431-0.36792 0.0958-0.23737s0.0527 0.34419 0 0.47474-0.0958 0.02374-0.0958-0.23737zm-55.246-0.75958c0-0.36555 0.0391-0.5151 0.0868-0.33232 0.0478 0.18278 0.0478 0.48186 0 0.66464s-0.0868 0.03323-0.0868-0.33232zm20.875 0.1899c0-0.26111 0.0431-0.36792 0.0958-0.23737 0.0527 0.13055 0.0527 0.34419 0 0.47474-0.0527 0.13055-0.0958 0.02374-0.0958-0.23737zm-20.144-0.49057c9e-3 -0.22122 0.0541-0.26622 0.11472-0.11473 0.0549 0.13708 0.0481 0.30087-0.015 0.36397-0.0631 0.0631-0.10798-0.04906-0.0997-0.24924zm-10.587-10.618c-7.6e-4 -0.7311 0.0328-1.0535 0.0747-0.71635 0.0419 0.33711 0.0426 0.93528 2e-3 1.3293-0.0411 0.39399-0.0754 0.11817-0.0763-0.61293zm-113.56-1.899c-8.43e-4 -0.7311 0.03279-1.0535 0.07474-0.71635 0.04195 0.33711 0.04264 0.93528 0.0015 1.3293-0.04111 0.39399-0.07543 0.11817-0.07627-0.61293z"/>
<path d="m30.171 95.874c0-0.0394 0.14954-0.18898 0.33232-0.33232 0.30119-0.23621 0.3079-0.22949 0.0717 0.0717-0.24808 0.31632-0.40402 0.41691-0.40402 0.26062zm30.763-9.8979c-5.1691-5.1699-9.3557-9.3999-9.3035-9.3999 0.05222 0 4.3242 4.2299 9.4934 9.3999 5.1691 5.1699 9.3557 9.3999 9.3035 9.3999-0.05222 0-4.3242-4.2299-9.4934-9.3999zm14.005-2.5128c0.44388-0.03998 1.1702-0.03998 1.6141 0s0.08071 0.07269-0.80706 0.07269c-0.88777 0-1.2509-0.03271-0.80706-0.07269zm-4.2273-3.3266-3.2261-3.2757 3.2757 3.2261c1.8016 1.7744 3.2757 3.2484 3.2757 3.2757 0 0.13541-0.32801-0.18282-3.3253-3.2261zm51.417 3.1343c0.91387-0.03481 2.4093-0.03481 3.3232 0 0.91387 0.03481 0.16615 0.06329-1.6616 0.06329s-2.5755-0.02848-1.6616-0.06329zm-44.773-13.056c1.9e-5 -7.2066 0.02365-10.127 0.05253-6.4901 0.02887 3.637 0.02885 9.5333-3.6e-5 13.103-0.02889 3.5695-0.05251 0.59377-0.05249-6.6128zm-33.607 8.4504c-1.564-1.5666-2.801-2.8484-2.7488-2.8484 0.05222 0 1.3746 1.2818 2.9386 2.8484 1.564 1.5666 2.801 2.8484 2.7488 2.8484-0.05222 0-1.3746-1.2818-2.9386-2.8484zm52.981 0c0.40794-0.41777 0.78444-0.75959 0.83666-0.75959 0.05222 0-0.23882 0.34181-0.64677 0.75959s-0.78444 0.75959-0.83666 0.75959c-0.05222 0 0.23883-0.34181 0.64677-0.75959zm7.3941-13.767c1e-4 -2.82 0.0266-3.9471 0.0589-2.5048 0.0323 1.4423 0.0322 3.7496-1.8e-4 5.1272-0.0324 1.3776-0.0588 0.19753-0.0587-2.6224zm10.076-7.1211c4.0723-4.0733 7.4469-7.406 7.4991-7.406 0.0522 0-3.2369 3.3327-7.3092 7.406-4.0723 4.0733-7.4469 7.406-7.4991 7.406-0.0522 0 3.2369-3.3327 7.3092-7.406zm-64.947 4.4152 1.7036-1.7564-1.6086-1.6617-1.6086-1.6617 1.7063 1.6616 1.7063 1.6616-1.8014 1.7565-1.8014 1.7565zm128.75 1.4716-1.7091-0.11813 1.6504-0.03589c0.93633-0.02036 1.7012 0.04628 1.7678 0.15401 0.0645 0.10444 0.091 0.17375 0.0587 0.15401-0.0323-0.01974-0.82776-0.08904-1.7678-0.15401zm-85.501-0.14139c0.91388-0.03481 2.4093-0.03481 3.3232 0 0.91388 0.03481 0.16616 0.06329-1.6616 0.06329-1.8278 0-2.5755-0.02848-1.6616-0.06329zm29.141 9.5e-4c0.64842-0.03697 1.7593-0.03724 2.4686-5.69e-4 0.70934 0.03664 0.17881 0.06688-1.179 0.06722-1.3578 3.8e-4 -1.9381-0.02964-1.2897-0.06661zm65.623 5.7e-4c0.49925-0.03925 1.2683-0.03877 1.7091 0.0011 0.44074 0.03982 0.0323 0.07194-0.90773 0.07136-0.93999-5.69e-4 -1.3006-0.03316-0.80133-0.07241zm-166.31-7.6459c-4.0723-4.0733-7.3614-7.406-7.3092-7.406 0.05222 0 3.4268 3.3327 7.4991 7.406s7.3614 7.406 7.3092 7.406c-0.05222 0-3.4268-3.3327-7.4991-7.406zm141.19 1.9939c-0.13002-0.15667-0.19368-0.28485-0.14145-0.28485 0.0522 0 0.20132 0.12818 0.33134 0.28485 0.13002 0.15666 0.19368 0.28484 0.14146 0.28484-0.0522 0-0.20133-0.12818-0.33135-0.28484zm-18.076-1.9337c0.13708-0.05486 0.30087-0.04811 0.36397 0.01498 0.0631 0.0631-0.0491 0.10798-0.24924 0.09974-0.22122-0.0091-0.26622-0.05411-0.11473-0.11473zm-20.078-1.6901c9e-3 -0.22122 0.0541-0.26622 0.11473-0.11473 0.0549 0.13708 0.0481 0.30087-0.015 0.36397-0.0631 0.0631-0.10799-0.04906-0.0997-0.24924zm7.7858-0.75959c9e-3 -0.22122 0.0541-0.26622 0.11472-0.11473 0.0549 0.13708 0.0481 0.30087-0.015 0.36397-0.0631 0.0631-0.10798-0.04906-0.0997-0.24924zm2.5054-0.45892c0-0.46999 0.037-0.66226 0.0823-0.42727s0.0453 0.61954 0 0.85453-0.0823 0.04273-0.0823-0.42727zm48.979-0.28484c4e-3 -0.31333 0.0464-0.41852 0.0946-0.23376 0.0481 0.18476 0.045 0.44112-7e-3 0.56969s-0.0914-0.0226-0.0875-0.33593zm-46.518-0.47474c0-0.36555 0.0391-0.51509 0.0868-0.33232 0.0478 0.18278 0.0478 0.48186 0 0.66464-0.0478 0.18278-0.0868 0.03323-0.0868-0.33232zm25.456-0.28484c2e-3 -0.52222 0.0383-0.71331 0.082-0.42466 0.0436 0.28866 0.0425 0.71592-3e-3 0.94948-0.0451 0.23356-0.0808-0.0026-0.0794-0.52483zm23.545 0.09495c0-0.46999 0.037-0.66226 0.0823-0.42727 0.0453 0.235 0.0453 0.61954 0 0.85454-0.0453 0.235-0.0823 0.04273-0.0823-0.42727zm-174.55 0.26902c0.0091-0.22122 0.05411-0.26622 0.11473-0.11473 0.05486 0.13708 0.04811 0.30087-0.01499 0.36397s-0.10798-0.04906-0.09974-0.24924zm132.17-0.3798c9e-3 -0.22122 0.0541-0.26622 0.11473-0.11473 0.0549 0.13708 0.0481 0.30087-0.015 0.36397-0.0631 0.0631-0.10799-0.04906-0.0997-0.24924zm37.614-0.07912c0-0.26111 0.0431-0.36792 0.0958-0.23737 0.0527 0.13055 0.0527 0.34419 0 0.47474-0.0527 0.13055-0.0958 0.02374-0.0958-0.23737zm8.5453-0.1899c0-0.26111 0.0431-0.36792 0.0958-0.23737s0.0527 0.34419 0 0.47474-0.0958 0.02374-0.0958-0.23737zm-5.9168 0.1182c0-0.03943 0.14954-0.18898 0.33232-0.33232 0.30119-0.23621 0.3079-0.22949 0.0717 0.0717-0.24808 0.31632-0.40402 0.41691-0.40402 0.26062zm-28.469-0.60877c9e-3 -0.22122 0.0541-0.26622 0.11473-0.11473 0.0549 0.13708 0.0481 0.30087-0.015 0.36397-0.0631 0.0631-0.10799-0.04906-0.0997-0.24924zm-15.827-0.01379c0.12857-0.05202 0.38493-0.05518 0.56969-7e-3 0.18477 0.04815 0.0796 0.09071-0.23375 0.09458-0.31333 0.0039-0.4645-0.03552-0.33594-0.08754zm6.7924-0.63503c-0.0645-0.10444-0.0269-0.1899 0.0837-0.1899s0.2011 0.08545 0.2011 0.1899c0 0.10444-0.0377 0.1899-0.0837 0.1899-0.0461 0-0.13655-0.08545-0.2011-0.1899z"/>
<path d="m65.302 100.22c-0.13002-0.15667-0.19367-0.28485-0.14145-0.28485 0.05222 0 0.20133 0.12818 0.33135 0.28485 0.13002 0.15666 0.19368 0.28484 0.14145 0.28484-0.05222 0-0.20133-0.12818-0.33135-0.28484zm-9.5905-9.6372-9.1143-9.1625 9.1625 9.1143c5.0394 5.0129 9.1625 9.136 9.1625 9.1625 0 0.13351-0.739-0.59775-9.2107-9.1143zm-16.918 5.1272-0.36175-0.42726 0.42727 0.36175c0.235 0.19896 0.42727 0.39123 0.42727 0.42727 0 0.15196-0.15283 0.0398-0.49278-0.36176zm88.15-2.7693c-0.0538-0.087 0.0229-0.15825 0.17034-0.15825 0.14748 0 0.22413 0.0712 0.17033 0.15825-0.0538 0.087-0.13044 0.15825-0.17033 0.15825-0.0399 0-0.11655-0.0712-0.17034-0.15825zm-61.168-7.8649-4.9359-4.9848 4.9848 4.9359c2.7416 2.7148 4.9848 4.9579 4.9848 4.9848 0 0.1344-0.44681-0.30373-5.0336-4.9359zm104.92 3.9404c-0.13002-0.15666-0.19367-0.28484-0.14145-0.28484 0.0522 0 0.20133 0.12818 0.33135 0.28484 0.13002 0.15666 0.19367 0.28484 0.14145 0.28484-0.0522 0-0.20133-0.12818-0.33135-0.28484zm-0.86095-11.963c-3e-5 -5.6399 0.0242-7.9746 0.0537-5.1881 0.0296 2.7865 0.0296 7.401 5e-5 10.254-0.0296 2.8534-0.0538 0.5736-0.0538-5.0663zm9.8753-1.6141c0-6.4232 0.0239-9.0509 0.0531-5.8393s0.0292 8.467 0 11.679-0.0531 0.58393-0.0531-5.8393zm-19.749-1.9939c2e-5 -7.4155 0.0236-10.421 0.0524-6.6799s0.0288 9.8087-3e-5 13.483c-0.0288 3.6739-0.0524 0.61271-0.0524-6.8027zm-59.148 11.037c0-0.03943 0.14954-0.18898 0.33232-0.33232 0.30118-0.23621 0.3079-0.22949 0.0717 0.0717-0.24807 0.31632-0.40401 0.41691-0.40401 0.26062zm1.899-1.9222c0.67285-0.67888 1.2661-1.2343 1.3183-1.2343 0.0522 0-0.45557 0.55545-1.1284 1.2343-0.67285 0.67888-1.2661 1.2343-1.3183 1.2343-0.0522 0 0.45556-0.55545 1.1284-1.2343zm-52.795-7.6433-1.6099-1.6616 1.6616 1.6099c0.91388 0.88546 1.6616 1.6332 1.6616 1.6616 0 0.13817-0.21801-0.06669-1.7133-1.6099zm-7.4018-6.0292c0.5673-0.57444 1.0742-1.0444 1.1264-1.0444 0.05222 0-0.36921 0.46999-0.93651 1.0444-0.5673 0.57444-1.0742 1.0444-1.1264 1.0444-0.05222 0 0.36921-0.46999 0.93651-1.0444zm9.8746 0.02325c0-0.03943 0.14954-0.18898 0.33232-0.33232 0.30119-0.23621 0.3079-0.22949 0.0717 0.0717-0.24808 0.31632-0.40402 0.41691-0.40402 0.26062zm4.5598-4.5808c2.1398-2.1933 3.9297-3.963 3.9774-3.9327 0.04771 0.0303-1.7031 1.8248-3.8906 3.9878l-3.9774 3.9327zm48.991 1.7091c0.46127-0.46999 0.88139-0.85453 0.93361-0.85453 0.0522 0-0.28245 0.38454-0.74371 0.85453-0.46126 0.46999-0.88139 0.85453-0.93361 0.85453-0.0522 0 0.28245-0.38454 0.74371-0.85453zm63.883-3.1333c0-1.8278 0.0285-2.5755 0.0633-1.6616 0.0348 0.91388 0.0348 2.4093 0 3.3232s-0.0633 0.16616-0.0633-1.6616zm-140.61 1.1869-0.8466-0.90201 0.90201 0.8466c0.4961 0.46563 0.90201 0.87153 0.90201 0.90201 0 0.14259-0.17049-0.0082-0.95742-0.8466zm26.497-8.8302-4.746-4.7949 4.7949 4.746c2.6372 2.6103 4.7949 4.768 4.7949 4.7949 0 0.13448-0.43357-0.29033-4.8438-4.746zm96.641 2.6586-0.36175-0.42727 0.42726 0.36175c0.40153 0.33996 0.51372 0.49278 0.36175 0.49278-0.036 0-0.2283-0.19227-0.42726-0.42727zm-39.765-8.4029c4.1245-4.1255 7.5418-7.5009 7.5941-7.5009 0.0522 0-3.2796 3.3754-7.4042 7.5009-4.1245 4.1255-7.5418 7.5009-7.5941 7.5009-0.0522 0 3.2796-3.3754 7.4042-7.5009zm56.324 6.5831c-0.0538-0.08704 0.0229-0.15825 0.17034-0.15825 0.14747 0 0.22413 0.07121 0.17033 0.15825-0.0538 0.08704-0.13044 0.15825-0.17033 0.15825-0.0399 0-0.11655-0.07121-0.17034-0.15825zm-146.34-8.5295-7.5-7.5484 7.5484 7.5c7.0157 6.9708 7.6338 7.5968 7.5 7.5968-0.02661 0-3.4234-3.3968-7.5484-7.5484zm108.57 7.044c0.12856-0.05202 0.38492-0.05518 0.56969-7e-3 0.18476 0.04815 0.0796 0.09071-0.23376 0.09458-0.31333 0.0039-0.4645-0.03552-0.33593-0.08754zm6.2821-0.0052c0.13708-0.05486 0.30087-0.04811 0.36397 0.01498 0.0631 0.0631-0.0491 0.10798-0.24924 0.09974-0.22122-0.0091-0.26621-0.05411-0.11473-0.11473zm10.243 0.0039c0.13056-0.05268 0.34419-0.05268 0.47474 0 0.13056 0.05268 0.0237 0.09578-0.23737 0.09578-0.2611 0-0.36792-0.0431-0.23737-0.09578zm2.4687 0c0.13055-0.05268 0.34418-0.05268 0.47474 0 0.13055 0.05268 0.0237 0.09578-0.23737 0.09578-0.26111 0-0.36793-0.0431-0.23737-0.09578zm8.5476-0.0085c0.23622-0.04542 0.57803-0.0437 0.75959 0.0038 0.18156 0.04753-0.0117 0.08469-0.42948 0.08259s-0.56632-0.041-0.33011-0.08642zm3.2031-0.0159c-0.0511-0.08262 0.20026-0.11599 0.55848-0.07417 0.35823 0.04182 0.65132 0.10941 0.65132 0.15021 0 0.14291-1.1179 0.07265-1.2098-0.07604zm13.692 0.02565c0.12857-0.05202 0.38493-0.05518 0.56969-7e-3 0.18476 0.04815 0.0796 0.09071-0.23376 0.09458-0.31333 0.0039-0.4645-0.03552-0.33593-0.08754zm2.4723-0.0011c0.13055-0.05268 0.34418-0.05268 0.47474 0 0.13055 0.05268 0.0237 0.09578-0.23737 0.09578-0.26111 0-0.36793-0.0431-0.23737-0.09578zm2.4686 0c0.13056-0.05268 0.34419-0.05268 0.47474 0 0.13056 0.05268 0.0237 0.09578-0.23737 0.09578-0.26111 0-0.36792-0.0431-0.23737-0.09578zm2.0852 0.0011c0.12856-0.05202 0.38492-0.05518 0.56969-7e-3 0.18476 0.04815 0.0796 0.09071-0.23376 0.09458-0.31333 0.0039-0.4645-0.03552-0.33593-0.08754zm2.6622-0.0011c0.13056-0.05268 0.34419-0.05268 0.47474 0 0.13056 0.05268 0.0237 0.09578-0.23737 0.09578-0.2611 0-0.36792-0.0431-0.23737-0.09578zm4.9492-0.0039c0.13708-0.05486 0.30087-0.04811 0.36397 0.01498 0.0631 0.0631-0.0491 0.10798-0.24924 0.09974-0.22122-0.0091-0.26622-0.05411-0.11473-0.11473zm-178.83-0.55085c0.0091-0.22122 0.05411-0.26622 0.11473-0.11473 0.05485 0.13708 0.04811 0.30087-0.01499 0.36397-0.0631 0.0631-0.10798-0.04906-0.09974-0.24924zm133.69 0c9e-3 -0.22122 0.0541-0.26622 0.11473-0.11473 0.0548 0.13708 0.0481 0.30087-0.015 0.36397-0.0631 0.0631-0.10798-0.04906-0.0997-0.24924zm5.5437-0.45892c0-0.46999 0.037-0.66226 0.0823-0.42727s0.0453 0.61954 0 0.85453-0.0823 0.04273-0.0823-0.42727zm3.1221 0.56969c0.11664-0.15666 0.21221-0.35606 0.21239-0.44309 1.8e-4 -0.08704 0.0438-0.20168 0.0968-0.25477 0.0531-0.05309 0.0764 0.04035 0.0519 0.20764-0.0246 0.16729-0.16357 0.41012-0.30891 0.53962-0.21825 0.19444-0.22734 0.18584-0.0522-0.0494zm24.789-0.47474c-2e-3 -0.41777 0.0351-0.61104 0.0826-0.42948 0.0475 0.18156 0.0493 0.52337 4e-3 0.75959-0.0454 0.23622-0.0843 0.08767-0.0864-0.3301zm-54.533-0.01582c9e-3 -0.22122 0.0541-0.26622 0.11473-0.11473 0.0549 0.13708 0.0481 0.30087-0.015 0.36397-0.0631 0.0631-0.10799-0.04906-0.0997-0.24924zm43.532-0.83871c0-0.67888 0.0345-0.9566 0.0766-0.61716s0.0421 0.89489 0 1.2343-0.0766 0.06172-0.0766-0.61716zm2.4686 0c0-0.67888 0.0345-0.9566 0.0766-0.61716s0.0421 0.89489 0 1.2343-0.0766 0.06172-0.0766-0.61716zm13.247 0.64881c9e-3 -0.22122 0.0541-0.26622 0.11473-0.11473 0.0548 0.13708 0.0481 0.30087-0.015 0.36397-0.0631 0.0631-0.10798-0.04906-0.0997-0.24924zm-35.661-0.93366c2e-3 -0.52222 0.0383-0.71331 0.082-0.42466 0.0437 0.28865 0.0425 0.71592-3e-3 0.94948-0.0451 0.23356-0.0808-0.0026-0.0794-0.52483zm16.672 0.55386c9e-3 -0.22122 0.0541-0.26622 0.11473-0.11473 0.0549 0.13708 0.0481 0.30087-0.015 0.36397-0.0631 0.0631-0.10799-0.04906-0.0997-0.24924zm23.372-0.45892c0-0.26111 0.0431-0.36792 0.0958-0.23737 0.0527 0.13055 0.0527 0.34419 0 0.47474-0.0527 0.13055-0.0958 0.02374-0.0958-0.23737zm-42.53-0.28484c4e-3 -0.31333 0.0464-0.41852 0.0946-0.23376 0.0481 0.18476 0.045 0.44112-7e-3 0.56969-0.052 0.12857-0.0914-0.0226-0.0875-0.33593zm32.845-0.09495c0-0.26111 0.0431-0.36792 0.0958-0.23737s0.0527 0.34419 0 0.47474c-0.0527 0.13055-0.0958 0.02374-0.0958-0.23737zm-18.773-0.94948c0-0.57444 0.0356-0.80944 0.0791-0.52222s0.0435 0.75721 0 1.0444-0.0791 0.05222-0.0791-0.52222zm-147.97 0.45891c0.0091-0.22122 0.05411-0.26622 0.11473-0.11473 0.05486 0.13708 0.04811 0.30087-0.01499 0.36397-0.0631 0.0631-0.10798-0.04906-0.09974-0.24924zm115.28-0.07912c0-0.26111 0.0431-0.36792 0.0958-0.23737s0.0527 0.34419 0 0.47474-0.0958 0.02374-0.0958-0.23737zm10.239-0.30067c9e-3 -0.22122 0.0541-0.26622 0.11473-0.11473 0.0549 0.13708 0.0481 0.30087-0.015 0.36397-0.0631 0.0631-0.10798-0.04906-0.0997-0.24924zm37.41 0c9e-3 -0.22122 0.0541-0.26622 0.11473-0.11473 0.0548 0.13708 0.0481 0.30087-0.015 0.36397-0.0631 0.0631-0.10798-0.04906-0.0997-0.24924zm4.3676 0c9e-3 -0.22122 0.0541-0.26622 0.11472-0.11473 0.0549 0.13708 0.0481 0.30087-0.015 0.36397-0.0631 0.0631-0.10798-0.04906-0.0997-0.24924zm-30.019 0.03908c0-0.03943 0.14955-0.18898 0.33232-0.33232 0.30119-0.23621 0.3079-0.22949 0.0717 0.0717-0.24808 0.31632-0.40402 0.41691-0.40402 0.26062zm-8.213-0.24397c0.13055-0.05268 0.34419-0.05268 0.47474 0 0.13056 0.05268 0.0237 0.09578-0.23737 0.09578-0.26111 0-0.36792-0.0431-0.23737-0.09578zm18.61-2.2788c0.13056-0.05268 0.34419-0.05268 0.47475 0 0.13055 0.05268 0.0237 0.09578-0.23738 0.09578-0.2611 0-0.36792-0.0431-0.23737-0.09578zm3.2282 0c0.13056-0.05268 0.34419-0.05268 0.47475 0 0.13055 0.05268 0.0237 0.09578-0.23738 0.09578-0.2611 0-0.36792-0.0431-0.23737-0.09578zm-41.73-7.162c0-0.03943 0.14955-0.18898 0.33232-0.33232 0.30119-0.23621 0.30791-0.22949 0.0717 0.0717-0.24807 0.31632-0.40402 0.41691-0.40402 0.26062zm-105.77-2.1121c-0.13002-0.15666-0.19367-0.28484-0.14145-0.28484 0.05222 0 0.20133 0.12818 0.33135 0.28484 0.13002 0.15666 0.19367 0.28484 0.14145 0.28484-0.05222 0-0.20133-0.12818-0.33135-0.28484zm109-1.1394c0.2453-0.26111 0.48873-0.47474 0.54095-0.47474 0.0522 0-0.10575 0.21363-0.35105 0.47474-0.2453 0.26111-0.48872 0.47474-0.54094 0.47474-0.0522 0 0.10575-0.21363 0.35104-0.47474zm-112.05-1.9464l-0.46037-0.52221 0.52222 0.46037c0.28722 0.2532 0.52222 0.4882 0.52222 0.52222 0 0.14893-0.15378 0.02772-0.58406-0.46037z"/>
<path d="m67.482 102.35-1.8954-1.9464 1.9464 1.8954c1.0705 1.0425 1.9464 1.9184 1.9464 1.9464 0 0.13737-0.23702-0.0875-1.9975-1.8954zm23.741-8.308c5.2214-5.2222 9.5361-9.4948 9.5883-9.4948 0.0522 0-4.1771 4.2727-9.3985 9.4948-5.2214 5.2222-9.5361 9.4948-9.5883 9.4948-0.05222 0 4.1771-4.2727 9.3985-9.4948zm-12.533 2.8484c0.51436-0.52222 0.97793-0.94949 1.0302-0.94949 0.05222 0-0.32589 0.42727-0.84026 0.94949-0.51436 0.52221-0.97793 0.94948-1.0302 0.94948-0.05222 0 0.3259-0.42727 0.84026-0.94948zm1.2343-1.1633c0-0.0522 0.25636-0.34056 0.56969-0.64075 0.31333-0.30019 0.56969-0.50307 0.56969-0.45085 0 0.0522-0.25636 0.34056-0.56969 0.64075-0.31333 0.30019-0.56969 0.50307-0.56969 0.45085zm-48.522-22.099c-8e-6 -11.28 0.02285-15.922 0.05079-10.316 0.02794 5.6058 0.02795 14.835 1.5e-5 20.509-0.02793 5.674-0.05079 1.0875-0.0508-10.192zm147.08 15.595c0-0.03943 0.14955-0.18898 0.33232-0.33232 0.30119-0.23621 0.30791-0.22949 0.0717 0.0717-0.24807 0.31632-0.40402 0.41691-0.40402 0.26062zm-18.595-2.1279c9e-3 -0.22122 0.0541-0.26622 0.11473-0.11473 0.0549 0.13708 0.0481 0.30087-0.015 0.36397-0.0631 0.0631-0.10798-0.04906-0.0997-0.24924zm-42.744-7.0578-3.3212-3.3707 3.3707 3.3212c1.8539 1.8266 3.3707 3.3434 3.3707 3.3707 0 0.13533-0.33458-0.18956-3.4202-3.3212zm-7.0241 2.706c-0.13002-0.15666-0.19368-0.28484-0.14146-0.28484 0.0522 0 0.20133 0.12818 0.33135 0.28484 0.13002 0.15666 0.19368 0.28484 0.14145 0.28484-0.0522 0-0.20132-0.12818-0.33134-0.28484zm-3.0414-3.0858-2.1807-2.2313 2.2313 2.1807c2.0725 2.0256 2.3175 2.2819 2.1807 2.2819-0.0278 0-1.0319-1.0041-2.2313-2.2313zm-39.597-12.581c0-5.4833 0.02426-7.7264 0.05392-4.9848 0.02965 2.7416 0.02965 7.2279 0 9.9696-0.02966 2.7416-0.05392 0.49848-0.05392-4.9848zm72.729 1.0444c4e-5 -4.5955 0.0248-6.4483 0.055-4.1173 0.0302 2.331 0.0302 6.0909-7e-5 8.3554-0.0303 2.2645-0.055 0.35739-0.055-4.2381zm-89.528 2.4687c0.88315-0.88777 1.6485-1.6141 1.7007-1.6141 0.05222 0-0.62763 0.72635-1.5108 1.6141-0.88315 0.88777-1.6485 1.6141-1.7007 1.6141-0.05222 0 0.62763-0.72635 1.5108-1.6141zm53.378-0.52222c0.044-0.02611 0.37873-0.30383 0.74376-0.61716l0.66369-0.56969-0.55774 0.61716c-0.30676 0.33944-0.64145 0.61716-0.74376 0.61716s-0.14999-0.02136-0.10595-0.04747zm13.086-3.2757c1.8255-1.8278 3.3618-3.3232 3.4141-3.3232 0.0522 0-1.3986 1.4954-3.2242 3.3232-1.8255 1.8278-3.3618 3.3232-3.4141 3.3232-0.0522 0 1.3987-1.4954 3.2242-3.3232zm10.065 3.3137c0-0.05222 0.6409-0.73157 1.4242-1.5097s1.4242-1.372 1.4242-1.3198c0 0.05222-0.6409 0.73157-1.4242 1.5097s-1.4242 1.372-1.4242 1.3198zm-21.363-1.6996c0.18904-0.20889 0.38643-0.37979 0.43865-0.37979 0.0522 0-0.0597 0.17091-0.24876 0.37979-0.18904 0.20889-0.38643 0.37979-0.43866 0.37979-0.0522 0 0.0597-0.17091 0.24877-0.37979zm54.041-8.6561c9e-3 -0.22122 0.0541-0.26622 0.11473-0.11473 0.0549 0.13708 0.0481 0.30087-0.015 0.36397-0.0631 0.0631-0.10798-0.04906-0.0997-0.24924zm0.7446-1.67c0-0.03943 0.14954-0.18898 0.33232-0.33232 0.30118-0.23621 0.3079-0.22949 0.0717 0.0717-0.24807 0.31632-0.40401 0.41691-0.40401 0.26062zm9.8746 0c0-0.03943 0.14955-0.18898 0.33232-0.33232 0.30119-0.23621 0.30791-0.22949 0.0717 0.0717-0.24808 0.31632-0.40402 0.41691-0.40402 0.26062zm-130.13-1.0197c1.3839-0.03245 3.6484-0.03245 5.0323 0 1.3839 0.03245 0.25161 0.05899-2.5161 0.05899-2.7677 0-3.9-0.02655-2.5161-0.05899zm-28.35-0.63029c-0.06884-0.11139-0.08444-0.24326-0.03467-0.29304 0.04978-0.04978 0.1411 0.04136 0.20295 0.20253 0.1284 0.33462 0.01896 0.39348-0.16829 0.0905zm111.78-1.0476c9e-3 -0.22122 0.0541-0.26622 0.11473-0.11473 0.0549 0.13708 0.0481 0.30087-0.015 0.36397-0.0631 0.0631-0.10798-0.04906-0.0997-0.24924zm8.2455-0.83871c0.0645-0.10444 0.15504-0.1899 0.2011-0.1899 0.0461 0 0.0837 0.08545 0.0837 0.1899 0 0.10444-0.0905 0.1899-0.2011 0.1899-0.11061 0-0.14829-0.08545-0.0837-0.1899zm15.097-0.0112c0-0.11061 0.0855-0.14829 0.18989-0.08374 0.10445 0.06455 0.1899 0.15505 0.1899 0.2011 0 0.04606-0.0854 0.08374-0.1899 0.08374-0.10444 0-0.18989-0.0905-0.18989-0.2011zm12.533 0.12647c0-0.04105 0.13262-0.12552 0.29471-0.18772 0.16899-0.06485 0.24522-0.03301 0.17869 0.07463-0.11152 0.18044-0.4734 0.26689-0.4734 0.11309zm3.5346-0.15001c0.0548-0.08874 0.17927-0.11218 0.2765-0.05209 0.24845 0.15355 0.22048 0.21344-0.0997 0.21344-0.15207 0-0.23162-0.07261-0.17678-0.16135zm6.209-1.1996c1e-3 -0.62666 0.0365-0.86012 0.0788-0.51882 0.0423 0.34131 0.0414 0.85403-2e-3 1.1394-0.0433 0.28535-0.0779 0.0061-0.0768-0.62056zm-23.732-0.47474c0-0.78332 0.0335-1.1038 0.0745-0.71211s0.041 1.0326 0 1.4242c-0.041 0.39166-0.0745 0.07121-0.0745-0.71211zm1.8501 0.83871c9e-3 -0.22122 0.0541-0.26622 0.11473-0.11473 0.0549 0.13708 0.0481 0.30087-0.015 0.36397-0.0631 0.0631-0.10799-0.04906-0.0997-0.24924zm-136.16-0.1899c0.0091-0.22122 0.05411-0.26622 0.11473-0.11473 0.05485 0.13708 0.04811 0.30087-0.01499 0.36397-0.0631 0.0631-0.10798-0.04906-0.09974-0.24924zm115.11-0.64881c0-0.46999 0.037-0.66226 0.0823-0.42727s0.0453 0.61954 0 0.85454-0.0823 0.04273-0.0823-0.42727zm-2.5054 0.26902c9e-3 -0.22122 0.0541-0.26622 0.11473-0.11473 0.0549 0.13708 0.0481 0.30087-0.015 0.36397-0.0631 0.0631-0.10799-0.04906-0.0997-0.24924zm24.146-0.26902c0-0.36555 0.0391-0.51509 0.0868-0.33232 0.0478 0.18278 0.0478 0.48186 0 0.66464-0.0478 0.18278-0.0868 0.03323-0.0868-0.33232zm29.785 0.07912c9e-3 -0.22122 0.0541-0.26622 0.11473-0.11473 0.0549 0.13708 0.0481 0.30087-0.015 0.36397-0.0631 0.0631-0.10798-0.04906-0.0997-0.24924zm0.58468-0.26902c0-0.26111 0.0431-0.36792 0.0958-0.23737s0.0527 0.34419 0 0.47474c-0.0527 0.13055-0.0958 0.02374-0.0958-0.23737zm-28.47-0.37979c0-0.36555 0.0391-0.51509 0.0868-0.33232 0.0478 0.18278 0.0478 0.48186 0 0.66464-0.0478 0.18278-0.0868 0.03323-0.0868-0.33232zm0.57735-0.1899c0-0.46999 0.037-0.66226 0.0823-0.42727 0.0453 0.235 0.0453 0.61954 0 0.85454-0.0453 0.235-0.0823 0.04273-0.0823-0.42727zm8.5086 0.45892c9e-3 -0.22122 0.0541-0.26622 0.11472-0.11473 0.0549 0.13708 0.0481 0.30087-0.015 0.36397-0.0631 0.0631-0.10798-0.04906-0.0997-0.24924zm-14.052-0.94948c9e-3 -0.22122 0.0541-0.26622 0.11473-0.11473 0.0548 0.13708 0.0481 0.30087-0.015 0.36397-0.0631 0.0631-0.10798-0.04906-0.0997-0.24924zm33.787 0.22897c0-0.03943 0.14954-0.18898 0.33232-0.33232 0.30118-0.23621 0.3079-0.22949 0.0717 0.0717-0.24807 0.31632-0.40401 0.41691-0.40401 0.26062zm-31.318-0.41887c9e-3 -0.22122 0.0541-0.26622 0.11473-0.11473 0.0549 0.13708 0.0481 0.30087-0.015 0.36397-0.0631 0.0631-0.10799-0.04906-0.0997-0.24924zm22.408 0c9e-3 -0.22122 0.0541-0.26622 0.11472-0.11473 0.0549 0.13708 0.0481 0.30087-0.015 0.36397-0.0631 0.0631-0.10798-0.04906-0.0997-0.24924zm-158.75-0.18989c0.0091-0.22122 0.05411-0.26622 0.11473-0.11473 0.05486 0.13708 0.04811 0.30087-0.01499 0.36397-0.0631 0.0631-0.10798-0.04906-0.09974-0.24924zm115.3-0.55386c-2e-3 -0.41777 0.0351-0.61104 0.0826-0.42948s0.0493 0.52337 4e-3 0.75959c-0.0454 0.23621-0.0843 0.08767-0.0864-0.3301zm-1.3934-1.6739c0.0858-0.08582 0.48776-0.12704 0.89318-0.0916l0.73714 0.06445-0.89318 0.0916c-0.49125 0.05038-0.82296 0.02138-0.73714-0.06445zm34.542-0.06996c0.13708-0.05486 0.30087-0.04811 0.36397 0.01499s-0.0491 0.10798-0.24924 0.09974c-0.22122-0.0091-0.26622-0.05411-0.11473-0.11473zm-35.46-6.0577c9e-3 -0.22122 0.0541-0.26622 0.11472-0.11473 0.0549 0.13708 0.0481 0.30087-0.015 0.36397-0.0631 0.0631-0.10798-0.04906-0.0997-0.24924zm-113.18-1.899c0.0091-0.22122 0.05411-0.26622 0.11473-0.11473 0.05485 0.13708 0.04811 0.30087-0.01499 0.36397-0.0631 0.0631-0.10798-0.04906-0.09974-0.24924zm109.94 0.28878c0-0.05222 0.51272-0.60232 1.1394-1.2224s1.1394-1.0848 1.1394-1.0325c0 0.05222-0.51272 0.60232-1.1394 1.2224-0.62666 0.62012-1.1394 1.0848-1.1394 1.0325zm-107.77-3.0739l-1.1334-1.1869 1.1869 1.1334c0.65277 0.62339 1.1869 1.1575 1.1869 1.1869 0 0.14032-0.18741-0.03095-1.2403-1.1334z"/>
<path d="m64.257 89.441-8.3546-8.4029 8.4029 8.3546c4.6216 4.5951 8.4029 8.3764 8.4029 8.4029 0 0.1336-0.6858-0.54436-8.4512-8.3546zm-32.317 7.1215c1.5469-0.032 4.0251-0.0319 5.507 1.6e-4 1.4819 0.032 0.21626 0.0582-2.8126 0.0581-3.0288-9e-5 -4.2413-0.0263-2.6944-0.0583zm-1.7682-0.49931c0-0.0394 0.14954-0.18897 0.33232-0.33231 0.30119-0.23621 0.3079-0.22949 0.0717 0.0717-0.24808 0.31632-0.40402 0.41692-0.40402 0.26062zm59.248-9.8979c4.4379-4.4388 8.1117-8.0706 8.1639-8.0706 0.05222 0-3.5361 3.6318-7.974 8.0706s-8.1117 8.0706-8.1639 8.0706c-0.05222 0 3.5361-3.6318 7.974-8.0706zm-51.564-0.66464c0-4.7522 0.02465-6.6962 0.05479-4.3201 0.03013 2.3761 0.03013 6.2642 0 8.6403-0.03013 2.3761-0.05479 0.43201-0.05479-4.3201zm76.628 1.5666-2.751-2.801 2.801 2.751c2.602 2.5556 2.8869 2.8509 2.751 2.8509-0.0275 0-1.2879-1.2604-2.801-2.801zm47.666 2.1596c0-0.03943 0.14954-0.18898 0.33232-0.33232 0.30118-0.23621 0.3079-0.22949 0.0717 0.0717-0.24807 0.31632-0.40401 0.41691-0.40401 0.26062zm24.876-0.21315c-0.13002-0.15666-0.19368-0.28484-0.14146-0.28484 0.0522 0 0.20133 0.12818 0.33135 0.28484 0.13002 0.15666 0.19368 0.28484 0.14145 0.28484-0.0522 0-0.20132-0.12818-0.33134-0.28484zm-53.282-4.9373c1.9e-4 -1.88 0.0286-2.6234 0.0632-1.652 0.0345 0.97138 0.0344 2.5095-3.8e-4 3.4181-0.0347 0.90859-0.063 0.11383-0.0628-1.7661zm-22.783-0.52222-0.55774-0.61716 0.61716 0.55774c0.33944 0.30676 0.61717 0.58448 0.61717 0.61716 0 0.14671-0.15669 0.01755-0.67659-0.55774zm-40.343-3.3232-3.3212-3.3707 3.3707 3.3212c1.8539 1.8266 3.3707 3.3434 3.3707 3.3707 0 0.13533-0.33458-0.18956-3.4202-3.3212zm38.931 1.9464c-0.13002-0.15666-0.19368-0.28484-0.14146-0.28484 0.0522 0 0.20133 0.12818 0.33135 0.28484 0.13002 0.15666 0.19368 0.28484 0.14145 0.28484-0.0522 0-0.20132-0.12818-0.33134-0.28484zm-54.515-1.9464-0.46037-0.52222 0.52222 0.46037c0.28722 0.2532 0.52222 0.4882 0.52222 0.52222 0 0.14893-0.15378 0.02772-0.58406-0.46037zm78.72-10.207c3e-5 -5.8488 0.0241-8.2141 0.0536-5.2561 0.0294 2.9579 0.0294 7.7433-5e-5 10.634-0.0295 2.8909-0.0536 0.47075-0.0535-5.3781zm-88.693 9.7322-0.36175-0.42727 0.42727 0.36175c0.40152 0.33996 0.51372 0.49278 0.36175 0.49278-0.03604 0-0.2283-0.19227-0.42727-0.42727zm15.963-9.8271c0-5.6921 0.02417-8.0208 0.05371-5.1747 0.02954 2.8461 0.02954 7.5033 0 10.349-0.02954 2.8461-0.05371 0.51747-0.05371-5.1747zm-7.6075 8.6878-0.36175-0.42727 0.42727 0.36175c0.40152 0.33996 0.51371 0.49278 0.36175 0.49278-0.03603 0-0.2283-0.19227-0.42727-0.42727zm-9.776-0.28484-0.46037-0.52222 0.52222 0.46037c0.28722 0.2532 0.52222 0.4882 0.52222 0.52222 0 0.14893-0.15378 0.02772-0.58406-0.46037zm-1.7026-1.7091-0.8466-0.90201 0.90201 0.8466c0.83843 0.78692 0.98919 0.95742 0.8466 0.95742-0.03048 0-0.43638-0.4059-0.90201-0.90201zm10.072 0.61716c-0.13002-0.15666-0.19367-0.28484-0.14145-0.28484 0.05222 0 0.20133 0.12818 0.33135 0.28484 0.13002 0.15666 0.19367 0.28484 0.14145 0.28484-0.05222 0-0.20133-0.12818-0.33135-0.28484zm66.179-0.47474-4.1777-0.10615 4.119-0.04187c2.5874-0.0263 4.1627 0.02874 4.2364 0.14802 0.0645 0.10444 0.091 0.17106 0.0587 0.14802s-1.9387-0.08964-4.2364-0.14802zm35.313-8.6403c5e-5 -4.5955 0.0248-6.4483 0.055-4.1173 0.0302 2.331 0.0302 6.0909-8e-5 8.3554-0.0303 2.2645-0.055 0.35739-0.055-4.2381zm-104.91 4.5575c0.2453-0.26111 0.48872-0.47474 0.54094-0.47474 0.05222 0-0.10575 0.21363-0.35105 0.47474-0.2453 0.26111-0.48872 0.47474-0.54094 0.47474-0.05222 0 0.10575-0.21363 0.35105-0.47474zm-10.738-8.1655c-5.5e-5 -4.0733 0.02505-5.7666 0.05578-3.763 0.03073 2.0036 0.03078 5.3363 9.7e-5 7.406-0.03068 2.0697-0.05583 0.43035-0.05588-3.6429zm2.7621 6.5275c0-0.05222 0.25636-0.34056 0.56969-0.64074 0.31333-0.30019 0.56969-0.50307 0.56969-0.45085 0 0.05222-0.25636 0.34056-0.56969 0.64074-0.31333 0.30019-0.56969 0.50307-0.56969 0.45085zm76.658-0.87776c1.7949-0.03118 4.7858-0.03123 6.6464-1.18e-4 1.8606 0.03112 0.39204 0.05663-3.2635 0.0567-3.6555 6.5e-5 -5.1778-0.0254-3.3829-0.05658zm-5.5422-7.6437c3.0275-3.0288 5.5473-5.507 5.5995-5.507 0.0522 0-2.3821 2.4781-5.4096 5.507-3.0275 3.0288-5.5473 5.507-5.5995 5.507-0.0522 0 2.3821-2.4781 5.4096-5.507zm-64.375 1.7091c1.9824-1.9844 3.647-3.608 3.6992-3.608 0.05222 0-1.527 1.6236-3.5093 3.608-1.9824 1.9844-3.647 3.608-3.6992 3.608-0.05222 0 1.527-1.6236 3.5093-3.608zm78.142 0.66464c0-0.81814 0.0361-1.4514 0.0802-1.4073 0.13787 0.13787 0.17975 2.6349 0.0464 2.7683-0.0696 0.06964-0.12661-0.54278-0.12661-1.3609zm-18.42-0.16665c0-0.03943 0.14955-0.18898 0.33232-0.33232 0.30119-0.23621 0.3079-0.22949 0.0717 0.0717-0.24808 0.31632-0.40402 0.41691-0.40402 0.26062zm1.6141-1.6374c0.18904-0.20889 0.38644-0.37979 0.43866-0.37979 0.0522 0-0.0597 0.17091-0.24876 0.37979-0.18904 0.20889-0.38644 0.37979-0.43866 0.37979-0.0522 0 0.0597-0.17091 0.24876-0.37979zm-80.801-0.47474c-0.13002-0.15666-0.19367-0.28485-0.14145-0.28485 0.05222 0 0.20133 0.12818 0.33135 0.28485s0.19367 0.28484 0.14145 0.28484c-0.05222 0-0.20133-0.12818-0.33135-0.28484zm82.415-1.1394c0.2453-0.26111 0.48873-0.47474 0.54095-0.47474 0.0522 0-0.10575 0.21363-0.35105 0.47474-0.2453 0.26111-0.48872 0.47474-0.54095 0.47474-0.0522 0 0.10575-0.21363 0.35105-0.47474zm-83.857-0.33232-0.36175-0.42727 0.42727 0.36175c0.40153 0.33996 0.51372 0.49278 0.36175 0.49278-0.03603 0-0.2283-0.19227-0.42727-0.42727zm89.934-5.7444c2.8708-2.8722 5.2623-5.2222 5.3145-5.2222 0.0522 0-2.2538 2.35-5.1246 5.2222s-5.2623 5.2222-5.3145 5.2222c-0.0522 0 2.2539-2.35 5.1246-5.2222zm-67.038 3.1808-1.6099-1.6616 1.6616 1.6099c1.5432 1.4953 1.7481 1.7133 1.6099 1.7133-0.02842 0-0.77613-0.74772-1.6616-1.6616zm-24.507 0.94948-0.46037-0.52222 0.52222 0.46037c0.28722 0.2532 0.52222 0.4882 0.52222 0.52222 0 0.14893-0.15378 0.02772-0.58406-0.46037zm115.3 0.03165c9e-3 -0.22122 0.0541-0.26622 0.11473-0.11473 0.0549 0.13708 0.0481 0.30087-0.015 0.36397-0.0631 0.0631-0.10799-0.04906-0.0997-0.24924zm-121.36-6.1083-5.2209-5.2696 5.2696 5.2209c4.897 4.8517 5.3552 5.3184 5.2209 5.3184-0.02682 0-2.3982-2.3713-5.2696-5.2696zm41.209 4.605c-0.13002-0.15666-0.19367-0.28484-0.14145-0.28484 0.05222 0 0.20133 0.12818 0.33135 0.28484 0.13002 0.15666 0.19367 0.28484 0.14145 0.28484-0.05222 0-0.20133-0.12818-0.33135-0.28484zm72.73-0.1899c-0.13002-0.15666-0.19368-0.28484-0.14146-0.28484 0.0522 0 0.20133 0.12818 0.33135 0.28484 0.13002 0.15666 0.19368 0.28484 0.14145 0.28484-0.0522 0-0.20132-0.12818-0.33134-0.28484zm29.624 0c-0.13002-0.15666-0.19367-0.28484-0.14145-0.28484 0.0522 0 0.20133 0.12818 0.33135 0.28484 0.13002 0.15666 0.19367 0.28484 0.14145 0.28484-0.0522 0-0.20133-0.12818-0.33135-0.28484zm-17.356-2.1522c-0.0538-0.08704 0.0229-0.15825 0.17033-0.15825 0.14748 0 0.22413 0.07121 0.17034 0.15825-0.0538 0.08704-0.13044 0.15825-0.17034 0.15825s-0.11654-0.07121-0.17033-0.15825zm-133.22-0.15854c-0.0082-0.12201-0.06417-0.37837-0.12428-0.56969-0.10388-0.33065-0.09852-0.33106 0.10839-0.0084 0.11972 0.18671 0.17565 0.44307 0.12428 0.56969-0.06741 0.16616-0.09757 0.16849-0.10839 0.0084zm112.07-1.1074c-2e-3 -0.41777 0.0351-0.61104 0.0826-0.42948 0.0475 0.18156 0.0493 0.52337 4e-3 0.75959-0.0454 0.23621-0.0843 0.08767-0.0864-0.3301zm21.805-0.01582c9e-3 -0.22122 0.0541-0.26622 0.11473-0.11473 0.0549 0.13708 0.0481 0.30086-0.015 0.36397-0.0631 0.0631-0.10798-0.04906-0.0997-0.24924zm37.774 0.01582c-0.13002-0.15666-0.19367-0.28484-0.14145-0.28484 0.0522 0 0.20133 0.12818 0.33135 0.28484s0.19367 0.28484 0.14145 0.28484c-0.0522 0-0.20133-0.12818-0.33135-0.28484zm-17.585-0.33232c-0.0751-0.13055-0.0667-0.17402 0.0188-0.0966 0.0855 0.07743 0.29144 0.0347 0.45771-0.09495 0.26749-0.20856 0.27229-0.19744 0.0417 0.0966-0.31063 0.39608-0.34164 0.40176-0.51821 0.09495zm1.0787-0.0633c9e-3 -0.22122 0.0541-0.26622 0.11473-0.11473 0.0549 0.13708 0.0481 0.30087-0.015 0.36397-0.0631 0.0631-0.10799-0.04906-0.0997-0.24924zm-38.374-0.15376c0-0.04105 0.13262-0.12552 0.29471-0.18772 0.16899-0.06485 0.24522-0.03301 0.17869 0.07463-0.11152 0.18044-0.4734 0.26689-0.4734 0.11309zm11.014-0.10406c0-0.09828 0.0845-0.2309 0.18772-0.29471 0.10765-0.06653 0.13948 0.0097 0.0746 0.17869-0.12624 0.32898-0.26235 0.38917-0.26235 0.11602zm8.5603-0.12198c9e-3 -0.22122 0.0541-0.26622 0.11473-0.11473 0.0549 0.13708 0.0481 0.30087-0.015 0.36397-0.0631 0.0631-0.10799-0.04906-0.0997-0.24924zm34.611-1.1236c7.5e-4 -0.83554 0.0341-1.1537 0.0742-0.70709 0.0401 0.44664 0.0396 1.1303-1e-3 1.5192-0.0407 0.3889-0.0735 0.02347-0.0729-0.81208zm6.2784 1.0713c0.38702-0.43511 0.49278-0.49144 0.49278-0.26248 0 0.07932-0.19227 0.26233-0.42727 0.40669-0.42575 0.26154-0.42598 0.26103-0.0655-0.14422zm-51.668-0.97638c0-0.67888 0.0345-0.9566 0.0766-0.61716 0.0421 0.33944 0.0421 0.89489 0 1.2343-0.0421 0.33944-0.0766 0.06172-0.0766-0.61716zm25.266-0.75959c0-1.0967 0.0314-1.5453 0.0697-0.99696 0.0384 0.54833 0.0384 1.4456 0 1.9939-0.0384 0.54833-0.0697 0.0997-0.0697-0.99696zm15.326 1.5983c9e-3 -0.22122 0.0541-0.26622 0.11473-0.11473 0.0549 0.13708 0.0481 0.30087-0.015 0.36397-0.0631 0.0631-0.10798-0.04906-0.0997-0.24924zm12.195-0.64881c0-0.57444 0.0356-0.80943 0.0791-0.52222s0.0435 0.75721 0 1.0444c-0.0435 0.28722-0.0791 0.05222-0.0791-0.52222zm-55.28 0.09495c4e-3 -0.31333 0.0464-0.41852 0.0946-0.23376 0.0481 0.18476 0.045 0.44112-7e-3 0.56969-0.052 0.12856-0.0914-0.0226-0.0875-0.33593zm15.17 0.17407c9e-3 -0.22122 0.0541-0.26622 0.11472-0.11473 0.0549 0.13708 0.0481 0.30087-0.015 0.36397-0.0631 0.0631-0.10798-0.04906-0.0997-0.24924zm1.899 0c9e-3 -0.22122 0.0541-0.26622 0.11473-0.11473 0.0548 0.13708 0.0481 0.30087-0.015 0.36397-0.0631 0.0631-0.10799-0.04906-0.0997-0.24924zm6.8876-1.2185c0-0.88776 0.0327-1.2509 0.0727-0.80706 0.04 0.44388 0.04 1.1702 0 1.6141s-0.0727 0.08071-0.0727-0.80706zm-147.38 0.66464c-0.0021-0.41777 0.03505-0.61104 0.08258-0.42948s0.04925 0.52337 0.0038 0.75958c-0.04542 0.23622-0.08431 0.08767-0.08642-0.3301zm26.41-0.75959c-7.6e-4 -0.7311 0.03279-1.0535 0.07474-0.71635 0.04195 0.33711 0.04264 0.93528 0.0015 1.3293-0.04109 0.39399-0.07542 0.11817-0.07626-0.61293zm114.67 0.75959c4e-3 -0.31333 0.0464-0.41852 0.0946-0.23376 0.0481 0.18476 0.045 0.44112-7e-3 0.56969-0.052 0.12857-0.0914-0.0226-0.0875-0.33593zm-26.564-0.75959c1e-3 -0.62666 0.0365-0.86013 0.0788-0.51882s0.0414 0.85403-2e-3 1.1394c-0.0433 0.28535-0.0779 0.0061-0.0768-0.62056zm16.901 0c1e-3 -0.62666 0.0365-0.86013 0.0788-0.51882s0.0414 0.85403-2e-3 1.1394c-0.0433 0.28535-0.0779 0.0061-0.0768-0.62056zm24.102 0.09495c0-0.36555 0.0391-0.51509 0.0868-0.33232 0.0478 0.18278 0.0478 0.48186 0 0.66464s-0.0868 0.03323-0.0868-0.33232zm13.454 0.26902c9e-3 -0.22122 0.0541-0.26622 0.11473-0.11473 0.0549 0.13708 0.0481 0.30087-0.015 0.36397-0.0631 0.0631-0.10799-0.04906-0.0997-0.24924zm4.7624-0.07912c0-0.26111 0.0431-0.36792 0.0958-0.23737s0.0527 0.34419 0 0.47474-0.0958 0.02374-0.0958-0.23737zm-15.747-0.3798c0-0.36555 0.0391-0.5151 0.0869-0.33232 0.0478 0.18278 0.0478 0.48186 0 0.66464s-0.0869 0.03323-0.0869-0.33232zm-139.05-0.28485c-0.13002-0.15666-0.19367-0.28484-0.14145-0.28484 0.05222 0 0.20133 0.12818 0.33135 0.28484 0.13002 0.15666 0.19367 0.28484 0.14145 0.28484-0.05222 0-0.20133-0.12818-0.33135-0.28484zm115.28-0.20572c9e-3 -0.22122 0.0541-0.26622 0.11473-0.11473 0.0549 0.13708 0.0481 0.30087-0.015 0.36397-0.0631 0.0631-0.10798-0.04906-0.0997-0.24924zm21.838-0.1899c9e-3 -0.22122 0.0541-0.26622 0.11473-0.11473 0.0549 0.13708 0.0481 0.30087-0.015 0.36397-0.0631 0.0631-0.10799-0.04906-0.0997-0.24924zm20.114 0.22301c0-0.03616 0.12819-0.17212 0.28485-0.30214 0.16418-0.13626 0.28484-0.15472 0.28484-0.04357 0 0.10606-0.12818 0.24202-0.28484 0.30214-0.15666 0.06012-0.28485 0.07972-0.28485 0.04357zm-34.275-0.48986c-0.0665-0.10764 0.01-0.13948 0.17869-0.07463 0.32898 0.12624 0.38917 0.26235 0.11601 0.26235-0.0983 0-0.23089-0.08448-0.2947-0.18772zm12.343 0c-0.0665-0.10764 0.01-0.13948 0.17869-0.07463 0.32898 0.12624 0.38917 0.26235 0.11602 0.26235-0.0983 0-0.2309-0.08448-0.29471-0.18772zm7.0262 0c-0.0665-0.10764 0.01-0.13948 0.17869-0.07463 0.32898 0.12624 0.38917 0.26235 0.11601 0.26235-0.0983 0-0.23089-0.08448-0.2947-0.18772zm-18.932-0.32179c0.13708-0.05486 0.30087-0.04811 0.36397 0.01499s-0.0491 0.10798-0.24924 0.09974c-0.22122-0.0091-0.26622-0.05411-0.11473-0.11473zm35.131 0c0.13709-0.05486 0.30087-0.04811 0.36397 0.01499s-0.049 0.10798-0.24924 0.09974c-0.22122-0.0091-0.26621-0.05411-0.11473-0.11473zm-62.425-0.74064c9e-3 -0.22122 0.0541-0.26622 0.11473-0.11473 0.0549 0.13708 0.0481 0.30087-0.015 0.36397-0.0631 0.0631-0.10798-0.04906-0.0997-0.24924zm0.45975-0.64669c-0.29413-0.12475-0.21728-0.15756 0.34071-0.14547 0.45322 0.0098 0.62933 0.07345 0.47474 0.17152-0.29035 0.18419-0.32212 0.18318-0.81545-0.02605zm36.175-0.0021c0-0.10444 0.0905-0.1899 0.2011-0.1899 0.11061 0 0.14829 0.08545 0.0838 0.1899-0.0646 0.10444-0.15505 0.1899-0.20111 0.1899-0.0461 0-0.0837-0.08545-0.0837-0.1899zm-40.119-2.294c0.0671-0.25678 0.15323-0.34286 0.20064-0.20064 0.0457 0.137-7e-3 0.33938-0.11761 0.44972-0.14091 0.14092-0.16563 0.06677-0.083-0.24909zm-110.78-1.797c-0.06185-0.16117-0.07002-0.33546-0.01816-0.38732 0.05186-0.05186 0.13987 0.08 0.19558 0.29303 0.11834 0.45251-0.01315 0.52238-0.17742 0.09429zm111.54-0.48177c0.0671-0.25678 0.15323-0.34286 0.20063-0.20064 0.0457 0.137-7e-3 0.33937-0.1176 0.44972-0.14092 0.14092-0.16563 0.06677-0.083-0.24909zm0.27092-1.1242c0-0.26111 0.0431-0.36792 0.0958-0.23737s0.0527 0.34419 0 0.47474-0.0958 0.02374-0.0958-0.23737zm-112.57-0.67283c-0.06185-0.16117-0.07002-0.33546-0.01816-0.38732 0.05186-0.05186 0.13987 0.08001 0.19558 0.29304 0.11833 0.45251-0.01314 0.52238-0.17742 0.09429zm112.77-2.4424-0.0397-1.8809-0.42726 0.3547-0.42727 0.3547 0.42199-0.45714c0.2321-0.25143 0.47032-0.40882 0.52939-0.34975 0.0591 0.05907 0.0793 0.95158 0.045 1.9834l-0.0624 1.876zm-113 1.2163c0-0.26111 0.0431-0.36792 0.09578-0.23737s0.05268 0.34419 0 0.47474-0.09578 0.02374-0.09578-0.23737zm-0.18014-3.1808c-0.02186-1.0705 0.03247-1.9464 0.12072-1.9464 0.08826 0 0.32325 0.19227 0.52222 0.42727l0.36175 0.42727-0.42011-0.35528-0.42011-0.35528-0.06236 1.8744-0.06236 1.8744z"/>
<path d="m55.37 90.071c-7.8048-7.8399-14.256-14.254-14.335-14.254-0.2148 0-2.5084-2.3532-2.5036-2.5687 0.0023-0.10163 2.8222-2.952 6.2666-6.3342s6.2625-6.2895 6.2625-6.4607-0.70824-1.0159-1.5739-1.877l-1.5739-1.5657-5.025 0.05071-5.025 0.05071-0.04544 18.325c-0.05044 20.343-0.10892 19.347 1.2038 20.5l0.65892 0.57853-5.0863-7.6e-4c-5.0769-7.5e-4 -5.0852-1e-3 -4.4951-0.36123 0.32518-0.19829 0.77381-0.73767 0.99696-1.1986l0.40572-0.83804v-41.203l-0.55429-0.87403c-0.30486-0.48072-0.73213-0.93047-0.94948-0.99946-1.0986-0.34867-0.09169-0.47963 3.6876-0.47963h4.0828l0.0029 1.1869c4e-3 1.6329 0.20181 1.8411 0.7057 0.74271 0.29996-0.65384 0.6362-1.028 1.2289-1.3674 0.80485-0.46087 0.88716-0.46801 6.0381-0.52348l5.2222-0.05623 4.9325 4.9498 4.9325 4.9498-6.3474 6.3495-6.3474 6.3495 2.0773 2.1446c1.1425 1.1795 6.65 6.7443 12.239 12.366 5.5889 5.6219 10.188 10.249 10.22 10.282 0.03232 0.0329-0.65454 1.4845-1.5263 3.2257l-1.5851 3.1658-14.191-14.254zm24.205 10.877-1.5799-3.1666 9.7948-9.7961 9.7948-9.7961v-14.716h-6.8188l-2.9492 1.5192c-1.6221 0.83554-2.9936 1.5192-3.0478 1.5192-0.05423 0 0.97023-2.1363 2.2766-4.7474l2.3752-4.7474h14.729l-0.0774 6.5514c-0.0435 3.6856-5e-3 6.5514 0.0891 6.5514 0.0916 0 3.1137-2.9481 6.7158-6.5514l6.5494-6.5514h12.819l-2.2308 4.4695-2.2308 4.4695-0.0562-1.2413-0.0562-1.2413h-5.2089l-3.2806 3.2846c-1.8043 1.8065-3.2205 3.3447-3.1471 3.4181 0.0734 0.07343 3.044 0.13352 6.6014 0.13352h6.4678l1.3981-1.3768 1.3981-1.3767-2.9813 5.9817c-1.6397 3.29-3.0092 6.0119-3.0432 6.0489-0.034 0.03692-0.41005-0.62535-0.83558-1.4717l-0.77371-1.5388h-4.049c-2.227 0-4.1091 0.06008-4.1825 0.13352-0.0734 0.07343 1.3428 1.6116 3.1471 3.4181l3.2806 3.2846h6.7499l3.0361-1.5203c1.6699-0.83616 3.0315-1.4557 3.0258-1.3767-6e-3 0.07895-1.3966 2.9035-3.0909 6.2767l-3.0806 6.1332-0.74507-1.5282-0.74506-1.5282h-8.172l-6.4627-6.409-6.4627-6.409-0.095 1.9471-0.0949 1.9471-11.586 11.585-11.586 11.585zm-13.561-15.778-4.8898-4.8933v-10.208c0-10.03-0.0071-10.223-0.40579-11.071-0.23168-0.49287-0.69874-1.0623-1.0885-1.3272l-0.68272-0.46392h8.4436v19.848l3.2777 3.2737 3.2777 3.2737h3.5091v-26.396h8.442l-0.70919 0.58457c-0.39005 0.32152-0.81543 0.77015-0.94527 0.99696-0.18062 0.3155-0.25839 4.0262-0.33104 15.794l-0.09495 15.382-6.4565 0.04956-6.4565 0.04955zm66.341 4.2704c0.35489-0.23584 0.83752-0.80939 1.0725-1.2746l0.42726-0.84576v-13.857c0-13.704-4e-3 -13.866-0.40009-14.684-0.22006-0.45457-0.70989-1.037-1.0885-1.2943l-0.68841-0.46779h10.589l-0.64235 0.43288c-0.3533 0.23809-0.83452 0.77217-1.0694 1.1869-0.42518 0.7507-0.42705 0.79118-0.43016 9.3151-2e-3 4.7086 0.0584 8.6227 0.13366 8.698 0.0752 0.07523 1.5932-2.7751 3.3734-6.3342l3.2366-6.471 3.2163 6.4576c2.01 4.0357 3.2721 6.3697 3.3651 6.2234 0.23844-0.37539 0.18633-16.252-0.0563-17.135-0.13076-0.47597-0.52158-1.0609-1.0467-1.5666l-0.83803-0.80706 10.21 7.6e-4c10.107 7.6e-4 10.204 0.0043 9.6194 0.361-0.32496 0.19816-0.79496 0.64647-1.0444 0.99625l-0.45357 0.63591-0.0569 14.052c-0.0389 9.6013 8e-3 14.274 0.14671 14.753 0.12459 0.42884 0.51015 0.96334 0.99313 1.3768l0.78947 0.67576h-23.043l0.80183-1.6168 0.80184-1.6168-1.6571-3.3205c-0.91138-1.8263-1.7215-3.3187-1.8002-3.3165-0.17091 0.0048-3.2764 6.2652-3.2764 6.6049 0 0.12967 0.34277 0.91749 0.76171 1.7507l0.7617 1.515h-13.353zm29.917-0.22927c0.21851-0.15305 0.53661-0.57187 0.70689-0.93071 0.27772-0.58526 0.30928-2.1158 0.30647-14.866l-3e-3 -14.214-0.42848-0.75654c-0.57857-1.0216-1.2934-1.2741-1.9255-0.68033-1.0968 1.0304-1.0579 0.45412-1.0579 15.648 0 9.4043 0.0659 14.138 0.20198 14.498 0.25837 0.68384 1.109 1.579 1.5004 1.579 0.16611 0 0.4808-0.12522 0.69931-0.27827zm15.945 0.29636c0.32497-0.19816 0.79496-0.64647 1.0444-0.99625l0.45358-0.63596 0.0515-12.201 0.0515-12.201h-3.5987l-2.9492 1.5192c-1.6221 0.83554-2.9936 1.5192-3.0478 1.5192-0.0542 0 0.97022-2.1363 2.2766-4.7474l2.3752-4.7474h16.238l2.3244 4.6535c1.2784 2.5594 2.3244 4.6962 2.3244 4.7485 0 0.05228-1.3662-0.58907-3.0361-1.4252l-3.0361-1.5203h-3.4226v12.077c0 13.462-0.0497 12.934 1.3056 13.855l0.68158 0.46315-5.3137-7.59e-4c-5.299-7.6e-4 -5.3121-0.0017-4.7229-0.361zm-154.41-13.88-6.2666-3.7656-1.1917-1.583c-0.65542-0.87065-1.275-1.6862-1.3767-1.8124-0.1018-0.12615-0.18508-0.28414-0.18508-0.3511 0-0.06696-0.12162-0.39101-0.27027-0.72013-0.24292-0.53784-0.90572-3.2064-0.81221-3.2701 0.02093-0.01426 3.7339 2.1955 8.2511 4.9106l8.213 4.9365v2.7264c0 1.4995-0.02136 2.7192-0.04747 2.7104-0.02611-0.0088-2.8674-1.7105-6.3141-3.7816zm3.0383-5.0505c-1.7755-1.4084-5.3116-4.2013-7.8579-6.2065-3.4148-2.6891-4.7104-3.8208-4.9373-4.3127-0.16922-0.36678-0.35048-0.70959-0.40279-0.76181-0.11641-0.11619-0.78287-1.5021-1.2785-2.6586-0.58558-1.3664-0.78652-2.2683-0.87837-3.9422l-0.08606-1.5685 0.69428 0.54152c0.38185 0.29783 3.8133 2.9977 7.6255 5.9997s7.718 6.0705 8.6796 6.8188l1.7484 1.3606 0.0082 3.6555c0.0045 2.0105-0.01322 3.6508-0.03932 3.6452-0.02611-0.0057-1.5002-1.1627-3.2757-2.5711zm78.332-8.6564v-4.8208l9.4335-9.3937c7.522-7.4903 9.4507-9.3168 9.5181-9.0139 0.0465 0.20889 0.0417 1.448-0.0106 2.7535-0.0927 2.312-0.48222 3.9623-1.5222 6.4493-0.11083 0.26505-0.33682 0.83698-0.50219 1.271-0.23294 0.61131-2.1722 2.6798-8.6086 9.1822l-8.308 8.3932zm-83.365-5.5189c-6.3958-6.462-8.3284-8.524-8.5612-9.1348-0.16537-0.43388-0.39135-1.0057-0.50219-1.2708-0.11084-0.26505-0.47838-1.2905-0.81677-2.2788-0.55091-1.6089-0.62512-2.0836-0.70966-4.5386l-0.09441-2.7418 0.7371 0.59316c0.40541 0.32624 4.6908 4.5528 9.5232 9.3923l8.7861 8.7991-0.05083 4.7631-0.05083 4.7631zm121.09-0.11888c-0.29232-0.11503-0.30707-0.17425-0.0886-0.35558 0.16859-0.13992 0.36154-0.15471 0.54063-0.04144 0.42061 0.26602 1.2476 0.21658 1.5019-0.08979 0.27589-0.33242 0.51089-2.3868 0.27303-2.3868-0.0939 0-0.26619 0.14954-0.38281 0.33232-0.33527 0.52548-1.2783 0.99876-1.597 0.80151-0.21639-0.13392-0.26537-0.56023-0.22605-1.9672 0.0442-1.5816 0.0102-1.8067-0.28485-1.8836-0.19172-0.04999-0.0914-0.09698 0.23465-0.10982l0.56969-0.02246-0.0637 1.3469c-0.11143 2.355 0.18761 2.743 1.2608 1.6357 0.51832-0.53477 0.60694-0.76491 0.60694-1.5761 0-0.52246-0.10254-1.0525-0.22787-1.1778-0.17724-0.17724-0.0612-0.22659 0.52221-0.2221 0.61406 0.0047 0.68823 0.04177 0.409 0.20424-0.29907 0.17402-0.33723 0.45863-0.30973 2.3104l0.0314 2.1119-0.68444 0.62724c-0.68348 0.62636-1.3136 0.76614-2.0852 0.46253zm26.187-0.67453c0.39217-0.78853 0.46461-1.2083 0.46461-2.6925 0-1.3452-0.0701-1.8284-0.29841-2.0567-0.27128-0.27128-0.2497-0.29844 0.23737-0.29877l0.53578-3.61e-4 -0.0583 2.26-0.0583 2.26-0.64364 0.73118-0.64365 0.73118 0.46462-0.93419zm-48.592 0.12291c0.22613-0.18045 1.116-0.8784 1.9774-1.551l1.5662-1.2229-0.12589 0.62948c-0.0692 0.34621-0.1259 1.0461-0.1259 1.5552v0.92574l-1.8515-0.0042c-1.7866-0.0041-1.8371-0.01572-1.4404-0.33232zm5.4223-2.28c0.23066-1.8141 0.0142-4.1743-0.39277-4.2824-0.17241-0.04577 0.15653-0.08771 0.73097-0.09321 0.8044-0.0077 0.94623 0.02948 0.61716 0.16175-0.40985 0.16474-0.42727 0.26473-0.42727 2.453v2.2813l0.48505 0.12174c0.26678 0.06696 0.80086 0.07347 1.1869 0.01447l0.7018-0.10727-0.72841 0.38184c-0.59979 0.31442-0.83108 0.34605-1.3099 0.17912-0.37783-0.13171-0.65931-0.13814-0.80364-0.01836-0.16844 0.1398-0.1829-0.12411-0.0598-1.092zm8.7003 0.91996c-0.10812-0.20202-0.19658-1.0922-0.19658-1.9781 0-1.1109-0.0736-1.6405-0.23737-1.7066-0.13055-0.05268 0.01-0.10253 0.31239-0.11077l0.54976-0.01499-0.11259 1.343c-0.11828 1.4108 0.0666 2.2651 0.49029 2.2651 0.13876 0 0.52542-0.28179 0.85924-0.6262 0.53635-0.55338 0.60694-0.7503 0.60694-1.6932 0-0.67595-0.087-1.1021-0.23737-1.1628-0.13056-0.05268 0.10444-0.10122 0.52221-0.10787 0.49252-0.0078 0.66912 0.04524 0.50227 0.15096-0.33715 0.21364-0.51823 2.468-0.25816 3.214 0.17225 0.49413 0.15049 0.58159-0.16529 0.66417-0.30572 0.07995-0.36366-8e-3 -0.36366-0.55176 0-0.35577-0.0855-0.64686-0.1899-0.64686-0.10444 0-0.1899 0.08237-0.1899 0.18305 0 0.1865-1.3033 1.1462-1.5566 1.1462-0.0765 0-0.22759-0.16529-0.33571-0.36731zm6.2664 0.14424c-0.36197-0.10384-0.9815-0.15797-1.3768-0.12028-0.39525 0.03769-0.71864 0.04408-0.71864 0.0142s0.47-0.68986 1.0444-1.4666c0.57444-0.77675 1.0444-1.5023 1.0444-1.6123 0-0.26292-1.5739-0.25924-1.8374 0.0043-0.1458 0.1458-0.17923 0.07319-0.11677-0.25357 0.0832-0.43531 0.15492-0.45706 1.4554-0.44166l1.3678 0.0162-1.0991 1.5739c-0.60453 0.86562-1.0992 1.6212-1.0992 1.6792 0 0.05792 0.47011 0.07604 1.0447 0.04026 0.97612-0.06078 1.0447-0.037 1.0444 0.36222-1.4e-4 0.235-0.0216 0.41956-0.0477 0.41014-0.0261-0.0094-0.34363-0.10209-0.70559-0.20594zm11.493-0.19898c-0.37498-0.53536-0.38117-1.9-0.0119-2.6142 0.40654-0.78617 1.0111-1.1415 1.9423-1.1415h0.81228v1.8831c0 1.3376 0.0688 1.9061 0.23737 1.9625 0.13055 0.04364 2e-3 0.12437-0.28485 0.17939-0.48875 0.09363-0.52221 0.05773-0.52221-0.56036v-0.6604l-0.76013 0.68674c-0.88936 0.80348-1.0186 0.82768-1.4129 0.26469zm1.5888-0.63926c0.52047-0.43794 0.58426-0.60433 0.58426-1.5239 0-0.94044-0.0445-1.0492-0.50037-1.2225-0.69194-0.26307-1.3157 0.17278-1.4769 1.032-0.18264 0.97356 0.1842 2.206 0.65664 2.206 0.0836 0 0.41499-0.22123 0.73633-0.49162zm10.984 0.85015c-0.71888-0.40231-0.65314-2.3329 0.11199-3.2888 0.36197-0.45221 0.63774-0.57775 1.4709-0.66965l1.0254-0.1131-0.0661 1.8813c-0.0461 1.3123 2e-3 1.9235 0.15989 2.0209 0.14327 0.08855 0.052 0.17288-0.24955 0.23052-0.4454 0.08514-0.46895 0.05072-0.3724-0.54421 0.12369-0.76222-0.0999-0.80656-0.72059-0.14293-0.63075 0.67433-0.98322 0.8366-1.3596 0.62594zm1.5074-0.96547c0.50723-0.49162 0.62565-0.75321 0.6233-1.3768-4e-3 -0.93883-0.13203-1.1494-0.80126-1.3132-0.38476-0.09415-0.61848-0.02792-0.90201 0.25561-0.6395 0.6395-0.45619 3.0412 0.23212 3.0412 0.12191 0 0.50344-0.27312 0.84785-0.60694zm5.7598 0.93405c-1.5122-0.76522-0.51606-4.0631 1.178-3.8999 0.57278 0.05518 0.62769 0.12062 0.72727 0.86674 0.10638 0.79708 0.10051 0.80709-0.47474 0.80965-0.32035 0.0014-0.75336 0.02993-0.96225 0.06334-0.20888 0.03341-0.10207-0.02556 0.23737-0.13103 0.45129-0.14023 0.61717-0.30412 0.61717-0.60977 0-0.85326-0.92173-1.0361-1.3346-0.26475-0.32514 0.60752-0.22419 2.1742 0.16265 2.5243 0.40621 0.36762 1.1879 0.41224 1.5137 0.0864 0.12533-0.12533 0.22788-0.1668 0.22788-0.09216 0 0.13163-1.1382 0.89042-1.3293 0.88621-0.0522-0.0011-0.30569-0.10873-0.56327-0.23907zm15.335-0.08974c-0.63437-0.73004-0.55215-2.5156 0.14237-3.092 0.25374-0.21058 0.26531-0.17656 0.0936 0.27509-0.30108 0.79189-0.23355 1.7314 0.15932 2.2166 0.34703 0.42856 0.36796 0.43102 0.90201 0.10624 0.47687-0.29001 0.46273-0.25845-0.11072 0.24694-0.76761 0.6765-0.80642 0.68458-1.1866 0.24712zm2.1062-0.39757c-0.0125-0.38188-5e-3 -1.1761 0.0163-1.765 0.0422-1.1602-0.0693-1.3198-0.93906-1.3445-0.95824-0.02725-0.41581-0.33831 0.58994-0.33831h0.95133l-0.12509 1.4717c-0.0743 0.87373-0.0458 1.6761 0.07 1.9749 0.16654 0.42963 0.14128 0.51725-0.17281 0.59938-0.31174 0.08152-0.37131-0.0097-0.39053-0.59814zm-58.499-1.2914c0.0456-1.3658-3e-3 -1.8728-0.18989-1.9914-0.17053-0.10812-0.0836-0.16011 0.27116-0.16209 0.46274-0.0026 0.52245 0.06738 0.52432 0.61426l2e-3 0.61716 0.4864-0.61716c0.32808-0.41629 0.6488-0.61716 0.98535-0.61716 0.38808 0 0.44832 0.05064 0.27108 0.22788-0.12533 0.12533-0.23329 0.40306-0.23991 0.61716-0.0114 0.3692-0.0208 0.3674-0.18261-0.03482-0.43496-1.0815-1.3977 0.47017-1.2971 2.0905 0.0611 0.98349 0.0312 1.0876-0.31225 1.0878-0.35779 1.56e-4 -0.37625-0.106-0.31863-1.8321zm16.317 1.7056c0.16612-0.06703 0.23737-0.62832 0.23737-1.87 0-1.5301-0.0457-1.7862-0.33232-1.8611-0.1834-0.04793-0.0728-0.09672 0.24671-0.10887 0.56001-0.0213 0.57631 0.0013 0.49611 0.68829l-0.0829 0.71032 0.79894-0.72179c0.5168-0.4669 0.94515-0.70098 1.213-0.66285 0.38736 0.05515 0.42014 0.18432 0.50897 2.0058 0.0868 1.7803 0.0658 1.9468-0.24529 1.9464-0.30758-3.79e-4 -0.32812-0.13414-0.214-1.3935 0.12601-1.3906-0.066-2.215-0.51586-2.215-0.11121 0-0.49275 0.29054-0.84785 0.64565-0.52762 0.52761-0.64565 0.79027-0.64565 1.4367 0 0.43508 0.0885 0.95635 0.19658 1.1584 0.17633 0.32948 0.13233 0.36576-0.42727 0.35232-0.34312-0.0082-0.51703-0.05809-0.38647-0.11077zm10.896-5.7e-4c0.74008-0.19724 0.73894-5.0569-1e-3 -5.2544-0.16927-0.04516 0.10318-0.09203 0.60545-0.10414 0.57425-0.01385 0.869 0.04951 0.7941 0.17069-0.13211 0.21377 2.1836 4.1639 2.445 4.1707 0.26899 0.0069 0.0482-3.7078-0.24106-4.0564-0.22726-0.27382-0.1753-0.3067 0.48056-0.30411 0.53763 0.0021 0.65877 0.05129 0.45052 0.18283-0.22855 0.14437-0.28484 0.65176-0.28484 2.5674 0 1.9154 0.0563 2.4231 0.28484 2.5678 0.21512 0.13618 0.13875 0.18102-0.312 0.18322-0.39695 0.0019-0.63791-0.1084-0.71945-0.32941-0.22872-0.62029-2.4579-4.2253-2.6126-4.2253-0.18163 0-0.20211 2.4358-0.0293 3.4819 0.0814 0.49271 0.24971 0.78068 0.52013 0.88997 0.28844 0.11658 0.10891 0.15879-0.64466 0.15158-0.57443-0.0055-0.90537-0.04705-0.73542-0.09235zm17.223-1.705c0.0456-1.3658-3e-3 -1.8728-0.1899-1.9914-0.17053-0.10812-0.0836-0.16011 0.27116-0.16209 0.47275-0.0026 0.52222 0.06133 0.52222 0.67525v0.67816l0.65342-0.69284c0.84161-0.89236 1.4852-0.8681 1.6253 0.06125l0.0949 0.62978 0.65442-0.67726c0.76398-0.79065 1.4728-0.90026 1.6167-0.24999 0.052 0.235 0.11773 1.1325 0.14604 1.9944 0.0466 1.4178 0.018 1.567-0.30045 1.5666-0.31247-3.8e-4 -0.34668-0.14417-0.30513-1.2822 0.0665-1.8225 0.0302-2.0812-0.31045-2.2119-0.19512-0.07488-0.53895 0.11986-0.96645 0.54735-0.6324 0.6324-0.66055 0.71721-0.59913 1.8053 0.0543 0.96199 0.0149 1.1417-0.24992 1.1414-0.27363-3.8e-4 -0.3021-0.19102-0.2197-1.472 0.0704-1.0953 0.0257-1.5626-0.17481-1.8272-0.25805-0.34047-0.29964-0.32904-0.98191 0.27-0.70032 0.61489-0.71138 0.64599-0.65021 1.8276 0.0567 1.0962 0.0288 1.2021-0.31756 1.2021-0.35778 2.6e-5 -0.37625-0.10618-0.31863-1.8322zm7.0533 1.4641c0.32056-0.59905 0.2478-2.9725-0.10184-3.3222-0.27128-0.27128-0.25401-0.29841 0.1899-0.29841 0.43656 0 0.48831 0.07451 0.48831 0.70318v0.70318l0.72011-0.70318c0.82875-0.80925 1.5029-0.92226 1.646-0.27591 0.052 0.235 0.11773 1.1325 0.14604 1.9944 0.0469 1.4268 0.0195 1.5671-0.30635 1.5666-0.32604-3.8e-4 -0.34924-0.12058-0.26109-1.3525 0.15947-2.2288-0.16415-2.6406-1.2949-1.6478-0.66236 0.58156-0.67772 0.62633-0.61704 1.7985 0.0592 1.1438 0.0412 1.2021-0.37171 1.2017-0.37016-3.8e-4 -0.40505-0.0544-0.23737-0.36771zm-53.733-0.77326c0.14008-0.26174 0.20128-0.96349 0.15829-1.8149-0.058-1.148-0.1492-1.4724-0.52739-1.8749-0.2515-0.26772-0.56552-0.48676-0.69782-0.48676-0.13229 0-0.2877-0.07632-0.34535-0.1696-0.18035-0.29181 1.227 0.11547 1.6163 0.46773 0.47913 0.43361 0.77731 1.5733 0.62322 2.3822-0.14347 0.75318-0.54676 1.6086-0.8454 1.7931-0.14061 0.0869-0.13459-0.01136 0.0182-0.29683zm11.298-3.9867c-0.17312-0.28011 0.0663-0.56876 0.37388-0.45073 0.14672 0.0563 0.2203 0.22348 0.1635 0.3715-0.12038 0.3137-0.36975 0.35047-0.53738 0.07923zm29.234-0.01655c-0.1957-0.31664 0.24443-0.67974 0.5064-0.41777 0.21912 0.21913 0.082 0.62422-0.21133 0.62422-0.0921 0-0.2249-0.0929-0.29507-0.20644z"/>
</g>
</g>
<g transform="matrix(.64892 0 0 .64892 151.25 232.85)" fill="#000000" font-family="'DS Etienne'" letter-spacing="0px" opacity=".98" word-spacing="0px">
<text transform="scale(1.1643 .85886)" x="-33.672737" y="53.566776" font-size="15.472px" stroke-width=".3868" style="line-height:1.25" ><tspan x="-33.672737" y="53.566776" fill="#000000" stroke-width=".3868">Druyna</tspan></text>
<text transform="scale(1.1643 .85886)" x="10.19316" y="41.895218" font-size="37.705px" stroke-width=".94263" style="line-height:1.25" ><tspan x="10.19316" y="76.582634" fill="#000000" stroke-width=".94263"/></text>
<text transform="scale(1.1643 .85886)" x="-16.487165" y="65.572189" font-size="15.472px" opacity="1" stroke-width=".3868" style="line-height:1.25"><tspan x="-16.487165" y="65.572189" fill="#000000" stroke-width=".3868">Najemna</tspan></text>
</g>
</g>
</g>
</g>
</svg>
