<?xml version="1.0" encoding="UTF-8" standalone="no"?>
<!-- Created with Inkscape (http://www.inkscape.org/) -->

<svg
   xmlns:dc="http://purl.org/dc/elements/1.1/"
   xmlns:cc="http://creativecommons.org/ns#"
   xmlns:rdf="http://www.w3.org/1999/02/22-rdf-syntax-ns#"
   xmlns:svg="http://www.w3.org/2000/svg"
   xmlns="http://www.w3.org/2000/svg"
   xmlns:sodipodi="http://sodipodi.sourceforge.net/DTD/sodipodi-0.dtd"
   xmlns:inkscape="http://www.inkscape.org/namespaces/inkscape"
   width="372.79462mm"
   height="349.69958mm"
   viewBox="0 0 372.79462 349.69958"
   version="1.1"
   id="svg2029"
   inkscape:version="0.92.3 (2405546, 2018-03-11)"
   sodipodi:docname="swallowBg.svg">
  <defs
     id="defs2023" />
  <sodipodi:namedview
     id="base"
     pagecolor="#ffffff"
     bordercolor="#666666"
     borderopacity="1.0"
     inkscape:pageopacity="0.0"
     inkscape:pageshadow="2"
     inkscape:zoom="0.24748738"
     inkscape:cx="530.34179"
     inkscape:cy="983.99957"
     inkscape:document-units="mm"
     inkscape:current-layer="layer1"
     showgrid="false"
     fit-margin-top="0"
     fit-margin-left="0"
     fit-margin-right="0"
     fit-margin-bottom="0"
     inkscape:window-width="1366"
     inkscape:window-height="745"
     inkscape:window-x="-8"
     inkscape:window-y="-8"
     inkscape:window-maximized="1" />
  <metadata
     id="metadata2026">
    <rdf:RDF>
      <cc:Work
         rdf:about="">
        <dc:format>image/svg+xml</dc:format>
        <dc:type
           rdf:resource="http://purl.org/dc/dcmitype/StillImage" />
        <dc:title></dc:title>
      </cc:Work>
    </rdf:RDF>
  </metadata>
  <g
     inkscape:label="Layer 1"
     inkscape:groupmode="layer"
     id="layer1"
     transform="translate(62.421122,68.349792)">
    <path
       inkscape:connector-curvature="0"
       style="opacity:1;fill:#271f46;fill-opacity:1;fill-rule:nonzero;stroke:none;stroke-width:0.75259113;stroke-linecap:round;stroke-linejoin:round;stroke-miterlimit:4;stroke-dasharray:none;stroke-opacity:1;paint-order:normal"
       d="m 109.02868,186.75172 c -0.028,-0.028 -1.9706,1.2304 -4.3169,2.7962 -1.1901,0.7942 -2.0581,1.3674 -2.6997,1.80639 -0.6417,0.43891 -1.0572,0.74391 -1.3428,1.00061 -0.2856,0.25669 -0.4414,0.4654 -0.5635,0.7129 -0.122002,0.2474 -0.210302,0.5334 -0.361302,0.9445 -0.1916,0.5217 -0.3446,1.036 -0.4583,1.5325 -0.1136,0.4965 -0.1881,0.97519 -0.2222,1.4253 -0.034,0.45011 -0.028,0.8718 0.019,1.25431 0.047,0.38248 0.1352,0.7257 0.265,1.0192 0.1037,0.23429 0.2429,0.4549 0.4125,0.65788 0.1697,0.2031 0.369802,0.38831 0.595902,0.55312 0.2261,0.16478 0.4782,0.30908 0.7513,0.42878 0.2731,0.11962 0.567,0.21471 0.8776,0.2822 0.3679,0.08 0.9952,0.12452 1.6501,0.13121 0.6549,0.0101 1.3378,-0.0241 1.8172,-0.095 0.2139,-0.031 0.3699,-0.047 0.4848,-0.08 0.1149,-0.033 0.1886,-0.086 0.238,-0.19222 0.099,-0.21379 0.099,-0.64699 0.1357,-1.58869 0.027,-0.692 0.093,-1.43219 0.202,-2.2302 0.1087,-0.79801 0.2598,-1.6541 0.4548,-2.5788 0.1951,-0.9247 0.434,-1.91781 0.7198,-2.9898 0.2858,-1.0721 0.6182,-2.22321 0.9991,-3.46341 0.2156,-0.70219 0.3696,-1.29909 0.3417,-1.3271 z"
       id="path1061-51-7" />
    <path
       inkscape:connector-curvature="0"
       style="opacity:1;fill:#271f46;fill-opacity:1;fill-rule:nonzero;stroke:none;stroke-width:0.75259113;stroke-linecap:round;stroke-linejoin:round;stroke-miterlimit:4;stroke-dasharray:none;stroke-opacity:1;paint-order:normal"
       d="m 137.32928,186.73401 c -0.045,0.01 -0.049,0.099 -0.01,0.294 0.04,0.19511 0.1262,0.49701 0.264,0.93521 0.3754,1.19409 0.7186,2.3914 1.0217,3.55629 0.3032,1.1649 0.5667,2.29741 0.7833,3.3625 0.2165,1.06511 0.3859,2.0625 0.5015,2.95689 0.1155,0.89443 0.1769,1.68561 0.177,2.33842 0,0.2545 0,0.44471 0.019,0.58859 0.02,0.1438 0.062,0.2414 0.146,0.31059 0.084,0.069 0.2121,0.11031 0.4046,0.14121 0.1926,0.031 0.4503,0.051 0.7951,0.08 0.584,0.048 1.1361,0.061 1.6417,0.036 0.5056,-0.0241 0.9646,-0.085 1.3624,-0.17999 0.3818,-0.091 0.7253,-0.21529 1.0305,-0.37068 0.3053,-0.15542 0.572,-0.34261 0.8005,-0.56052 0.2284,-0.21789 0.4184,-0.4667 0.5698,-0.74589 0.1514,-0.27929 0.2647,-0.58891 0.3388,-0.92821 0.074,-0.3393 0.1092,-0.70829 0.1057,-1.1063 0,-0.3981 -0.046,-0.82529 -0.1273,-1.2808 -0.081,-0.4557 -0.2019,-0.93959 -0.3614,-1.45139 -0.1596,-0.5119 -0.3585,-1.0517 -0.5964,-1.61861 l -0.3029,-0.72229 -4.2215,-2.832 c -2.3217,-1.5576 -4.2762,-2.8193 -4.3434,-2.80351 z"
       id="path1057-3-8" />
    <path
       inkscape:connector-curvature="0"
       style="opacity:1;fill:#271f46;fill-opacity:1;fill-rule:nonzero;stroke:none;stroke-width:0.75259113;stroke-linecap:round;stroke-linejoin:round;stroke-miterlimit:4;stroke-dasharray:none;stroke-opacity:1;paint-order:normal"
       d="m 129.19708,181.24202 c -0.035,0 -0.057,0.026 -0.06,0.1176 0,0.091 0.014,0.24939 0.055,0.5143 0.083,0.5296 0.2686,1.48719 0.6072,3.19779 0.5665,2.86281 0.986,5.16911 1.2931,7.14351 0.3071,1.9744 0.5018,3.6166 0.6195,5.1522 0.072,0.93778 0.1021,2.07941 0.093,3.17079 -0.01,1.0914 -0.058,2.13302 -0.1436,2.87142 -0.082,0.70638 -0.1277,1.34098 -0.1013,1.41009 0.029,0.076 0.1403,0.12571 0.4238,0.1583 0.2835,0.032 0.7395,0.049 1.4593,0.058 0.6642,0.0101 1.2954,-0.035 1.5842,-0.11271 0.322,-0.086 0.5714,-0.1773 0.7852,-0.29538 0.2138,-0.11811 0.3922,-0.26271 0.5728,-0.45432 0.1786,-0.1896 0.3299,-0.3968 0.4563,-0.6314 0.1263,-0.2345 0.228,-0.49649 0.3073,-0.7955 0.079,-0.299 0.1361,-0.63529 0.1735,-1.01819 0.037,-0.38302 0.055,-0.8128 0.056,-1.299 0,-0.8272 -0.065,-1.74451 -0.1991,-2.7573 -0.1344,-1.0128 -0.3371,-2.1209 -0.6092,-3.3291 -0.2721,-1.20831 -0.6136,-2.5168 -1.0256,-3.9304 -0.412,-1.4138 -0.8943,-2.9327 -1.4485,-4.56181 l -0.6042,-1.77639 -2.1103,-1.416 c -1.1605,-0.77891 -2.1432,-1.4165 -2.184,-1.4165 z"
       id="path1053-8-7" />
    <path
       inkscape:connector-curvature="0"
       style="opacity:1;fill:#271f46;fill-opacity:1;fill-rule:nonzero;stroke:none;stroke-width:0.75259113;stroke-linecap:round;stroke-linejoin:round;stroke-miterlimit:4;stroke-dasharray:none;stroke-opacity:1;paint-order:normal"
       d="m 117.34378,181.16592 c -0.1008,0.027 -1.1604,0.7004 -2.3546,1.4976 l -2.1712,1.44939 -0.1893,0.50891 c -0.4461,1.19919 -1.613,4.8745 -2.0822,6.5579 -0.5067,1.8179 -0.8963,3.4516 -1.1692,4.9035 -0.1364,0.7259 -0.2436,1.4063 -0.3216,2.04141 -0.078,0.63508 -0.1269,1.22478 -0.1465,1.76948 -0.02,0.5448 -0.01,1.04481 0.029,1.49971 0.039,0.45468 0.1069,0.86468 0.2041,1.2301 0.097,0.36531 0.2235,0.6858 0.3791,0.96221 0.1555,0.27638 0.3402,0.50829 0.5541,0.69609 0.1971,0.17309 0.4017,0.3107 0.6323,0.42101 0.2305,0.1102 0.4872,0.19319 0.7876,0.2581 0.2707,0.058 0.979,0.066 1.7273,0.036 0.7483,-0.029 1.5368,-0.095 1.9681,-0.1814 0.3905,-0.078 0.7277,-0.1597 0.7493,-0.1814 0.022,-0.022 -0.029,-0.6232 -0.1111,-1.33688 -0.1,-0.86252 -0.1501,-2.14561 -0.1499,-3.82723 0,-0.99369 0.011,-1.861 0.047,-2.74349 0.036,-0.88239 0.097,-1.78019 0.1952,-2.83439 0.1967,-2.1085 0.5444,-4.84371 1.149,-9.3379 0.1847,-1.373 0.3631,-2.70771 0.3963,-2.9663 0.028,-0.2149 0.039,-0.33151 0.022,-0.3888 -0.017,-0.057 -0.061,-0.055 -0.145,-0.033 z"
       id="path1049-5-8" />
    <path
       style="opacity:1;fill:#271f46;fill-opacity:1;fill-rule:nonzero;stroke:none;stroke-width:0.94920003;stroke-linecap:round;stroke-linejoin:round;stroke-miterlimit:4;stroke-dasharray:none;stroke-opacity:1;paint-order:normal"
       d="m 102.87158,176.08801 c -0.024,-0.11259 -0.1707,0.026 -0.3839,0.36211 -2.857302,4.5036 -7.393602,11.3635 -9.568402,14.4698 -0.5882,0.8403 -1.1096,1.6711 -2.2231,3.6854 -1.1136,2.0143 -2.8196,5.21208 -5.7776,10.78691 -1.9772,3.72618 -3.9024,7.27829 -5.5947,10.32989 -1.6924,3.05159 -3.1519,5.60279 -4.1976,7.32729 -0.646,1.06532 -1.0029,1.7195 -1.0722,1.9677 -0.017,0.062 -0.017,0.099 0,0.11041 0.019,0.0111 0.055,0 0.1098,-0.042 0.109,-0.079 0.2896,-0.25778 0.5419,-0.53769 0.2893,-0.3207 1.2614,-1.37001 2.1605,-2.33219 0.8992,-0.96221 3.8658,-4.2014 6.5925,-7.1977 5.9766,-6.56752 7.6117,-8.32332 10.2853,-11.0431 l 2.0482,-2.08362 -0.2177,-0.76208 c -0.1197,-0.41931 -0.244,-1.34303 -0.2753,-2.05322 -0.025,-0.56079 -0.01,-1.12549 0.045,-1.70281 0.055,-0.5774 0.1504,-1.16779 0.289,-1.77978 0.1385,-0.6119 0.3199,-1.2453 0.5463,-1.91001 0.2263,-0.66459 0.4978,-1.36049 0.8161,-2.09589 0.4793,-1.1077 1.9585,-4.9322 3.312602,-8.5049 1.3542,-3.5728 2.583,-6.8936 2.5617,-6.9944 z"
       id="path1045-74-10"
       inkscape:connector-curvature="0" />
    <path
       style="opacity:1;fill:#271f46;fill-opacity:1;fill-rule:nonzero;stroke:none;stroke-width:0.94920003;stroke-linecap:round;stroke-linejoin:round;stroke-miterlimit:4;stroke-dasharray:none;stroke-opacity:1;paint-order:normal"
       d="m 143.35548,176.04061 c -0.016,0.017 0,0.089 0.029,0.2251 0.1099,0.47361 5.3087,14.02981 6.0591,15.80001 0.389,0.9176 0.7068,1.7884 0.955,2.6194 0.2482,0.83089 0.4268,1.62251 0.5364,2.38181 0.1096,0.75938 0.1508,1.4868 0.124,2.18969 -0.027,0.70289 -0.1217,1.3811 -0.2828,2.04258 l -0.2133,0.87813 2.1754,2.21009 c 2.6261,2.66808 3.9228,4.05969 9.5634,10.263 3.6298,3.99169 6.0587,6.64239 7.5946,8.2804 1.536,1.63798 2.1789,2.26298 2.2374,2.20448 0.033,-0.033 -0.046,-0.23958 -0.1761,-0.45889 -2.1213,-3.5728 -3.5071,-5.95051 -5.4508,-9.47658 -1.9438,-3.5261 -4.4455,-8.20111 -8.7964,-16.36932 -1.7077,-3.206 -3.1049,-5.86819 -3.1049,-5.9165 0,-0.048 -0.7007,-1.10319 -1.5571,-2.3446 -2.2752,-3.29749 -5.6595,-8.40229 -7.6386,-11.52119 -0.951,-1.4986 -1.8115,-2.8066 -1.9125,-2.90651 -0.082,-0.081 -0.1258,-0.1182 -0.1414,-0.1011 z"
       id="path1041-0-3"
       inkscape:connector-curvature="0" />
    <path
       inkscape:connector-curvature="0"
       style="opacity:1;fill:#271f46;fill-opacity:1;fill-rule:nonzero;stroke:none;stroke-width:0.75259113;stroke-linecap:round;stroke-linejoin:round;stroke-miterlimit:4;stroke-dasharray:none;stroke-opacity:1;paint-order:normal"
       d="m 123.18878,177.20991 c -0.088,0 -2.5855,1.67231 -2.7725,1.85651 -0.066,0.066 -0.1572,0.7097 -0.2188,1.5518 -0.058,0.79199 -0.2554,2.542 -0.439,3.8886 -0.6009,4.4066 -0.9575,7.1945 -1.1638,9.3472 -0.1032,1.0762 -0.1686,1.99369 -0.2085,2.87519 -0.04,0.88152 -0.054,1.72702 -0.055,2.65952 -2e-4,0.95959 0.02,1.81099 0.063,2.5763 0.044,0.76528 0.111,1.44449 0.205,2.05909 0.094,0.61471 0.2151,1.1652 0.3663,1.6727 0.1512,0.5076 0.3328,0.97239 0.5477,1.4166 0.2231,0.46059 0.4721,0.85439 0.7523,1.1838 0.2802,0.32949 0.5915,0.5946 0.9381,0.79809 0.3466,0.20341 0.7285,0.34541 1.1505,0.4282 0.4221,0.083 0.8843,0.10671 1.391,0.074 0.396,-0.0259 0.9579,-0.11131 1.2483,-0.1913 0.3565,-0.098 0.6886,-0.22881 0.9971,-0.3928 0.3085,-0.16401 0.5931,-0.3611 0.8546,-0.59301 0.2614,-0.2318 0.4999,-0.4981 0.7153,-0.79989 0.2155,-0.30181 0.4079,-0.63899 0.5783,-1.0128 0.1702,-0.37391 0.3183,-0.7847 0.4444,-1.23261 0.1262,-0.4481 0.2303,-0.93319 0.3132,-1.45741 0.083,-0.52419 0.1447,-1.08738 0.1854,-1.68978 0.041,-0.60259 0.06,-1.2446 0.06,-1.92749 0,-0.9788 -0.027,-1.8982 -0.091,-2.86002 -0.064,-0.9617 -0.1674,-1.9659 -0.3226,-3.11429 -0.1552,-1.1482 -0.3626,-2.44081 -0.6362,-3.9796 -0.2737,-1.5386 -0.6134,-3.3232 -1.033,-5.45601 -0.3084,-1.56759 -0.5367,-2.79409 -0.6879,-3.69789 -0.1511,-0.9038 -0.2251,-1.4848 -0.2251,-1.76161 0,-0.069 -0.01,-0.12709 -0.036,-0.18839 -0.03,-0.061 -0.085,-0.1256 -0.181,-0.2098 -0.1922,-0.1685 -0.5513,-0.4145 -1.2203,-0.86201 -0.7908,-0.52889 -1.4749,-0.96119 -1.5197,-0.96119 z"
       id="path1037-05-4" />
    <path
       inkscape:connector-curvature="0"
       style="opacity:1;fill:#271f46;fill-opacity:1;fill-rule:nonzero;stroke:none;stroke-width:0.75435704;stroke-linecap:round;stroke-linejoin:round;stroke-miterlimit:4;stroke-dasharray:none;stroke-opacity:1;paint-order:normal"
       d="m 121.05448,138.37731 c -0.1161,0.12181 -8.1768,21.32731 -8.3736,22.02881 -0.089,0.3175 -0.2514,0.7502 -0.3608,0.96199 -0.2269,0.43931 -9.5549,24.92841 -9.5549,25.08481 0,0.056 0.058,0.08 0.1282,0.053 0.07,-0.027 4.5905,-3.0392 10.0452,-6.69399 5.4547,-3.6549 10.0273,-6.6727 10.1616,-6.7064 0.052,-0.013 0.1865,0.038 0.4918,0.21289 0.3053,0.17421 0.7813,0.4708 1.5174,0.94721 1.4723,0.9528 3.984,2.6246 8.2445,5.4752 5.5051,3.68339 10.0344,6.6976 10.065,6.6976 0.031,0 0.055,-0.054 0.055,-0.1207 0,-0.066 -2.1468,-5.75011 -4.7701,-12.6312 -2.6233,-6.881 -4.8189,-12.64081 -4.879,-12.7996 -4.8423,-12.8003 -8.4841,-22.3486 -8.5515,-22.42021 -0.055,-0.058 -0.4448,0.2628 -1.0378,0.8537 -0.5226,0.52061 -0.9978,0.93031 -1.0562,0.9106 -0.058,-0.02 -0.5422,-0.4637 -1.0748,-0.98759 -0.5547,-0.5454 -1.0032,-0.9157 -1.0502,-0.8663 z"
       id="path1033-6-9" />
    <path
       style="opacity:1;fill:#271f46;fill-opacity:1;fill-rule:nonzero;stroke:none;stroke-width:0.89351559;stroke-linecap:round;stroke-linejoin:round;stroke-miterlimit:4;stroke-dasharray:none;stroke-opacity:1;paint-order:normal"
       d="m 103.93768,119.34742 c -0.03,0.03 0.099,0.61149 0.2878,1.2912 0.2113,0.7623 0.3983,1.53929 0.5627,2.34079 0.1644,0.8015 0.3063,1.6271 0.4273,2.48561 0.125,0.8871 0.2126,2.5931 0.2469,4.34009 0.034,1.7469 0.015,3.53491 -0.072,4.58641 -0.1231,1.4876 -0.3105,3.00919 -0.5633,4.5648 -0.2529,1.55559 -0.5709,3.1452 -0.9544,4.7703 -0.3836,1.6251 -0.8329,3.28559 -1.3479,4.98159 -0.515,1.69611 -1.0957,3.428 -1.743,5.19651 -0.6474,1.76839 -1.361202,3.5735 -2.141802,5.41589 -0.7806,1.8424 -1.6281,3.72221 -2.5427,5.64011 -0.9147,1.91779 -1.8966,3.8735 -2.9462,5.8683 -1.0495,1.9948 -2.167,4.02799 -3.3524,6.1012 -1.1853,2.0732 -2.4384,4.1863 -3.7604,6.3394 -1.322,2.1531 -2.7125,4.34659 -4.172,6.5811 -1.4595,2.2345 -2.988,4.51 -4.5858,6.8274 -1.5979,2.31741 -3.2651,4.67659 -5.0021,7.0784 -1.737,2.40181 -3.5435,4.84579 -5.4206,7.33348 -1.877,2.48772 -3.8247,5.01881 -5.8426,7.59392 -2.018,2.575 -4.1067,5.1943 -6.2665,7.8582 -2.1597,2.66398 -4.3902,5.37311 -6.6925,8.12739 -2.4823,2.96971 -4.8945,5.8197 -7.4532,8.79581 -2.5587,2.97609 -5.2639,6.0783 -8.331701,9.55051 -6.1355,6.94459 -13.721901,15.3711 -24.4895978,27.2384 -0.363702,0.4009 -0.661303,0.77629 -0.661303,0.83418 0,0.086 0.117901,0.033 0.632802,-0.3818 0.5148,-0.41478 1.4268,-1.1921 3.0149978,-2.5573 2.286,-1.96519 4.634003,-4.02331 6.959902,-6.09888 2.325899,-2.07571 4.629899,-4.1692 6.8268,-6.20461 2.124401,-1.96821 4.356701,-4.0862 6.632401,-6.2886 2.275699,-2.20241 4.594598,-4.48921 6.890999,-6.79471 2.2964,-2.3055 4.5703,-4.62989 6.7568,-6.90739 2.1865,-2.27751 4.2855,-4.50771 6.2314,-6.62599 2.7318,-2.97363 5.4168,-5.9813 8.0498,-9.0152 2.633,-3.03401 5.214,-6.09412 7.738,-9.17411 2.524,-3.08002 4.9913,-6.1799 7.396,-9.2919 2.4047,-3.11201 4.7467,-6.23631 7.0218,-9.3661 2.275,-3.1298 4.4832,-6.2648 6.6184,-9.3982 2.1352,-3.1334 4.1974,-6.2654 6.1824,-9.3883 1.9849,-3.12291 3.8926,-6.23691 5.7171,-9.33511 1.824502,-3.09819 3.566002,-6.1806 5.219802,-9.23999 0.55,-1.0176 0.9741,-1.80811 1.3834,-2.6391 0.4093,-0.831 0.8037,-1.7024 1.2948,-2.8807 0.9821,-2.3566 2.3508,-5.94171 4.995,-12.89071 2.8389,-7.46039 5.183,-13.67089 5.2093,-13.80129 0.019,-0.094 -0.1649,-0.3432 -0.7232,-0.92881 -0.5584,-0.5855 -1.4912,-1.50749 -2.9725,-2.9472 -2.7578,-2.68059 -5.2959,-5.1036 -7.1578,-6.84319 -1.8618,-1.7395 -3.0477,-2.7954 -3.1013,-2.7418 z"
       id="path1031-8-4"
       inkscape:connector-curvature="0" />
    <path
       style="opacity:1;fill:#271f46;fill-opacity:1;fill-rule:nonzero;stroke:none;stroke-width:0.89351559;stroke-linecap:round;stroke-linejoin:round;stroke-miterlimit:4;stroke-dasharray:none;stroke-opacity:1;paint-order:normal"
       d="m 142.50698,119.30951 c -0.1232,0 -2.3895,2.08071 -5.082,4.62261 -2.6926,2.54189 -5.8119,5.5446 -7.6417,7.38829 -0.7083,0.7137 -1.0626,1.0708 -1.2247,1.2965 -0.081,0.1128 -0.1139,0.19321 -0.1191,0.2685 0,0.075 0.017,0.14591 0.047,0.2399 0.066,0.207 2.4113,6.3924 5.2104,13.7453 2.7974,7.3484 4.0888,10.7745 5.1235,13.16861 0.5173,1.19699 0.9703,2.1362 1.5154,3.1784 0.5451,1.04229 1.1825,2.1873 2.0676,3.7973 1.1479,2.08799 2.3323,4.1815 3.5532,6.27859 1.2209,2.09711 2.4777,4.19811 3.7692,6.30151 1.2916,2.10339 2.6181,4.2091 3.9782,6.316 1.3601,2.107 2.7537,4.2153 4.1801,6.32309 1.4264,2.10781 2.8858,4.21541 4.3763,6.32131 1.4906,2.1059 3.0124,4.2101 4.5649,6.3114 1.5524,2.10119 3.1353,4.19891 4.7475,6.29258 1.6122,2.09392 3.2541,4.18341 4.9238,6.26711 1.6698,2.08359 3.3675,4.16171 5.09257,6.2325 1.7251,2.07092 3.4777,4.13422 5.2559,6.1894 1.7783,2.0552 3.5827,4.10241 5.4119,6.1392 1.8292,2.03682 3.6833,4.06331 5.5613,6.0791 1.8779,2.0157 3.7797,4.0206 5.70421,6.01241 1.92458,1.992 3.87199,3.9714 5.84089,5.9367 1.969,1.9653 3.95941,3.91649 5.97048,5.85261 2.01113,1.93587 4.04257,3.85627 6.09367,5.76029 3.26166,3.02768 7.68845,6.99979 11.32102,10.19379 1.81626,1.597 3.43371,2.99961 4.60801,3.99219 1.1743,0.99251 1.90543,1.57541 1.94794,1.53292 0.0238,-0.0241 -0.0679,-0.1846 -0.20372,-0.35729 -0.13579,-0.17262 -3.10754,-3.47112 -6.60438,-7.33002 -7.88699,-8.70339 -13.94891,-15.4596 -19.16416,-21.37878 -5.21526,-5.91921 -9.58406,-11.00151 -14.08506,-16.35811 -2.384,-2.8372 -4.6938,-5.63009 -6.9301,-8.3784 -2.2363,-2.7483 -4.3988,-5.45229 -6.4877,-8.1122 -2.0889,-2.65991 -4.1045,-5.27571 -6.04627,-7.84781 -1.9418,-2.57209 -3.81,-5.10029 -5.6051,-7.5851 -1.795,-2.48481 -3.5169,-4.92609 -5.1655,-7.3242 -1.6485,-2.39799 -3.2235,-4.75249 -4.7259,-7.06429 -1.5024,-2.3119 -2.9322,-4.5809 -4.2887,-6.807 -1.3566,-2.2262 -2.64,-4.4097 -3.851,-6.5507 -1.211,-2.14111 -2.3491,-4.2398 -3.4148,-6.2962 -1.0658,-2.0565 -2.0592,-4.0705 -2.98,-6.0429 -0.9208,-1.9724 -1.7695,-3.9035 -2.5457,-5.7924 -0.7762,-1.889 -1.4801,-3.736 -2.112,-5.5421 -0.6318,-1.806 -1.1915,-3.5708 -1.6794,-5.29441 -0.4878,-1.7237 -0.9039,-3.4059 -1.248,-5.0476 -0.3442,-1.6418 -0.6165,-3.24309 -0.8173,-4.8036 -0.2007,-1.56049 -0.3299,-3.08049 -0.3875,-4.5602 -0.046,-1.1896 -0.048,-2.3632 -0.01,-3.51339 0.041,-1.1503 0.1265,-2.27731 0.2539,-3.3729 0.1274,-1.0955 0.2975,-2.1594 0.509,-3.18491 0.2116,-1.0254 0.4643,-2.012 0.7583,-2.9519 0.064,-0.205 0.098,-0.3409 0.1027,-0.42499 0,-0.084 -0.02,-0.11671 -0.072,-0.11671 z"
       id="path1029-1-2"
       inkscape:connector-curvature="0" />
    <path
       inkscape:connector-curvature="0"
       style="opacity:1;fill:#271f46;fill-opacity:1;fill-rule:nonzero;stroke:none;stroke-width:0.80360287;stroke-linecap:round;stroke-linejoin:round;stroke-miterlimit:4;stroke-dasharray:none;stroke-opacity:1;paint-order:normal"
       d="m 16.721677,83.145708 c -0.039,-0.023 -0.094,0 -0.125399,0.048 -0.037,0.059 0.087,0.2965 0.321799,0.64891 0.234601,0.35249 0.580102,0.81989 0.987002,1.33929 0.813797,1.0389 1.873499,2.28571 2.782999,3.235 1.0864,1.134 2.270199,2.2504 3.541199,3.3438 1.270801,1.0932 2.628601,2.1636 4.062902,3.205 1.434298,1.04161 2.945,2.054 4.521798,3.03251 1.5768,0.9784 3.219802,1.92279 4.918101,2.826992 1.6984,0.90441 3.4522,1.7688 5.2511,2.5878 1.7989,0.81901 3.6428,1.59271 5.5214,2.31521 1.8785,0.72259 3.7915,1.39379 5.7287,2.0086 1.9373,0.615 3.8989,1.17289 5.8737,1.669 1.613,0.40519 3.2124,0.76909 4.8137,1.0936 1.6015,0.3245 3.2047,0.60979 4.8248,0.8584 1.6201,0.2485 3.2569,0.4606 4.926,0.6378 1.6692,0.1773 3.3706,0.3199 5.1193,0.43059 0.816,0.052 3.7561,0.067 6.5247,0.057 2.7685,-0.011 5.3658,-0.048 5.4962,-0.10351 0.099,-0.042 0.1795,-0.1098 0.1795,-0.1512 0,-0.067 -1.1235,-1.02409 -3.0628,-2.6192 -1.9393,-1.59509 -4.6946,-3.8277 -7.9585,-6.4454 l -4.716,-3.782602 -1.4863,0.06 c -1.5125,0.061 -3.5596,0.019 -5.6978,-0.098 -2.1382,-0.11759 -4.3676,-0.3118 -6.2458,-0.55859 -1.2738,-0.16741 -2.5801,-0.3751 -3.9234,-0.6248 -1.3432,-0.2496 -2.7239,-0.54151 -4.1454,-0.8762 -1.4215,-0.3347 -2.8838,-0.71251 -4.3921,-1.13501 -1.5083,-0.4225 -3.0625,-0.88929 -4.6661,-1.4023 -1.6038,-0.5131 -3.2572,-1.07199 -4.965,-1.6784 -1.7078,-0.6063 -3.4699,-1.26009 -5.2904,-1.96239 -1.8204,-0.7024 -3.699399,-1.4537 -5.6411,-2.25491 -1.9417,-0.8012 -3.9459,-1.65239 -6.0175,-2.5551 -2.5741,-1.1218 -6.8984,-3.05039 -7.061301,-3.14899 z"
       id="path1027-28-0" />
    <path
       inkscape:connector-curvature="0"
       style="opacity:1;fill:#271f46;fill-opacity:1;fill-rule:nonzero;stroke:none;stroke-width:0.80360287;stroke-linecap:round;stroke-linejoin:round;stroke-miterlimit:4;stroke-dasharray:none;stroke-opacity:1;paint-order:normal"
       d="m 231.33189,82.205908 c -0.0586,-0.019 -0.7665,0.26271 -1.57289,0.6274 -2.65605,1.2012 -3.48748,1.5699 -6.2333,2.76201 -3.68448,1.5997 -7.15184,3.03259 -10.42855,4.3077 -3.2767,1.27499 -6.36299,2.39209 -9.28571,3.36049 -1.46129,0.48411 -2.88159,0.931 -4.26449,1.3418 -1.3829,0.4108 -2.7281,0.7859 -4.0393,1.1257 -1.3112,0.33971 -2.5884,0.64421 -3.8346,0.915 -1.2462,0.27091 -2.4618,0.50781 -3.6498,0.71191 -1.0824,0.1861 -2.0928,0.34259 -3.0812,0.47409 -0.9884,0.13151 -1.9545,0.2378 -2.9489,0.3234 -1.98887,0.171 -4.09017,0.2588 -6.70367,0.29761 l -3.9984,0.059 -0.6662,0.5229 c -3.6299,2.846212 -12.7685,10.226502 -14.6606,11.839712 -0.123,0.10489 -0.2049,0.18929 -0.2467,0.25729 -0.042,0.068 -0.044,0.1191 -0.01,0.15591 0.077,0.079 0.7063,0.14189 1.6731,0.18579 0.9669,0.044 2.2712,0.07 3.6982,0.076 1.4269,0.01 2.9763,-0.01 4.4335,-0.039 1.4573,-0.033 2.8221,-0.085 3.8798,-0.15961 1.2684,-0.088 2.5338,-0.20049 3.7947,-0.3344 1.2608,-0.1339 2.5174,-0.2903 3.7684,-0.46829 2.502,-0.356 4.98147,-0.7995 7.42917,-1.3267 2.4478,-0.5271 4.8639,-1.13841 7.2382,-1.82961 2.3743,-0.6911 4.7072,-1.46209 6.9888,-2.30999 1.1407,-0.42391 2.2686,-0.8675 3.3825,-1.3292 1.11399,-0.46191 2.21381,-0.94191 3.2986,-1.44061 1.08471,-0.4988 2.15461,-1.0161 3.2077,-1.5509 1.0531,-0.5348 2.09,-1.087502 3.1091,-1.657402 1.01904,-0.57 2.02035,-1.1572 3.00296,-1.7614 0.98259,-0.6042 1.94636,-1.2256 2.8901,-1.86319 0.94374,-0.63761 1.86743,-1.29131 2.7699,-1.96141 0.90246,-0.6701 1.78353,-1.35629 2.64231,-2.058 0.87326,-0.7135 2.23017,-1.98479 3.51483,-3.2623 1.28471,-1.2775 2.49756,-2.5612 3.08282,-3.2981 0.56378,-0.7098 1.05254,-1.3716 1.38335,-1.8621 0.33081,-0.4905 0.50358,-0.8095 0.43418,-0.8327 z"
       id="path1025-5-7" />
    <path
       inkscape:connector-curvature="0"
       style="opacity:1;fill:#271f46;fill-opacity:1;fill-rule:nonzero;stroke:none;stroke-width:0.79100001;stroke-linecap:round;stroke-linejoin:round;stroke-miterlimit:4;stroke-dasharray:none;stroke-opacity:1;paint-order:normal"
       d="m 123.24858,71.704708 c -0.1181,0 -3.8763,3.4146 -7.6001,6.85131 -3.7237,3.43669 -7.4129,6.8957 -7.3923,6.98559 0.028,0.1226 0.3742,0.5555 0.9199,1.17511 0.5456,0.61969 1.2908,1.4259 2.1187,2.29549 1.6557,1.7391 3.6405,3.731 5.0131,4.9868 1.2717,1.1634 2.9371,2.6158 4.3098,3.77751 1.3728,1.16179 2.4529,2.033 2.556,2.033 0.045,0 0.5966,-0.4161 1.2252,-0.92451 1.1981,-0.9689 2.3997,-1.98229 3.6106,-3.04479 1.211,-1.06251 2.4308,-2.17381 3.666,-3.33981 0.9752,-0.9208 2.5071,-2.5045 3.7951,-3.8902 1.2879,-1.3858 2.3321,-2.5736 2.3321,-2.7022 0,-0.096 -3.5893,-3.64699 -7.2031,-7.17369 -3.6139,-3.5267 -7.2524,-7.02961 -7.351,-7.02961 z"
       id="path1023-7-0" />
    <path
       inkscape:connector-curvature="0"
       style="opacity:1;fill:#271f46;fill-opacity:1;fill-rule:nonzero;stroke:none;stroke-width:0.79100001;stroke-linecap:round;stroke-linejoin:round;stroke-miterlimit:4;stroke-dasharray:none;stroke-opacity:1;paint-order:normal"
       d="m 123.24858,71.704708 c 0.099,0 3.7371,3.50291 7.351,7.02961 3.6138,3.5267 7.2031,7.0774 7.2031,7.17369 0,0.1286 -1.0442,1.3164 -2.3321,2.7022 -1.288,1.3857 -2.8199,2.9694 -3.7951,3.8902 -1.2352,1.166 -2.455,2.2773 -3.666,3.33981 -1.2109,1.0625 -2.4125,2.07589 -3.6106,3.04479 -0.6286,0.50841 -1.1802,0.92451 -1.2252,0.92451 -0.1031,0 -1.1832,-0.87121 -2.556,-2.033 -1.3727,-1.16171 -3.0381,-2.61411 -4.3098,-3.77751 -1.3726,-1.2558 -3.3574,-3.2477 -5.0131,-4.9868 -0.8279,-0.86959 -1.5731,-1.6758 -2.1187,-2.29549 -0.5457,-0.61961 -0.8917,-1.05251 -0.9199,-1.17511 -0.021,-0.09 3.6686,-3.5489 7.3923,-6.98559 3.7238,-3.43671 7.482,-6.85131 7.6001,-6.85131 z"
       id="path1021-71-0" />
    <path
       inkscape:connector-curvature="0"
       style="opacity:1;fill:#271f46;fill-opacity:1;fill-rule:nonzero;stroke:none;stroke-width:0.80360287;stroke-linecap:round;stroke-linejoin:round;stroke-miterlimit:4;stroke-dasharray:none;stroke-opacity:1;paint-order:normal"
       d="m -14.245222,38.427008 c -0.02,10e-5 -0.037,0.01 -0.047,0.023 -0.02101,0.033 -0.02101,0.1006 0,0.221 0.049,0.24149 0.1959,0.6939 0.468299,1.4915 0.359101,1.0517 0.7674,2.0992 1.223301,3.1415 0.455801,1.0425 0.959401,2.0798 1.5088,3.1102 0.5495,1.0304 1.1447012,2.0539 1.7845012,3.0697 0.639799,1.0157 1.324099,2.0235 2.0511,3.0219 0.727099,0.9982 1.496798,1.9869 2.3079,2.9652 0.811199,0.9781 1.663599,1.9458 2.555801,2.9011 0.892098,0.9552 1.82409802,1.8984 2.79400002,2.8281 0.96989898,0.9298 1.97779998,1.846 3.02239798,2.7473 1.044501,0.9014 2.1253,1.7882 3.2413,2.6586 1.116002,0.8704 2.267101,1.7243 3.4513008,2.561 1.184299,0.8366 2.401899,1.6557 3.651399,2.4559 1.2495,0.8001 2.531001,1.5816 3.842501,2.3425 1.311399,0.7609 2.653199,1.5013 4.023601,2.2202 1.370298,0.7191 2.769198,1.4167 4.195199,2.0911 1.426001,0.6744 2.879399,1.3255 4.357999,1.9524 1.478601,0.6271 2.982302,1.2297 4.5103,1.8066 2.0623,0.7787 4.1541,1.5061 6.2737,2.1819 2.1196,0.6758 4.2674,1.2999 6.4418,1.8722 2.1743,0.5721 4.3753,1.0928 6.6018,1.5607 2.2265,0.4681 4.4784,0.8834 6.7546,1.2464 1.1422,0.1822 1.8213,0.2848 2.215,0.3255 0.378,0.039 0.4897,0.02 0.4982,-0.039 -0.1939,-0.1732 -0.886,-0.7933 -2.1657,-1.964 -0.9455,-0.8239 -1.8586,-1.6377 -2.7211,-2.4375 -1.0323,-0.9577 -2.0062,-1.8994 -2.9252,-2.8282 -0.018,-0.018 -0.034,-0.036 -0.052,-0.054 -5.9633,-5.6719 -13.6592,-13.3548 -17.5113,-18.7 -0.079,-0.055 -0.1339,-0.086 -0.1586,-0.086 -0.2917,0 -4.383498,-0.5576 -5.680999,-0.7743 -1.1743,-0.1962 -2.335101,-0.4266 -3.493301,-0.6951 -1.158198,-0.2685 -2.3137,-0.5756 -3.477599,-0.9261 -1.163799,-0.3504 -2.336099,-0.7441 -3.527401,-1.1859 -1.191401,-0.442 -2.401999,-0.932 -3.642501,-1.4748 -1.240498,-0.5429 -2.510999,-1.1385 -3.822498,-1.7918 -1.3115,-0.6533 -2.6639,-1.364 -4.068199,-2.1373 -1.4042998,-0.7733 -2.8602018,-1.6087 -4.3790028,-2.5116 -1.518899,-0.9028 -3.100297,-1.8729 -4.755398,-2.9148 -1.45620098,-0.91671 -3.6786,-2.3741 -5.9729,-3.9081 -2.294401,-1.5339 -4.6609,-3.1444 -6.4066002,-4.3685 -1.508202,-1.0575 -2.811701,-1.9494 -2.896402,-1.9819 -0.03,-0.011 -0.055,-0.018 -0.075,-0.018 z"
       id="path1019-83-0" />
    <path
       inkscape:connector-curvature="0"
       style="opacity:1;fill:#271f46;fill-opacity:1;fill-rule:nonzero;stroke:none;stroke-width:0.79100001;stroke-linecap:round;stroke-linejoin:round;stroke-miterlimit:4;stroke-dasharray:none;stroke-opacity:1;paint-order:normal"
       d="m 91.331678,5.7568112 -0.2093,0.2388 c -0.2494,0.2838 -1.848,2.933801 -2.8401,4.7081998 -0.6597,1.1797 -1.2869,2.360001 -1.8821,3.5414 -0.5952,1.181402 -1.1582,2.363502 -1.6888,3.546001 -0.5305,1.1825 -1.0288,2.3656 -1.4945,3.5486 -0.4657,1.1831 -0.8989,2.365999 -1.2996,3.5492 -0.4008,1.183201 -0.7688,2.366399 -1.1044,3.5491 -0.3355,1.182701 -0.6388,2.364901 -0.909,3.546596 -0.2702,1.1817 -0.5074,2.3632 -0.7121,3.5434 -0.2046,1.1802 -0.3767,2.3596 -0.5157,3.5378 -0.1605,1.361 -0.2744,2.7762 -0.3416,4.2189 -0.067,1.4426 -0.088,2.9124 -0.062,4.3821 0.025,1.4697 0.096,2.9394 0.2129,4.38171 0.1167,1.44219 0.2786,2.85699 0.4858,4.21729 0.1787,1.1737 0.39,2.3471 0.6341,3.5202 0.244,1.173 0.521,2.3456 0.8304,3.5181 0.3094,1.1725 0.6514,2.3449 1.0263,3.5171 0.3749,1.17221 0.7822,2.3441 1.2227,3.5161 0.4404,1.1719 0.914,2.3442 1.42,3.516 0.5061,1.1719 1.0447,2.3437 1.6165,3.51561 0.5717,1.1719 1.1763,2.34339 1.8138,3.5155 0.6376,1.17209 1.3084,2.3447 2.0118,3.51709 0.7034,1.1725 1.4398,2.3447 2.2091,3.5176 0.7694,1.17291 1.5717,2.34621 2.4071,3.5197 0.8355,1.17351 1.704,2.3475 2.6055,3.5218 0.9016,1.1742 1.8362,2.3491 2.804,3.5243 0.967802,1.1752 1.968802,2.350712 3.002902,3.526912 1.0341,1.1762 2.1014,2.35269 3.2019,3.52999 1.1005,1.17741 2.2339,2.35551 3.4008,3.53421 1.167,1.1787 2.3673,2.35809 3.6009,3.53829 1.9638,1.8789 4.4934,4.2007 6.5675,6.0534 1.0371,0.92631 1.9604,1.73521 2.6422,2.31301 0.6819,0.57779 1.1222,0.92459 1.1938,0.92599 0.09,0 0.7257,-0.48229 1.4128,-1.07589 v 0 c 1.742,-1.5049 4.4352,-3.90881 6.644,-5.9304 1.2434,-1.138 3.4537,-3.2957 5.61,-5.45281 2.1563,-2.1572 4.2587,-4.3137 5.2881,-5.4493 1.9839,-2.1888 3.8213,-4.321402 5.5288,-6.420292 1.7075,-2.09901 3.2854,-4.16431 4.7491,-6.21931 0.7318,-1.02749 1.435,-2.05219 2.112,-3.0773 0.677,-1.0251 1.3276,-2.0505 1.9539,-3.0789 0.6263,-1.0284 1.228,-2.05999 1.8076,-3.09749 0.5797,-1.03751 1.1373,-2.0808 1.6743,-3.13311 0.7152,-1.4013 1.3691,-2.7595 1.97,-4.0933 0.6008,-1.33379 1.1485,-2.6435 1.65,-3.94859 0.5015,-1.3051 0.9571,-2.60551 1.3741,-3.92071 0.4169,-1.3152 0.7951,-2.645 1.1425,-4.00899 0.2898,-1.13791 0.549,-2.27561 0.7778,-3.4128 0.2287,-1.13711 0.427,-2.27391 0.5948,-3.41061 0.1677,-1.1367 0.3052,-2.2731 0.4118,-3.4096 0.1066,-1.1365 0.1825,-2.2731 0.2279,-3.4096 0.045,-1.1365 0.06,-2.2728 0.044,-3.40959 -0.016,-1.13681 -0.062,-2.27391 -0.139,-3.41121 -0.077,-1.13729 -0.1842,-2.2751 -0.3224,-3.4132 -0.1383,-1.1381 -0.3074,-2.2767 -0.507,-3.4158 -0.1996,-1.1391 -0.43,-2.2786 -0.6909,-3.4189 -0.261,-1.140395 -0.5526,-2.281697 -0.8749,-3.423596 -0.3223,-1.1419 -0.6751,-2.284601 -1.0589,-3.428201 -0.3837,-1.143699 -0.7985,-2.287799 -1.2438,-3.4334 -0.4453,-1.145598 -0.921,-2.292699 -1.4278,-3.440599 -0.5068,-1.147901 -1.0445,-2.296999 -1.6129,-3.4474 -0.5683,-1.150299 -1.1678,-2.301901 -1.7978,-3.455 -0.63,-1.1532 -1.2911,-2.3077988 -1.9828,-3.4639008 -0.6422,-1.073399 -1.2223,-1.972599 -1.2893,-1.9983 -0.1405,-0.054 -1.5997,0.301802 -3.6318,0.8852 -1.1115,0.319 -2.1792,0.657601 -3.2024,1.014402 -1.0233,0.356799 -2.0017,0.731999 -2.9342,1.124998 -0.9326,0.393001 -1.8193,0.8037008 -2.6588,1.2313998 -0.8394,0.427701 -1.6317,0.8719 -2.3755,1.332801 -0.7439,0.460799 -1.4394,0.937901 -2.0852,1.430399 -0.6458,0.4924 -1.2421,1.000302 -1.7875,1.522902 -0.5453,0.522599 -1.0396,1.06 -1.482,1.611198 -0.4424,0.551302 -0.8325,1.116201 -1.1695,1.6945 -0.3132,0.537502 -0.5823,1.099802 -0.8056,1.680001 -0.2233,0.5802 -0.4011,1.178301 -0.5318,1.788499 -0.1306,0.610301 -0.2143,1.232601 -0.2496,1.860402 -0.035,0.627798 -0.022,1.2612 0.041,1.893898 0.055,0.5554 0.1294,1.080802 0.2284,1.594202 0.099,0.513498 0.2229,1.015098 0.3768,1.522399 0.1538,0.507299 0.3375,1.020601 0.557,1.5576 0.2195,0.5369 0.4745,1.0977 0.7705,1.700101 0.5355,1.089895 1.1636,2.167895 1.8733,3.223095 0.7097,1.0551 1.5014,2.0874 2.3647,3.084 0.8633,0.9967 1.7979,1.9579 2.7941,2.8722 0.9963,0.91431 2.0536,1.7814 3.1621,2.5895 0.7034,0.5128 1.4363,0.9945 2.1653,1.4294 0.7289,0.4349 1.4542,0.8227 2.142,1.1482 0.6878,0.3255 1.3383,0.5887 1.9182,0.7731 0.5799,0.18451 1.0892,0.2904 1.4945,0.30231 l 0.6056,0.018 -0.028,-1.463 c -0.021,-1.1129 -0.083,-2.2497 -0.1865,-3.4065 -0.1031,-1.1567 -0.2467,-2.3336 -0.43,-3.5274 -0.1833,-1.1938 -0.4064,-2.4046 -0.6682,-3.6287 -0.2617,-1.2241 -0.5618,-2.4612 -0.9002,-3.708803 -0.3383,-1.247701 -0.7145,-2.505501 -1.1276,-3.769802 -0.4131,-1.264399 -0.8632,-2.535698 -1.3492,-3.810098 -0.486,-1.274501 -1.0082,-2.552102 -1.5653,-3.829801 -0.5571,-1.277599 -1.1492,-2.555 -1.7756,-3.829201 -0.3257,-0.662699 -0.5414,-1.124598 -0.6661,-1.432499 -0.1247,-0.307801 -0.1584,-0.4615 -0.1199,-0.508 0.12,-0.1445 3.9646,-2.153301 4.1212,-2.153301 0.057,0 0.2533,0.3253 0.5364,0.8661 0.2831,0.5407 0.653,1.296702 1.0583,2.158 0.8107,1.722702 1.7623,3.866301 2.4402,5.55 0.7826,1.943802 1.4806,3.864502 2.0955,5.771301 0.6149,1.906799 1.1467,3.800099 1.5983,5.688504 0.4517,1.8884 0.8229,3.772 1.1157,5.6606 0.2928,1.8887 0.5075,3.7823 0.646,5.6896 0.064,0.8855 0.096,2.5538 0.096,4.2085 0,1.6548 -0.033,3.296 -0.098,4.1274 -0.08,1.0224 -0.1798,2.0272 -0.3008,3.0174 -0.121,0.9902 -0.2627,1.9655 -0.4268,2.929 -0.1641,0.9636 -0.3505,1.9154 -0.5591,2.8578 -0.2087,0.9424 -0.4398,1.8756 -0.6946,2.8024 -0.2548,0.9267 -0.5332,1.8471 -0.8356,2.7636 -0.3024,0.9166 -0.6288,1.8295 -0.9803,2.7415 -0.3515,0.9119 -0.728,1.8229 -1.1302,2.7357 -0.4021,0.9128 -0.8303,1.8274 -1.2846,2.7466 -0.5742,1.1618 -1.1834,2.3102 -1.8289,3.4469 -0.6454,1.1366 -1.3271,2.2614 -2.0458,3.3755 -0.7188,1.114 -1.4747,2.217 -2.2686,3.3109 -0.794,1.0938 -1.6259,2.1784 -2.497,3.2545 -0.8712,1.0761 -1.7818,2.1437 -2.7322,3.2045 -0.9503,1.0608 -1.9403,2.1147 -2.9719,3.1626 -1.0315,1.0479 -2.1042,2.0899 -3.2189,3.1275 -1.1147,1.0375 -2.2713,2.0705 -3.4711,3.100002 -1.3553,1.163 -3.1223,2.6071 -4.5692,3.7528 -1.447,1.1457 -2.574,1.993 -2.6505,1.9637 -0.1667,-0.064 -4.1857,-3.2713 -5.9495,-4.7481 -1.8495,-1.548302 -3.8844,-3.387602 -5.794,-5.220302 -0.9548,-0.9164 -1.878,-1.831 -2.7316,-2.7068 -0.8536,-0.8759 -1.6372,-1.7128 -2.312,-2.4738 -0.8823,-0.9949 -1.7273,-1.99 -2.5378,-2.9895 -0.8106,-0.9994 -1.5873,-2.0035 -2.3327,-3.0163 -0.7454,-1.0128 -1.459402,-2.034 -2.146202,-3.0691 -0.6867,-1.035 -1.3456,-2.0835 -1.9802,-3.1496 -0.6125,-1.0291 -1.4323,-2.5676 -2.2128,-4.1249 -0.7804,-1.5572 -1.5216,-3.133 -1.9781,-4.2369 -0.3239,-0.7831 -0.6547,-1.6578 -0.9788,-2.5802 -0.3241,-0.9224 -0.6412,-1.8929 -0.9389,-2.8675 -0.2978,-0.9747 -0.5759,-1.9535 -0.8207,-2.8934 -0.2447,-0.9399 -0.4564,-1.8408 -0.6216,-2.6588 -0.3434,-1.7 -0.6118,-3.4102 -0.8057,-5.1309 -0.1939,-1.7207 -0.3132,-3.4519 -0.3576,-5.1935 -0.044,-1.7416 -0.014,-3.4938 0.091,-5.25651 0.1051,-1.76279 0.2848,-3.53589 0.5395,-5.32009 0.2547,-1.7842 0.5843,-3.5793 0.9886,-5.3852 0.4043,-1.805904 0.8831,-3.622504 1.4371,-5.450404 0.554,-1.8278 1.1831,-3.6668 1.8867,-5.516901 0.7037,-1.850099 1.4819,-3.711599 2.3353,-5.584198 0.542,-1.189302 1.0748,-2.299502 1.4914,-3.119702 0.4165,-0.8201 0.7166,-1.350198 0.7937,-1.379699 0.083,-0.032 1.1094,0.4612 2.123902,0.985401 1.0145,0.524298 2.0169,1.080098 2.0526,1.173099 0.029,0.075 -0.4492,1.1656 -1.0625,2.424099 -1.0204,2.094 -1.936002,4.156101 -2.749702,6.1986 -0.4069,1.0213 -0.788,2.0379 -1.1446,3.051001 -0.3566,1.012999 -0.6885,2.0229 -0.9958,3.030799 -0.3073,1.008002 -0.5901,2.014101 -0.8491,3.020005 -0.2589,1.00589 -0.4938,2.0115 -0.7053,3.0184 -0.2116,1.007 -0.3998,2.0151 -0.5649,3.0262 -0.165,1.0111 -0.3068,2.0249 -0.4263,3.0432 -0.1268,1.0804 -0.2313,2.4756 -0.2863,3.6184 -0.055,1.1428 -0.061,2.0334 0.011,2.1048 0.047,0.047 0.1174,0.07 0.246,0.07 0.1285,-2.7e-4 0.31529,-0.024 0.5943,-0.072 0.43219,-0.074 0.89329,-0.1935 1.3771,-0.3535 0.4839,-0.16 0.9906,-0.3606 1.5131,-0.5979 0.5225,-0.2372 1.0607,-0.511 1.6087,-0.817 0.5481,-0.306 1.105502,-0.644 1.666102,-1.0103 1.121,-0.7324 2.2541,-1.577 3.3465,-2.499 0.54629,-0.4611 1.0825,-0.9415 1.602,-1.4372 0.5195,-0.4956 1.0221,-1.0064 1.5017,-1.528 0.8937,-0.972 1.7116,-1.9634 2.44739,-2.9632 0.73581,-0.9997 1.38981,-2.0078 1.95541,-3.01321 0.5657,-1.005494 1.04279,-2.008593 1.4258,-2.997793 0.1915,-0.494501 0.3593,-0.985301 0.5028,-1.4717 0.1435,-0.486402 0.2631,-0.967901 0.3571,-1.443302 0.162,-0.819298 0.2607,-1.501 0.3028,-2.1379 0.042,-0.636799 0.028,-1.229198 -0.038,-1.869098 -0.053,-0.515001 -0.135,-1.017702 -0.24751,-1.511001 -0.11249,-0.493401 -0.25509,-0.977001 -0.42889,-1.4527 -0.1739,-0.475599 -0.3788,-0.9436 -0.6155,-1.405599 -0.2367,-0.461902 -0.5052,-0.918202 -0.8062,-1.370402 -0.3481,-0.5232 -1.0594,-1.3306 -1.83191,-2.1151 -0.77239,-0.784598 -1.60619,-1.5464 -2.19829,-1.9782 -0.9135,-0.666199 -1.9171,-1.3048 -3.0029,-1.913099 -1.0859,-0.6082 -2.254,-1.1858988 -3.49591,-1.7290988 -1.24199,-0.5431 -2.558002,-1.051902 -3.939792,-1.522902 -1.3818,-0.4709 -2.82931,-0.903899 -4.3346,-1.295498 z"
       id="path1015-80-0" />
    <path
       inkscape:connector-curvature="0"
       style="opacity:1;fill:#271f46;fill-opacity:1;fill-rule:nonzero;stroke:none;stroke-width:0.79100001;stroke-linecap:round;stroke-linejoin:round;stroke-miterlimit:4;stroke-dasharray:none;stroke-opacity:1;paint-order:normal"
       d="m 69.655478,-0.33068783 c -0.9582,0.057 -1.8914,0.1786 -2.8009,0.364401 -0.9095,0.1857 -1.7951,0.435797 -2.6567,0.7503 -0.8615,0.31449903 -1.6992,0.69299903 -2.5135,1.13639803 -0.8143,0.443302 -1.6048,0.951201 -2.3725,1.5234 -0.538,0.401 -1.6369,1.3931 -2.4417,2.2045 -0.5819,0.586801 -1.119,1.171699 -1.6242,1.7735 -0.5051,0.6019 -0.9783,1.220401 -1.4319,1.8738 -0.4537,0.6535 -0.8878,1.3422018 -1.3152,2.0836018 -0.4275,0.741399 -0.8483,1.535599 -1.2749,2.401398 -0.4789,0.9721 -0.9124,1.921801 -1.3048,2.8619 -0.3924,0.940001 -0.7439,1.870302 -1.0583,2.8034 -0.3145,0.933101 -0.5922,1.869102 -0.8372,2.820501 -0.2449,0.951399 -0.4573,1.918099 -0.6413,2.912999 -0.1929,1.043302 -0.2881,1.5616 -0.355,1.819 -0.033,0.128701 -0.06,0.192402 -0.088,0.2238 -0.028,0.031 -0.057,0.031 -0.096,0.031 -0.073,0 -5.8259,-1.861399 -12.784201,-4.136699 -6.958399,-2.275299 -12.684799,-4.103099 -12.725299,-4.0618 -0.091,0.092 -0.158501,0.454599 -0.2036,0.978299 -0.045,0.5236 -0.068,1.2085 -0.068,1.9461 2.01e-4,0.737601 0.02299,1.5279 0.069,2.261902 0.046,0.733999 0.1138,1.411499 0.2046,1.924399 0.1651,0.932001 0.376399,1.8698 0.634601,2.814299 0.258198,0.944502 0.563499,1.896002 0.916199,2.855597 0.3528,0.9597 0.7527,1.9279 1.201499,2.9053 0.448702,0.9774 0.946301,1.9644 1.492401,2.9621 0.5461,0.9977 1.141,2.006 1.7859,3.0267 0.644999,1.0207 1.339901,2.0538 2.0852,3.1 0.745199,1.0463 1.541,2.1058 2.388,3.1802 0.846899,1.0744 1.7448,2.1634 2.6949,3.2686 0.795099,0.92491 1.650399,1.8616 1.9001,2.0815 0.249801,0.2198 0.453699,0.44701 0.453699,0.5049 0,0.067 1.075701,1.19851 2.312601,2.4618 1.2368,1.2633 2.6349,2.65801 3.2809,3.25101 0.5353,0.49129 0.9976,0.86939 1.0273,0.8397 0.03,-0.03 -0.083,-0.615 -0.2506,-1.30021 -0.3431,-1.40299 -0.6383,-2.8761 -0.8852,-4.4142 -0.247,-1.538 -0.4457,-3.14089 -0.5948,-4.8038 -0.071,-0.7901 -0.1263,-1.9865 -0.1654,-3.344 -0.039,-1.3575 -0.062,-2.8757 -0.067,-4.3088 0,-1.433 0.01,-2.7812 0.036,-3.7982 0.03,-1.017 0.078,-1.7026 0.1457,-1.8118 0.05,-0.081 1.1835,-0.067 2.327,-0.011 1.1436,0.056 2.2975,0.1543 2.3875,0.2419 0.045,0.044 0.068,0.2442 0.069,0.7074 0,0.4633 -0.019,1.1893 -0.061,2.2836 -0.047,1.2253 -0.062,2.4814 -0.048,3.743 0.014,1.2615 0.058,2.5283 0.1297,3.7744 0.072,1.2461 0.1721,2.4719 0.2987,3.6509 0.1266,1.1791 0.2795,2.3115 0.4578,3.3719 0.1731,1.0291 0.3725,2.0295 0.5995,3.0045 0.227,0.975 0.4816,1.9251 0.7663,2.8541 0.2848,0.929 0.5994,1.8366 0.9457,2.7275 0.3463,0.8909 0.7247,1.7647 1.1364,2.6256 0.4117,0.8609 0.857,1.7088 1.3379,2.5477 0.4809,0.8388 0.9973,1.669 1.5513,2.4939 0.554,0.8248 1.1453,1.6445 1.7761,2.4634 0.6309,0.8189 1.3012,1.6368 2.0128,2.4577 0.7443,0.8586 1.9537,2.1187 3.2691,3.4236 1.3153,1.3049 2.7365,2.6546 3.9046,3.6933 1.7125,1.5227 3.0136,2.6464 5.5568,4.7201 2.5432,2.0738 6.329,5.0978 13.0116,10.4206 3.8665,3.0797 7.3458,5.899202 10.5942,8.595802 3.2484,2.6966 6.266002,5.27 9.207702,7.8574 2.9417,2.5875 5.808,5.189 8.7545,7.9412 2.9465,2.7521 5.973,5.6552 9.2356,8.8459 1.1933,1.167 2.2162,2.1241 2.2733,2.127 0.057,0 0.3979,-0.2939 0.7571,-0.6599 1.2943,-1.3189 7.0635,-6.8997 9.3833,-9.0769 2.2631,-2.124 4.4807,-4.1631 6.7211,-6.1764 2.2404,-2.0133 4.5037,-4.0007 6.859,-6.0214 2.3553,-2.0206 4.8026,-4.0746 7.4104,-6.2208 2.6078,-2.1461 5.3762,-4.384602 8.3742,-6.774202 2.1367,-1.7032 5.8148,-4.6353 8.1736,-6.5159 2.266,-1.8065 4.1767,-3.3499 5.8017,-4.6876 1.6251,-1.3376 2.9646,-2.4694 4.08817,-3.453 1.1456,-1.0029 2.2226,-1.9813 3.2354,-2.9409 1.0128,-0.9596 1.9613,-1.9007 2.85,-2.8288 0.8886,-0.928 1.7171,-1.8429 2.4903,-2.7512 0.7732,-0.9083 1.491,-1.8097 2.1575,-2.7099 0.6665,-0.9003 1.282,-1.7997 1.8505,-2.7037 0.5685,-0.9041 1.0902,-1.8131 1.5694,-2.7327 0.4792,-0.9195 0.916,-1.8494 1.3147,-2.7962 0.3986,-0.9468 0.7589,-1.9106 1.0857,-2.8964 0.2924,-0.8824 0.5519,-1.7461 0.7839,-2.6206 0.232,-0.8744 0.4362,-1.7591 0.6191,-2.6835 0.1829,-0.9244 0.3446,-1.8882 0.4899,-2.9203 0.1453,-1.032 0.2746,-2.1324 0.3938,-3.33 0.075,-0.7491 0.1195,-1.4434 0.1462,-2.5151 0.027,-1.0717 0.035,-2.521 0.035,-4.7805 0,-2.6991 0,-4.0687 0.027,-4.7688 0.013,-0.35 0.032,-0.5329 0.06,-0.6304 0.028,-0.098 0.066,-0.10961 0.1152,-0.1194 0.2747,-0.054 1.383,-0.1173 2.43299,-0.156 1.04992,-0.039 2.042,-0.053 2.0846,-0.011 0.052,0.052 0.13301,0.9958 0.18032,2.0975 0.081,1.8949 0.10369,3.7827 0.069,5.6358 -0.035,1.8532 -0.12682,3.6718 -0.27332,5.4276 -0.1466,1.7558 -0.34798,3.449 -0.6015,5.0519 -0.25358,1.6028 -0.55928,3.115 -0.9153,4.5093 -0.11618,0.4552 -0.19658,0.902 -0.1787,0.9927 0.0151,0.078 0.29792,-0.1324 0.76221,-0.5442 0.46421,-0.4117 1.11009,-1.0253 1.8505,-1.7559 1.4809,-1.4612 3.3415,-3.3898 4.89069,-5.1036 1.31172,-1.4511 2.54085,-2.8934 3.68657,-4.3238 1.14575,-1.4303 2.20776,-2.8485 3.18431,-4.2514 0.97656,-1.4029 1.86799,-2.7903 2.67219,-4.1589 0.8042,-1.3686 1.52109,-2.7186 2.14974,-4.0463 0.62865,-1.3277 1.16911,-2.6334 1.61904,-3.913399 0.4499,-1.280099 0.80944,-2.534401 1.07743,-3.759999 0.26803,-1.225701 0.44419,-2.4223 0.52711,-3.586901 0.0415,-0.582199 0.0597,-1.156599 0.0543,-1.7224 -0.005,-0.5657 -0.0341,-1.122799 -0.0868,-1.671201 -0.0667,-0.6937 -0.17513,-1.314199 -0.2408,-1.378199 -0.0453,-0.044 -0.71411,0.135999 -2.37662,0.656299 -1.66248,0.520301 -4.31853,1.380702 -8.3385,2.697001 -7.37468,2.4149 -11.06797,3.624199 -12.93157,4.2158 -0.9317,0.295701 -1.4062,0.4373 -1.6546,0.497599 -0.2485,0.06 -0.2711,0.04 -0.2992,0.01101 -0.054,-0.054 -0.2336,-0.851202 -0.4,-1.7725 -0.1826,-1.010801 -0.4029,-2.017302 -0.6599,-3.017401 -0.2571,-1.000101 -0.551,-1.9939 -0.8811,-2.979099 -0.3302,-0.9852 -0.6963,-1.961801 -1.0981,-2.928001 -0.4019,-0.9662 -0.8394,-1.921801 -1.3116,-2.865001 -0.6465,-1.291199 -1.3319,-2.4946 -2.0557,-3.608999 -0.7237,-1.1144008 -1.4861,-2.1402008 -2.2856,-3.0767998 -0.3998,-0.4684 -0.8089,-0.914299 -1.2273,-1.3379 -0.4184,-0.423701 -0.8458,-0.8251 -1.2826,-1.2041 -0.4369,-0.379 -0.8833,-0.7356 -1.3385,-1.0697 -0.4551,-0.3341 -0.9189,-0.6457 -1.3921,-0.934799 -0.4732,-0.289201 -0.9554,-0.555901 -1.4464,-0.800002 -0.4911,-0.2441 -0.991,-0.465199 -1.4997,-0.663999 -0.5087,-0.19890003 -1.0266,-0.37520003 -1.5529,-0.52870103 -0.52617,-0.1535 -1.06097,-0.284599 -1.60447,-0.3927 -0.5436,-0.1081 -1.0956,-0.193299 -1.6562,-0.255799 -0.5607,-0.062 -1.1299,-0.102499 -1.7074,-0.119401 -0.5776,-0.01701 -1.1633,-0.01101 -1.7576,0.01799 -0.5942,0.029 -1.1968,0.081 -1.8076,0.156101 -1.161,0.142301 -2.4849,0.4078 -3.8468,0.764299 -1.3619,0.35640203 -2.7623,0.80370103 -4.0773,1.30950003 -0.8827,0.3394 -1.9463,0.791602 -2.8184,1.188 -0.8721,0.396402 -1.5527,0.736701 -1.6686,0.851101 -0.081,0.08 -0.1167,0.133099 -0.078,0.2558 0.039,0.1227 0.1521,0.314499 0.37,0.6702 0.847,1.383001 1.7955,3.0441 2.6918,4.699 0.8963,1.6548998 1.7403,3.3037008 2.3782,4.6621988 0.5597,1.1924 1.0873,2.3744 1.5828,3.5487 0.4955,1.1742 0.9589,2.340901 1.3916,3.502602 0.4327,1.161698 0.8348,2.318499 1.2062,3.473199 0.3714,1.154599 0.7121,2.3071 1.0237,3.460199 0.3115,1.153102 0.5937,2.306802 0.8469,3.463902 0.2533,1.157 0.4775,2.3175 0.6739,3.484 0.1964,1.1666 0.3649,2.3392 0.5059,3.5207 0.141,1.1816 0.2545,2.3719 0.3416,3.574 0.066,0.9082 0.099,2.722 0.099,4.5372 2e-4,1.8151 -0.033,3.6314 -0.098,4.5449 -0.088,1.2218 -0.2028,2.4294 -0.3467,3.6267 -0.1439,1.1971 -0.3165,2.3839 -0.5183,3.5636 -0.2019,1.1797 -0.4332,2.3524 -0.6951,3.5217 -0.2618,1.1693 -0.5542,2.3351 -0.878,3.5011 -0.3238,1.1659 -0.6789,2.3319 -1.0666,3.5016 -0.3877,1.1696 -0.8078,2.3433 -1.2614,3.5238 -0.4535,1.1804 -0.9406,2.3678 -1.4619,3.5662 -0.5214,1.1983 -1.0775,2.4075 -1.6687,3.6308 -0.5301,1.0969 -0.8765,1.9286 -0.8227,1.975 0.051,0.044 1.8642,-0.096 4.0287,-0.3111 1.6093,-0.1599 2.6008,-0.2652 3.2071,-0.3483 0.6062,-0.083 0.8268,-0.1439 0.895,-0.2139 0.1987,-0.2041 0.9449,-1.6057 1.803,-3.33 0.8581,-1.7244 1.8285,-3.7715 2.4758,-5.2674 0.5268,-1.2174 1.0265,-2.4285 1.4992,-3.6339 0.4726,-1.2054 0.9182,-2.405 1.3374,-3.6008 0.4191,-1.1958 0.8118,-2.3875 1.1782,-3.576 0.36627,-1.1885 0.70647,-2.3743 1.02057,-3.5579 0.3141,-1.1837 0.602,-2.3655 0.8645,-3.5466 0.2626,-1.1811 0.4995,-2.3615 0.7111,-3.5424 0.2116,-1.1809 0.3979,-2.3624 0.5591,-3.5455 0.1612,-1.1831 0.2973,-2.3677 0.4088,-3.5554 0.1238,-1.319 0.1859,-3.4825 0.186,-5.6156 2e-4,-2.1331 -0.062,-4.2358 -0.185,-5.4343 -0.1126,-1.0916 -0.2494,-2.159 -0.4108,-3.204001 -0.1614,-1.045001 -0.3471,-2.067801 -0.5586,-3.070101 -0.2115,-1.002199 -0.4487,-1.9842 -0.7116,-2.947598 -0.2629,-0.963401 -0.5515,-1.908101 -0.8671,-2.8365 -0.3156,-0.928402 -0.6582,-1.84 -1.02787,-2.7373 -0.3696,-0.8973 -0.7666,-1.78 -1.1916,-2.65 -0.425,-0.870001 -0.878,-1.727402 -1.3597,-2.574002 -0.4816,-0.846598 -0.992,-1.6823 -1.5317,-2.509398 -0.4436,-0.6798998 -0.8734,-1.2366018 -0.9554,-1.2366018 -0.082,0 -1.4829,0.249701 -3.1125,0.555001 -1.6296,0.3053 -3.0756,0.5549998 -3.2132,0.5549998 -0.076,0 -0.1304,0.01 -0.1768,-0.02 -0.046,-0.027 -0.085,-0.088 -0.1271,-0.2243008 -0.085,-0.272201 -0.1867,-0.844899 -0.4088,-2.0458 -0.2358,-1.275401 -0.3562,-1.878701 -0.3359,-2.179799 0.01,-0.150501 0.055,-0.225701 0.139,-0.271201 0.083,-0.045 0.2054,-0.062 0.3685,-0.095 1.9155,-0.386302 13.05247,-2.430401 13.24157,-2.430401 0.055,0 0.098,0 0.1354,0.034 0.038,0.029 0.07,0.081 0.1028,0.1762 0.066,0.19 0.1368,0.5495 0.2636,1.227899 0.1477,0.790901 0.3426,1.834301 0.4335,2.3187 0.091,0.484399 0.1415,0.904499 0.1122,0.933799 -0.029,0.029 -0.4355,0.128201 -0.9023,0.219602 -0.4669,0.091 -0.9009,0.206499 -0.9648,0.255799 -0.041,0.032 -0.01,0.159099 0.1111,0.405201 0.1191,0.245999 0.324,0.611101 0.6263,1.118698 0.4374,0.7345018 0.8573,1.4861008 1.2594,2.2536998 0.402,0.767501 0.7866,1.551101 1.1524,2.3486 0.3657,0.7976 0.7128,1.609501 1.0412,2.434 0.3284,0.824601 0.6377,1.661502 0.9276,2.509901 0.5799,1.697001 1.0823,3.438901 1.5022,5.213102 0.42,1.774298 0.7576,3.581299 1.0093,5.408498 0.128,0.929601 0.2355,1.978904 0.3199,3.089794 0.084,1.1108 0.1458,2.28301 0.1829,3.45761 0.037,1.17459 0.05,2.3514 0.036,3.47219 -0.014,1.12071 -0.054,2.18571 -0.123,3.13521 -0.1007,1.39099 -0.237,2.7857 -0.4088,4.1842 -0.1718,1.3985 -0.3793,2.8008 -0.6221,4.2065 -0.2429,1.40569 -0.5213,2.8145 -0.8351,4.22709 -0.3139,1.4126 -0.6632,2.8286 -1.048,4.24781 -0.3848,1.4192 -0.8053,2.8418 -1.261,4.2674 -0.4556,1.4256 -0.9468,2.8543 -1.4732,4.286 -0.5265,1.4318 -1.0881,2.8666 -1.6852,4.30419 -0.5971,1.43761 -1.22927,2.878 -1.89707,4.32121 -0.7452,1.6106 -1.7419,3.5824 -2.6277,5.2384 -0.8857,1.65599 -1.6607,2.9962 -1.9627,3.34359 l -0.2635,0.30321 -6.9128,0.6661 c -3.8019,0.3664 -6.9753,0.6987 -7.0517,0.739 -0.076,0.04 -0.6215,0.8436 -1.2113,1.7855 -0.7523,1.2011 -1.5439,2.4076 -2.3746,3.6188 -0.8307,1.21129 -1.7004,2.4273 -2.6086,3.6474 -0.9082,1.2201 -1.8553,2.4445 -2.8401,3.6726 -0.9848,1.227992 -2.0076,2.459892 -3.0681,3.694802 -1.0604,1.2349 -2.1586,2.4729 -3.2938,3.7135 -1.1353,1.2407 -2.3075,2.4842 -3.5166,3.7296 -1.2091,1.2452 -2.4552,2.4924 -3.7372,3.7413 -1.282,1.2489 -2.6003,2.4996 -3.9543,3.7513 -2.0267,1.8732 -5.5606,5.0078 -8.4243,7.4718 -1.3598,1.1701 -2.535,2.203 -2.6112,2.2954 -0.076,0.092 -0.1756,0.168 -0.2212,0.168 -0.07,0 -1.3317,-1.0561 -2.991,-2.4851 -1.6594,-1.429 -3.7163,-3.2309 -5.378,-4.7222 -1.6078,-1.443 -3.1929,-2.9079 -4.7392,-4.3801 -1.5464,-1.4723 -3.0542,-2.952 -4.5093,-4.4234 -1.4552,-1.4714 -2.8575,-2.9346 -4.1915,-4.3751 -1.334,-1.4402 -2.600102,-2.8576 -3.783202,-4.2369 -1.0642,-1.2405 -2.1073,-2.5012 -3.1208,-3.7692 -1.0134,-1.268102 -1.9973,-2.543602 -2.9419,-3.814802 -0.9446,-1.2711 -1.8501,-2.5379 -2.7079,-3.78791 -0.8577,-1.25 -1.6677,-2.48359 -2.4205,-3.68819 -0.5116,-0.8185 -0.8136,-1.2892 -1.0113,-1.5497 -0.099,-0.1302 -0.1715,-0.2079 -0.231,-0.2502 -0.059,-0.042 -0.1058,-0.049 -0.1519,-0.038 -0.196,0.048 -13.3623,-1.2018 -13.8488,-1.3151 -0.1084,-0.025 -0.3436,-0.323 -0.6666,-0.8222 -0.323,-0.4991 -0.7338,-1.1999 -1.1932,-2.0319 -0.9189,-1.6638 -2.0329,-3.8514 -3.0293,-5.9976 -0.9869,-2.12571 -1.9032,-4.2729 -2.7456,-6.428 -0.8423,-2.15521 -1.6104,-4.3187 -2.3001,-6.4782 -0.6896,-2.15941 -1.3008,-4.3146 -1.8298,-6.4533 -0.529,-2.1387 -0.9761,-4.2608 -1.3364,-6.35361 -0.3027,-1.75859 -0.5454,-3.49499 -0.7291,-5.20849 -0.1837,-1.71351 -0.3084,-3.4044 -0.3731,-5.0715 -0.065,-1.6671 -0.07,-3.31051 -0.016,-4.9299 0.054,-1.61951 0.1673,-3.21491 0.34,-4.785305 0.1727,-1.5704 0.4049,-3.115799 0.6961,-4.635899 0.2911,-1.5201 0.6416,-3.014901 1.0511,-4.483399 0.4095,-1.468501 0.8778,-2.9108 1.4056,-4.326401 0.5277,-1.415499 1.1148,-2.8043 1.7606,-4.1656 0.64,-1.3491 2.0107,-3.8673008 2.6422,-4.8545008 0.1911,-0.298698 0.3249,-0.601199 0.2977,-0.672298 -0.028,-0.072 -0.4412,-0.201102 -0.9333,-0.291502 -0.4859,-0.089 -0.913,-0.210399 -0.9493,-0.269198 -0.036,-0.059 0.1059,-1.025501 0.3168,-2.148202 0.2536,-1.350899 0.365,-1.974898 0.4532,-2.260798 0.044,-0.143 0.082,-0.2012 0.1297,-0.223801 0.048,-0.02299 0.1048,-0.01 0.186,-0.01 0.3423,0 13.6444,2.485501 13.7196,2.5606 0.054,0.054 -0.041,0.630301 -0.5447,3.315603 -0.1187,0.632298 -0.1886,0.979498 -0.2532,1.1684 -0.032,0.095 -0.063,0.149497 -0.098,0.180797 -0.035,0.031 -0.074,0.039 -0.123,0.039 -0.1178,2.64e-4 -1.6155,-0.258702 -3.328,-0.576102 l -3.1135,-0.577299 -0.2862,0.349401 c -0.2586,0.315597 -0.792,1.1514978 -1.3741,2.1279978 -0.5821,0.9764 -1.2126,2.093299 -1.665,2.970401 -0.3834,0.742899 -0.7461,1.494898 -1.0889,2.2567 -0.3427,0.761799 -0.6655,1.5333 -0.9679,2.314599 -0.3023,0.7812 -0.5843,1.572601 -0.8464,2.374 -0.2621,0.801301 -0.504,1.6129 -0.7261,2.435 -0.4441,1.6442 -0.8086,3.3303 -1.0935,5.061201 -0.2848,1.730799 -0.49,3.506205 -0.617,5.328795 -0.088,1.2636 -0.1051,3.32171 -0.066,5.3785 0.039,2.0569 0.134,4.1128 0.2698,5.37131 0.1901,1.7618 0.3891,3.27299 0.6377,4.7816 0.2485,1.5085 0.5465,3.0142 0.9348,4.7635 0.4621,2.0816 1.0262,4.2224 1.679,6.3857 0.6527,2.1633 1.3942,4.349 2.2097,6.5195 0.8154,2.1705 1.705,4.32599 2.6551,6.4291 0.95,2.10299 1.9602,4.1533 3.0169,6.11429 0.2101,0.39011 0.38,0.67841 0.5152,0.87331 0.1351,0.195 0.2356,0.2965 0.3074,0.3132 0.2276,0.053 7.0024,0.7295 7.6998,0.769 0.2344,0.013 0.4485,0 0.476,-0.026 0.027,-0.027 -0.3305,-0.8199 -0.7953,-1.7607 -0.8758,-1.7722 -1.6814,-3.5449 -2.4169,-5.3185 -0.7355,-1.7736 -1.401,-3.5481 -1.9963,-5.3237 -0.5953,-1.7756 -1.1204,-3.5523 -1.5756,-5.3304 -0.4553,-1.7781 -0.8408,-3.5576 -1.156,-5.3387 -0.3153,-1.7812 -0.5605,-3.5638 -0.7359,-5.3485 -0.1753,-1.7848 -0.2807,-3.5716 -0.3162,-5.3605 -0.036,-1.7888 0,-3.5797 0.1028,-5.3733 0.1041,-1.7935 0.2782,-3.5895 0.5219,-5.3883 0.1768,-1.3046 0.3915,-2.6104 0.6444,-3.9175 0.253,-1.3072 0.544,-2.615803 0.8728,-3.924903 0.3289,-1.3091 0.6961,-2.618801 1.1008,-3.929499 0.4047,-1.310601 0.8472,-2.621802 1.3275,-3.9336 0.4804,-1.311701 0.9986,-2.624302 1.5545,-3.936701 0.5558,-1.3124 1.1491,-2.624601 1.7802,-3.937201 0.6311,-1.312598 1.2998,-2.6254 2.0061,-3.9376988 0.7063,-1.312399 1.4501,-2.624601 2.2314,-3.936201 0.5186,-0.870699 0.9431,-1.634598 0.9431,-1.697601 0,-0.071 -0.6137,-0.402098 -1.4315,-0.795798 -0.8177,-0.3938 -1.8397,-0.850101 -2.6556,-1.172001 -1.1596,-0.4577 -2.2932,-0.850799 -3.4014,-1.17980103 -1.1081,-0.329099 -2.1909,-0.593899 -3.2483,-0.7943 -1.0575,-0.200398 -2.0901,-0.3365 -3.0975,-0.408199 -1.0075,-0.072 -1.99,-0.079 -2.9482,-0.02201 z"
       id="path1013-3-5" />
    <path
       inkscape:connector-curvature="0"
       style="opacity:1;fill:#271f46;fill-opacity:1;fill-rule:nonzero;stroke:none;stroke-width:0.80360287;stroke-linecap:round;stroke-linejoin:round;stroke-miterlimit:4;stroke-dasharray:none;stroke-opacity:1;paint-order:normal"
       d="m -37.557723,-15.693589 c -0.046,0.046 0.1182,0.742701 0.3784,1.6847 0.2603,0.942102 0.6173,2.128901 0.9587,3.154802 0.476301,1.4314992 1.010799,2.8783992 1.600701,4.3364992 0.589999,1.458 1.235299,2.927199 1.933098,4.402 0.697701,1.47499897 1.4478,2.95569997 2.247501,4.437801 0.799801,1.482299 1.649201,2.965699 2.545101,4.445799 0.896099,1.48 1.838698,2.956398 2.824999,4.4246008 0.986501,1.468299 2.016601,2.928498 3.0876,4.375398 1.071099,1.446901 2.182701,2.8805 3.332699,4.2965 1.150001,1.4161 2.338002,2.8145 3.561102,4.190101 0.85,0.956201 2.4047,2.5659 3.994099,4.158501 1.5894002,1.592498 3.2137012,3.167499 4.2031002,4.054595 1.1309,1.0138 2.272202,1.9942 3.422501,2.9399 1.1503,0.9457 2.309699,1.8568 3.47759902,2.7331 1.16800098,0.87651 2.34449998,1.7179 3.52799898,2.5237 1.183503,0.80581 2.373903,1.5763 3.571002,2.3105 1.1971,0.7342 2.4007,1.43201 3.6093978,2.0932 1.208702,0.6612 2.422502,1.2856 3.640903,1.8726 1.2183,0.58701 2.441098,1.1369 3.667098,1.6486 1.225902,0.5116 2.4554,0.98501 3.687001,1.4201 1.4606,0.51591 4.9188,1.5971 5.1518,1.6107 0.07,0 0.1276,-0.05 0.1271,-0.12079 -2.65e-4,-0.07 -0.169302,-0.33581 -0.374401,-0.5895 -0.2051,-0.25381 -0.925701,-1.19941 -1.6012,-2.10161 -1.032698,-1.37919 -2.001298,-2.7692 -2.900098,-4.1601 -0.898901,-1.3908 -1.727901,-2.7826 -2.481101,-4.1637 -0.753301,-1.3813 -1.430999,-2.7523 -2.0271,-4.1024 -0.596001,-1.3501 -1.110502,-2.6796 -1.5377,-3.9774 -0.254702,-0.773696 -0.487299,-1.588597 -0.692899,-2.418695 -0.2057,-0.8299 -0.3844,-1.674501 -0.531403,-2.5063 -0.146999,-0.8318 -0.261998,-1.651101 -0.340698,-2.430201 -0.079,-0.779201 -0.120902,-1.5181 -0.121801,-2.1903 v -0.7292 l -1.101799,-0.437801 c -1.153901,-0.458398 -2.691202,-1.201999 -4.3754998,-2.103699 -1.684102,-0.901801 -3.5151,-1.961801 -5.255201,-3.0529 -1.322599,-0.8293 -2.71479998,-1.736201 -4.16320098,-2.7105 -1.44830002,-0.9744 -2.95269902,-2.0158 -4.49969902,-3.1144 -3.094199,-2.1969998 -6.3593012,-4.6217998 -9.6867012,-7.1908008 -3.327497,-2.56899803 -6.717498,-5.2822 -10.062699,-8.0567 -3.345199,-2.7745 -6.645399,-5.6105002 -9.7927,-8.4241012 -1.345801,-1.2031 -2.0778,-1.854498 -2.4828,-2.195999 -0.4049,-0.341601 -0.4829,-0.373398 -0.5197,-0.3366 z"
       id="path1009-5-9" />
    <path
       inkscape:connector-curvature="0"
       style="opacity:1;fill:#271f46;fill-opacity:1;fill-rule:nonzero;stroke:none;stroke-width:0.80360287;stroke-linecap:round;stroke-linejoin:round;stroke-miterlimit:4;stroke-dasharray:none;stroke-opacity:1;paint-order:normal"
       d="m 285.48122,-16.646489 c -0.0476,0 -0.12088,0.04 -0.22312,0.108702 -0.20447,0.1377 -0.52488,0.408998 -0.98859,0.832199 -0.56388,0.514699 -2.27121,2.0276 -3.79362,3.362 -2.44449,2.142601 -4.9035,4.2426992 -7.3505,6.2805992 -2.44699,2.038001 -4.88203,4.013999 -7.27752,5.90939997 -2.39548,1.89540103 -4.75131,3.70990103 -7.04125,5.42480003 -2.28997,1.715 -4.51398,3.3303 -6.6444,4.8268998 -2.1304,1.496401 -4.16735,2.8742 -6.08417,4.1143 -1.91683,1.2402 -3.71311,2.3428 -5.36234,3.288601 -1.64923,0.945801 -3.15166,1.734799 -4.47929,2.348299 -0.66381,0.3068 -1.28363,0.569801 -1.8569,0.7864 -0.5733,0.216601 -1.10006,0.387101 -1.57607,0.508801 -0.3947,0.1006 -0.77528,0.225801 -0.84577,0.277699 -0.092,0.068 -0.12808,0.5031 -0.12808,1.5435 0,0.8983 -0.0516,1.814801 -0.15592,2.7525 -0.10433,0.9379 -0.26099,1.8967 -0.47096,2.880201 -0.20992,0.983499 -0.47315,1.991501 -0.7901,3.027199 -0.31692,1.035507 -0.68776,2.098597 -1.11299,3.192497 -0.33748,0.8681 -0.99624,2.279 -1.7199,3.7222 -0.72366,1.44331 -1.51231,2.91851 -2.11048,3.9165 -0.62775,1.0473 -1.32532,2.1402 -2.06324,3.23401 -0.73793,1.0937 -1.51644,2.18859 -2.30474,3.24029 -0.54062,0.7212 -0.86177,1.1662 -1.02325,1.4305 -0.0808,0.13231 -0.12168,0.219 -0.12964,0.2731 -0.008,0.054 0.0167,0.075 0.0666,0.075 0.0428,0 0.67715,-0.1635 1.40965,-0.36379 1.42523,-0.38991 2.84901,-0.83121 4.26926,-1.32261 1.42026,-0.4913 2.83705,-1.0329 4.24884,-1.6237 1.41174,-0.591 2.81845,-1.2314 4.21833,-1.92 1.39989,-0.68849 2.79284,-1.4254 4.1774,-2.2097 1.38457,-0.7843 2.76072,-1.61569 4.1265,-2.4937 1.3658,-0.8781 2.72145,-1.80269 4.06506,-2.7726 1.34358,-0.96979 2.67515,-1.9852 3.99314,-3.0449 1.31794,-1.0598 2.62231,-2.1636 3.91123,-3.311195 1.81412,-1.6153 3.58796,-3.3127 5.31194,-5.077301 1.72391,-1.764501 3.39822,-3.595899 5.01213,-5.479299 1.61396,-1.8836 3.16749,-3.819001 4.65148,-5.7913 1.48402,-1.972302 2.89825,-3.9814 4.23257,-6.0122018 1.33426,-2.030999 2.589,-4.083899 3.75369,-6.143098 1.16473,-2.059202 2.23933,-4.12500203 3.21458,-6.182302 0.48763,-1.0288 0.95049,-2.055101 1.38703,-3.077599 0.43654,-1.022501 0.84656,-2.0408 1.22957,-3.0534 0.38296,-1.0126002 0.73882,-2.0198002 1.06572,-3.0187002 0.32692,-0.9989 0.62518,-1.99 0.89355,-2.971501 0.20029,-0.732398 0.36436,-1.3668 0.36436,-1.409599 0,-0.056 -0.022,-0.082 -0.0698,-0.078 z"
       id="path1007-4-3" />
    <path
       style="opacity:1;fill:#271f46;fill-opacity:1;fill-rule:nonzero;stroke:none;stroke-width:0.79100001;stroke-linecap:round;stroke-linejoin:round;stroke-miterlimit:4;stroke-dasharray:none;stroke-opacity:1;paint-order:normal"
       d="m 126.18478,-37.025589 c -0.5877,-0.01 -1.1804,0.01 -1.7792,0.059 -0.5989,0.048 -1.204,0.125701 -1.8154,0.2321 -0.6114,0.106299 -1.2294,0.2418 -1.8546,0.406101 -0.6253,0.164399 -1.2576,0.357399 -1.8981,0.5798 -0.6406,0.222499 -1.289,0.474398 -1.9461,0.754999 -0.7922,0.338299 -1.5201,0.6692 -2.265,1.0393 -0.7449,0.370001 -1.5072,0.779401 -2.3673,1.274799 -1.7203,0.990902 -3.8334,2.325701 -6.9893,4.3796 -2.0689,1.346502 -3.724,2.413101 -5.1361,3.293301 -1.412002,0.8802 -2.581202,1.574199 -3.679302,2.1761 -1.0982,0.601901 -2.1249,1.111599 -3.252,1.6232 -1.1272,0.511501 -2.3545,1.0248 -3.8536,1.634001 -1.9853,0.806799 -3.6117,1.511699 -3.6137,1.566299 0,0.051 0.051,0.09 0.6713,0.254301 0.6207,0.164 1.8099,0.452499 4.0798,1.001401 1.0321,0.2496 1.9691,0.5095 2.85,0.795797 0.8809,0.286401 1.7054,0.599501 2.512,0.956601 0.8066,0.357101 1.5955,0.757701 2.4045,1.219499 0.809,0.461902 1.6382,0.984901 2.526502,1.585503 0.9466,0.640098 1.8462,1.319699 2.6856,2.025197 0.8394,0.7055012 1.6187,1.4371012 2.3244,2.1802012 0.7057,0.743202 1.338,1.4981 1.8836,2.251001 0.5455,0.752999 1.0042,1.503699 1.3632,2.238701 0.3621,0.741098 0.6345,1.457698 0.8165,2.153298 0.182,0.69559997 0.2735,1.37040097 0.2754,2.02780097 0,0.32870003 -0.02,0.65310003 -0.065,0.97360103 -0.044,0.3205 -0.1104,0.637098 -0.1994,0.950298 -0.1781,0.626401 -0.4465,1.2391 -0.8046,1.841802 -0.1886,0.317399 -0.5162,0.764299 -0.8299,1.1513 -0.2195,0.270798 -0.9399,1.127897 -1.093,1.2749 1.118,0.4957 2.9327,1.233898 4.5393,2.5693 0.9575,0.7921988 1.8189,1.6110978 2.5853,2.4587988 0.3832,0.423799 0.7425,0.854901 1.0785,1.293501 0.336,0.438499 0.6488,0.884399 0.9379,1.3384 0.2892,0.453898 0.5547,0.915498 0.7974,1.385398 0.2427,0.4699 0.4623,0.9482 0.6589,1.4346 0.1966,0.486301 0.3705,0.980601 0.5214,1.4841 0.1509,0.5035 0.2789,1.016202 0.3845,1.537402 0.1301,0.6424 0.2196,1.609299 0.2568,2.589998 0.037,0.980702 0.022,1.9753 -0.057,2.672702 -0.079,0.6937 -0.1974,1.394298 -0.3545,2.100098 -0.1571,0.7058 -0.3528,1.416302 -0.5855,2.129102 -0.2326,0.712798 -0.5022,1.427898 -0.8077,2.142495 -0.3054,0.7146 -0.6466,1.4287 -1.0221,2.1399 -0.3756,0.7112 -0.7855,1.4196 -1.2284,2.1224 -0.4429,0.7027 -0.9188,1.3997 -1.4263,2.0887 -0.5074,0.68911 -1.0465,1.37001 -1.6159,2.04021 -0.5694,0.67019 -1.1692,1.32989 -1.7978,1.97609 -0.6421,0.66011 -1.2956,1.2916 -1.957,1.8924 -0.6614,0.60091 -1.3306,1.1712 -2.004,1.7084 -0.6734,0.5373 -1.3508,1.0418 -2.0288,1.511 -0.678,0.4694 -1.3562,0.90381 -2.0314,1.3008 -0.6752,0.3969 -1.3473,0.7565 -2.012302,1.0769 -0.665,0.3203 -1.323,0.6014 -1.9704,0.8408 -0.6474,0.2393 -1.284,0.4366 -1.9064,0.5906 -0.6223,0.154 -1.2306,0.2644 -1.8205,0.3287 l -0.5943,0.065 0.068,0.9245 c 0.049,0.67431 0.1818,1.732 0.3447,2.8251 0.1629,1.09311 0.3563,2.22191 0.5291,3.03811 0.3288,1.55229 0.7117,3.06499 1.153,4.5506 0.4412,1.48559 0.9411,2.94399 1.5042,4.3873 0.5632,1.44329 1.1895,2.87159 1.8842,4.29689 0.6946,1.42541 1.457202,2.8481 2.292902,4.2799 0.4819,0.8257 1.2919,2.10391 2.0185,3.2096 0.7265,1.1057 1.37,2.03901 1.5198,2.1745 0.048,0.043 0.093,0.068 0.216,0 0.1226,-0.063 0.3227,-0.21409 0.6805,-0.52189 0.7157,-0.61571 2.0618,-1.85841 4.6804,-4.2804 5.8872,-5.44511 9.0514,-8.36891 10.7636,-9.92751 1.7123,-1.55859 1.9725,-1.75209 2.0516,-1.73789 0.089,0.016 4.0612,3.85469 8.8279,8.53069 4.7667,4.6761 8.698,8.5019 8.7364,8.5019 0.039,0 0.4313,-0.5105 0.8733,-1.1349 v 0 c 0.582,-0.822 1.1419,-1.65169 1.6795,-2.4887 0.5376,-0.83699 1.053,-1.6809 1.5457,-2.5317 0.4927,-0.8507 0.9625,-1.7081 1.4097,-2.57139 0.4472,-0.86331 0.8716,-1.73291 1.2728,-2.60761 0.4012,-0.8746 0.7797,-1.7543 1.1343,-2.63909 0.3546,-0.88481 0.6857,-1.77431 0.9932,-2.66801 0.3075,-0.89379 0.5913,-1.792 0.8511,-2.6934 0.2599,-0.9014 0.4959,-1.8061 0.7075,-2.7141 0.2785,-1.19489 0.5451,-2.5908 0.7519,-3.885 0.2068,-1.2942 0.3538,-2.4868 0.3922,-3.2747 l 0.029,-0.6 -0.4036,-0.071 c -0.222,-0.039 -0.7444,-0.1256 -1.1607,-0.19271 -0.5658,-0.091 -1.3969,-0.3255 -2.2577,-0.6212 -0.8608,-0.2956 -1.751,-0.6528 -2.4345,-0.9906 -0.823,-0.4069 -1.6258,-0.84689 -2.4138,-1.3245 -0.788,-0.4776 -1.5613,-0.993 -2.3259,-1.5498 -0.7647,-0.5568 -1.5203,-1.1553 -2.2733,-1.7999 -0.753,-0.6445 -1.5031,-1.335 -2.2562,-2.0758 -0.6284,-0.6182 -1.2275,-1.24109 -1.7962,-1.8691 -0.5688,-0.628 -1.1071,-1.2611 -1.616,-1.8986 -0.5088,-0.6375 -0.9878,-1.2793 -1.4366,-1.926 -0.4488,-0.6468 -0.8676,-1.2982 -1.2562,-1.9539 -0.3886,-0.65569 -0.7472,-1.3158 -1.0754,-1.9803 -0.3283,-0.6644 -0.6263,-1.3331 -0.894,-2.006 -0.2678,-0.672895 -0.505,-1.350297 -0.7121,-2.031396 -0.2071,-0.681101 -0.3839,-1.366199 -0.5302,-2.055201 -0.1271,-0.598498 -0.196,-0.967798 -0.2336,-1.461399 -0.038,-0.493599 -0.044,-1.1117 -0.045,-2.206599 0,-1.054402 0,-1.6764 0.035,-2.152801 0.032,-0.476401 0.09,-0.806799 0.1933,-1.278001 0.2014,-0.919599 0.4645,-1.803299 0.7917,-2.655099 0.3271,-0.8519 0.7185,-1.672 1.1766,-2.465001 0.4581,-0.792999 0.983,-1.558999 1.5772,-2.302198 0.5942,-0.743101 1.2576,-1.4635 1.9932,-2.165702 2.551,-2.0238978 3.6712,-2.7395988 4.7988,-3.3227988 0,-0.1081 -0.1885,-1.3062 -0.1795,-1.442299 0.048,-0.738801 0.1672,-1.5153 0.3555,-2.327002 0.1884,-0.8117 0.4461,-1.658499 0.7726,-2.538299 0.3265,-0.87990103 0.722,-1.79240103 1.185,-2.7358 0.4629,-0.9433 0.9934,-1.917599 1.5911,-2.919701 0.5404,-0.906298 1.0088,-1.7444 1.4164,-2.5425 0.4076,-0.7981 0.7544,-1.555898 1.0511,-2.3011 0.2967,-0.745299 0.5431,-1.4781002 0.7509,-2.2256992 0.2077,-0.747601 0.3769,-1.5104 0.5178,-2.315702 0.1467,-0.838898 0.2264,-1.962499 0.2367,-3.071598 0.01,-1.109101 -0.049,-2.203201 -0.1809,-2.982801 -0.106,-0.626499 -0.2382,-1.242298 -0.3964,-1.8464 -0.1582,-0.603999 -0.3428,-1.1967 -0.5529,-1.777699 -0.2101,-0.5809 -0.4459,-1.150101 -0.7075,-1.7073 -0.2615,-0.5573 -0.5487,-1.102702 -0.8614,-1.635602 -0.3127,-0.5329 -0.651,-1.053197 -1.0144,-1.5611 -0.3635,-0.508 -0.752,-1.003397 -1.1658,-1.485799 -0.4139,-0.4822 -0.8529,-0.9516 -1.3168,-1.407599 -0.4638,-0.456002 -0.9525,-0.898401 -1.466,-1.3276 -0.4764,-0.3981 -1.0017,-0.791901 -1.5544,-1.1689 -0.5528,-0.377 -1.1331,-0.7371 -1.7204,-1.0692 -0.5872,-0.3321 -1.1809,-0.6361 -1.7606,-0.8997 -0.5797,-0.263501 -1.1451,-0.4866 -1.6753,-0.657801 -0.5632,-0.181899 -1.1297,-0.3355 -1.6996,-0.459899 -0.5701,-0.1245 -1.1437,-0.219901 -1.7219,-0.286901 -0.5781,-0.067 -1.161,-0.104899 -1.7487,-0.114099 z"
       id="path1005-5-7"
       inkscape:connector-curvature="0"
       sodipodi:nodetypes="ccccccccsccccccccccccccccccccccccccccscccccccssccscccsscccccccsscccsscsccscccccsssccsccccscccsccccsccccscccccccccsccsccccccccccsccccccccccc" />
    <path
       inkscape:connector-curvature="0"
       style="opacity:1;fill:#271f46;fill-opacity:1;fill-rule:nonzero;stroke:none;stroke-width:0.80360287;stroke-linecap:round;stroke-linejoin:round;stroke-miterlimit:4;stroke-dasharray:none;stroke-opacity:1;paint-order:normal"
       d="m -62.364523,-67.394289 c -0.08,0 -0.08,0.1236 0.031,0.4673 0.1106,0.3437 0.3318,0.9073 0.6951,1.7881 0.7858,1.905 1.6595,3.8275 2.6155,5.7608 0.9561,1.9334 1.9947,3.8775 3.1117,5.8265 1.1171,1.9488 2.3123,3.9026 3.5811,5.8542 1.2687,1.9516 2.6108,3.9012 4.022,5.842699 1.4111,1.941502 2.891,3.874802 4.4351,5.793402 1.5441,1.918398 3.1528,3.8223 4.8205,5.704999 1.6679,1.882902 3.3954,3.744499 5.177601,5.578699 1.7823,1.834301 3.6194,3.640903 5.506699,5.413801 1.423699,1.3373 2.874899,2.6586 4.353801,3.963199 1.478899,1.304603 2.9851,2.592703 4.5197,3.865002 1.534599,1.2724 3.0974,2.5287002 4.6883,3.7690002 1.590699,1.240399 3.2097,2.4652 4.8571992,3.673899 1.647601,1.208801 3.323702,2.4019 5.028401,3.57949997 1.704798,1.177502 3.4382,2.33980003 5.20070102,3.48640103 1.76249798,1.1468 3.55419798,2.277899 5.37489898,3.3942 1.820698,1.1163 3.6708,2.217599 5.5502988,3.303799 1.8814,1.0872998 4.1719,2.3719998 4.818402,2.7021998 0.477199,0.243602 25.437899,8.471802 25.760599,8.491802 0.1,0.01 0.2225,-0.092 0.2725,-0.2194 0.05,-0.1269 0.3531,-1.061501 0.6735,-2.0764 0.5439,-1.722501 1.1567,-3.3718 1.8339,-4.942401 0.3386,-0.785201 0.693,-1.5508 1.0637,-2.2958 0.3705,-0.7449 0.7569,-1.4694008 1.1586,-2.1724008 0.4016,-0.702998 0.8187,-1.3843 1.2505,-2.043798 0.4319,-0.659601 0.8787,-1.297001 1.3399,-1.911601 0.4611,-0.6144 0.9368,-1.206101 1.4263,-1.773899 0.4896,-0.567801 0.9929,-1.112002 1.5099,-1.631702 0.9285,-0.93319803 1.8718,-1.76930003 2.8266,-2.50680003 0.9549,-0.73759997 1.9212,-1.37639897 2.8965,-1.91369897 0.4113,-0.2266 0.733,-0.456301 0.715,-0.510202 -0.018,-0.054 -0.839,-0.411699 -1.8243,-0.794898 -1.7673,-0.687401 -3.8449,-1.564899 -6.1731,-2.6035 -2.328,-1.0385 -4.9062,-2.237999 -7.6738,-3.5694012 -2.7676,-1.3315 -5.724699,-2.795101 -8.8105,-4.361199 -3.085801,-1.5661 -6.3001,-3.2347 -9.582801,-4.976899 -6.620799,-3.513903 -12.317101,-6.582802 -19.7765988,-10.685902 -7.459602,-4.103201 -16.6826012,-9.240401 -30.3565002,-16.8897 -16.022501,-8.9632 -23.503301,-13.1222 -29.833501,-16.5852 -6.9704,-3.8132 -6.9367,-3.7947 -7.0838,-3.7947 z"
       id="path1003-5-9" />
    <path
       inkscape:connector-curvature="0"
       style="opacity:1;fill:#271f46;fill-opacity:1;fill-rule:nonzero;stroke:none;stroke-width:0.80360287;stroke-linecap:round;stroke-linejoin:round;stroke-miterlimit:4;stroke-dasharray:none;stroke-opacity:1;paint-order:normal"
       d="m 310.36875,-68.347189 c -0.0361,-0.038 -0.79822,0.3397 -2.33415,1.1572 -1.53591,0.8174 -3.8453,2.075 -6.97458,3.7988 -6.25861,3.4476 -15.79766,8.7598 -28.99095,16.1421 -8.61938,4.823 -15.97742,8.9242 -22.38272,12.4709 -6.40532,3.546499 -11.85756,6.538601 -16.66605,9.143299 -4.80851,2.604601 -8.9731,4.822201 -12.8021,6.819202 -3.82897,1.997001 -7.32245,3.7735 -10.78926,5.4972 -2.3826,1.184698 -4.55559,2.245601 -6.55928,3.2004 -2.00371,0.9549002 -3.83841,1.8037992 -5.54551,2.5656992 -1.7072,0.761899 -3.2866,1.4366 -4.7796,2.0422 -1.493,0.6057 -2.8997,1.142402 -4.2609,1.628499 -0.7471,0.266902 -1.3582,0.521502 -1.3582,0.566002 0,0.045 0.4039,0.298699 0.8972,0.565 0.5728,0.308901 1.1314,0.6405 1.6806,0.999 0.5491,0.3585 1.0885,0.743598 1.6233,1.15870097 0.5348,0.414998 1.0652,0.859898 1.5949,1.338699 0.5297,0.47880003 1.059,0.99160003 1.5929,1.54139903 0.5243,0.540001 1.0343,1.1065 1.5298,1.6994 0.4955,0.592902 0.9766,1.212202 1.4427,1.857002 0.4661,0.644699 0.9175,1.3149 1.3535,2.010198 0.4359,0.695201 0.8563,1.415201 1.2615,2.1597008 0.4052,0.744699 0.7948,1.5141 1.1687,2.3069 0.3737,0.7929 0.7318,1.609399 1.0736,2.449099 0.3417,0.839801 0.6674,1.7027 0.97649,2.5882 0.30911,0.8857 0.6015,1.794102 0.8772,2.7243 0.09,0.302901 0.16862,0.527101 0.23791,0.675601 0.069,0.1486 0.1292,0.221099 0.18061,0.221099 0.084,0 2.60688,-0.804299 5.60689,-1.787599 3.00006,-0.9833 8.49249,-2.780901 12.2057,-3.994801 3.69621,-1.208098 5.40597,-1.7559 6.71002,-2.289998 0.65199,-0.267002 1.20245,-0.530802 1.84904,-0.872001 0.64659,-0.3411 1.38975,-0.7596 2.42602,-1.336601 2.8252,-1.5733998 5.58959,-3.1824998 8.29284,-4.8262978 2.70324,-1.643801 5.345,-3.322201 7.92432,-5.03480203 2.57932,-1.712499 5.09617,-3.45919897 7.54946,-5.23890097 2.45332,-1.779698 4.84304,-3.592697 7.16833,-5.437899 2.32529,-1.8452992 4.58618,-3.7224992 6.7814,-5.6316982 2.19523,-1.909202 4.32504,-3.850201 6.38816,-5.821702 2.06314,-1.9715 4.05966,-3.9733 5.98866,-6.005401 1.92899,-2.032198 3.79052,-4.0943 5.58334,-6.185598 1.15432,-1.346401 2.27896,-2.706701 3.37156,-4.0766 1.09262,-1.369801 2.15312,-2.749701 3.17992,-4.1364 1.02674,-1.386801 2.01946,-2.779901 2.97619,-4.176901 0.95676,-1.397 1.87788,-2.7978 2.76045,-4.1984 0.88257,-1.4006 1.72678,-2.8013 2.53101,-4.1989 0.80425,-1.3978 1.56831,-2.792 2.29005,-4.1801 0.72175,-1.3881 1.40136,-2.7698 2.03647,-4.1417 0.63505,-1.3719 1.22549,-2.7338 1.76977,-4.0829 0.35261,-0.874 0.60576,-1.6259 0.56279,-1.6706 z"
       id="path1001-9-6" />
    <path
       inkscape:connector-curvature="0"
       style="opacity:1;fill:#271f46;fill-opacity:1;fill-rule:nonzero;stroke:none;stroke-width:0.80360287;stroke-linecap:round;stroke-linejoin:round;stroke-miterlimit:4;stroke-dasharray:none;stroke-opacity:1;paint-order:normal"
       d="m 262.22329,37.382208 c 0.0204,1e-4 0.0363,0.01 0.0467,0.023 0.0209,0.033 0.0209,0.1006 -0.004,0.221 -0.0492,0.2415 -0.19592,0.6939 -0.46831,1.4916 -0.35912,1.0516 -0.7674,2.0991 -1.22322,3.1416 -0.45585,1.0423 -0.95946,2.0796 -1.50884,3.11 -0.54941,1.0305 -1.14467,2.054 -1.78448,3.0697 -0.63982,1.0157 -1.32411,2.0236 -2.05116,3.0219 -0.72708,0.9983 -1.49672,1.987 -2.30791,2.9652 -0.81116,0.9781 -1.66357,1.9458 -2.55569,2.9011 -0.89209,0.9554 -1.82414,1.8984 -2.79402,2.8282 -0.96991,0.9297 -1.97792,1.8459 -3.02239,2.7473 -1.04455,0.9014 -2.12537,1.7882 -3.24139,2.6586 -1.11596,0.8704 -2.26697,1.7243 -3.4513,2.5609 -1.1843,0.8366 -2.40189,1.6558 -3.65138,2.456 -1.24947,0.8001 -2.53095,1.5816 -3.84244,2.3425 -1.31151,0.761 -2.65324,1.5012 -4.0236,2.2202 -1.37036,0.719 -2.76918,1.4167 -4.19526,2.091 -1.42602,0.6744 -2.87943,1.3255 -4.358,1.9526 -1.47857,0.6269 -2.98228,1.2295 -4.51025,1.8065 -2.0624,0.7786 -4.15409,1.5061 -6.27369,2.1818 -2.11961,0.6758 -4.26742,1.3 -6.44171,1.8722 -2.1744,0.5722 -4.3754,1.0928 -6.6019,1.5608 -2.2265,0.468 -4.4785,0.8833 -6.7546,1.2464 -1.1423,0.1822 -1.8214,0.2848 -2.215,0.3255 -0.378,0.039 -0.4897,0.02 -0.4982,-0.039 0.1939,-0.1733 0.886,-0.7933 2.1656,-1.9641 0.9456,-0.8239 1.8587,-1.6377 2.7211,-2.4375 1.0324,-0.9577 2.0063,-1.8994 2.9253,-2.8282 0.018,-0.018 0.034,-0.035 0.051,-0.054 5.9633,-5.6719 13.6591,-13.3547 17.5113,-18.6999 0.079,-0.055 0.1338,-0.086 0.15849,-0.086 0.2917,0 4.38362,-0.5576 5.68103,-0.7744 1.1743,-0.1962 2.3351,-0.4265 3.49334,-0.6951 1.15819,-0.2685 2.31368,-0.5756 3.47758,-0.926 1.16388,-0.3505 2.33614,-0.7442 3.52745,-1.186 1.19134,-0.4419 2.40192,-0.9319 3.64244,-1.4748 1.24053,-0.5428 2.51098,-1.1385 3.82252,-1.7918 1.31151,-0.6533 2.66393,-1.3639 4.0682,-2.1373 1.40431,-0.7732 2.86018,-1.6087 4.37902,-2.5116 1.51878,-0.90271 3.10025,-1.8728 4.75538,-2.9148 1.45619,-0.9166 3.67855,-2.374 5.97291,-3.908 2.29437,-1.5339 4.66088,-3.1445 6.40655,-4.3685 1.50823,-1.0576 2.81175,-1.9493 2.89642,-1.9819 0.0299,-0.011 0.0551,-0.018 0.0756,-0.017 z"
       id="path1019-87-1-7" />
  </g>
</svg>
